G04 #@! TF.FileFunction,Copper,L2,Bot,Signal*
%FSLAX46Y46*%
G04 Gerber Fmt 4.6, Leading zero omitted, Abs format (unit mm)*
G04 Created by KiCad (PCBNEW 4.0.7) date Monday, 16. July 2018 'u49' 18:49:17*
%MOMM*%
%LPD*%
G01*
G04 APERTURE LIST*
%ADD10C,0.100000*%
%ADD11C,0.300000*%
%ADD12C,0.150000*%
%ADD13R,1.600000X1.600000*%
%ADD14O,1.600000X1.600000*%
%ADD15C,1.000000*%
%ADD16R,1.000000X1.000000*%
%ADD17R,1.700000X1.700000*%
%ADD18O,1.700000X1.700000*%
%ADD19C,1.600000*%
%ADD20C,1.000000*%
%ADD21C,0.750000*%
%ADD22C,0.254000*%
G04 APERTURE END LIST*
D10*
D11*
X178249999Y-59093571D02*
X178749999Y-58379286D01*
X179107142Y-59093571D02*
X179107142Y-57593571D01*
X178535714Y-57593571D01*
X178392856Y-57665000D01*
X178321428Y-57736429D01*
X178249999Y-57879286D01*
X178249999Y-58093571D01*
X178321428Y-58236429D01*
X178392856Y-58307857D01*
X178535714Y-58379286D01*
X179107142Y-58379286D01*
X176964285Y-59093571D02*
X176964285Y-58307857D01*
X177035714Y-58165000D01*
X177178571Y-58093571D01*
X177464285Y-58093571D01*
X177607142Y-58165000D01*
X176964285Y-59022143D02*
X177107142Y-59093571D01*
X177464285Y-59093571D01*
X177607142Y-59022143D01*
X177678571Y-58879286D01*
X177678571Y-58736429D01*
X177607142Y-58593571D01*
X177464285Y-58522143D01*
X177107142Y-58522143D01*
X176964285Y-58450714D01*
X176321428Y-59022143D02*
X176178571Y-59093571D01*
X175892856Y-59093571D01*
X175749999Y-59022143D01*
X175678571Y-58879286D01*
X175678571Y-58807857D01*
X175749999Y-58665000D01*
X175892856Y-58593571D01*
X176107142Y-58593571D01*
X176249999Y-58522143D01*
X176321428Y-58379286D01*
X176321428Y-58307857D01*
X176249999Y-58165000D01*
X176107142Y-58093571D01*
X175892856Y-58093571D01*
X175749999Y-58165000D01*
X175035713Y-58093571D02*
X175035713Y-59593571D01*
X175035713Y-58165000D02*
X174892856Y-58093571D01*
X174607142Y-58093571D01*
X174464285Y-58165000D01*
X174392856Y-58236429D01*
X174321427Y-58379286D01*
X174321427Y-58807857D01*
X174392856Y-58950714D01*
X174464285Y-59022143D01*
X174607142Y-59093571D01*
X174892856Y-59093571D01*
X175035713Y-59022143D01*
X173678570Y-59093571D02*
X173678570Y-57593571D01*
X173678570Y-58165000D02*
X173535713Y-58093571D01*
X173249999Y-58093571D01*
X173107142Y-58165000D01*
X173035713Y-58236429D01*
X172964284Y-58379286D01*
X172964284Y-58807857D01*
X173035713Y-58950714D01*
X173107142Y-59022143D01*
X173249999Y-59093571D01*
X173535713Y-59093571D01*
X173678570Y-59022143D01*
X171749999Y-59022143D02*
X171892856Y-59093571D01*
X172178570Y-59093571D01*
X172321427Y-59022143D01*
X172392856Y-58879286D01*
X172392856Y-58307857D01*
X172321427Y-58165000D01*
X172178570Y-58093571D01*
X171892856Y-58093571D01*
X171749999Y-58165000D01*
X171678570Y-58307857D01*
X171678570Y-58450714D01*
X172392856Y-58593571D01*
X171035713Y-59093571D02*
X171035713Y-58093571D01*
X171035713Y-58379286D02*
X170964285Y-58236429D01*
X170892856Y-58165000D01*
X170749999Y-58093571D01*
X170607142Y-58093571D01*
X170107142Y-59093571D02*
X170107142Y-58093571D01*
X170107142Y-58379286D02*
X170035714Y-58236429D01*
X169964285Y-58165000D01*
X169821428Y-58093571D01*
X169678571Y-58093571D01*
X169321428Y-58093571D02*
X168964285Y-59093571D01*
X168607143Y-58093571D02*
X168964285Y-59093571D01*
X169107143Y-59450714D01*
X169178571Y-59522143D01*
X169321428Y-59593571D01*
X166892857Y-59093571D02*
X166892857Y-57593571D01*
X166392857Y-58665000D01*
X165892857Y-57593571D01*
X165892857Y-59093571D01*
X164535714Y-58093571D02*
X164535714Y-59093571D01*
X165178571Y-58093571D02*
X165178571Y-58879286D01*
X165107143Y-59022143D01*
X164964285Y-59093571D01*
X164750000Y-59093571D01*
X164607143Y-59022143D01*
X164535714Y-58950714D01*
X163607142Y-59093571D02*
X163750000Y-59022143D01*
X163821428Y-58879286D01*
X163821428Y-57593571D01*
X163250000Y-58093571D02*
X162678571Y-58093571D01*
X163035714Y-57593571D02*
X163035714Y-58879286D01*
X162964286Y-59022143D01*
X162821428Y-59093571D01*
X162678571Y-59093571D01*
X162178571Y-59093571D02*
X162178571Y-58093571D01*
X162178571Y-57593571D02*
X162250000Y-57665000D01*
X162178571Y-57736429D01*
X162107143Y-57665000D01*
X162178571Y-57593571D01*
X162178571Y-57736429D01*
X160321428Y-59093571D02*
X160321428Y-57593571D01*
X159750000Y-57593571D01*
X159607142Y-57665000D01*
X159535714Y-57736429D01*
X159464285Y-57879286D01*
X159464285Y-58093571D01*
X159535714Y-58236429D01*
X159607142Y-58307857D01*
X159750000Y-58379286D01*
X160321428Y-58379286D01*
X158178571Y-58093571D02*
X158178571Y-59093571D01*
X158821428Y-58093571D02*
X158821428Y-58879286D01*
X158750000Y-59022143D01*
X158607142Y-59093571D01*
X158392857Y-59093571D01*
X158250000Y-59022143D01*
X158178571Y-58950714D01*
X157464285Y-59093571D02*
X157464285Y-58093571D01*
X157464285Y-58379286D02*
X157392857Y-58236429D01*
X157321428Y-58165000D01*
X157178571Y-58093571D01*
X157035714Y-58093571D01*
X156535714Y-58093571D02*
X156535714Y-59593571D01*
X156535714Y-58165000D02*
X156392857Y-58093571D01*
X156107143Y-58093571D01*
X155964286Y-58165000D01*
X155892857Y-58236429D01*
X155821428Y-58379286D01*
X155821428Y-58807857D01*
X155892857Y-58950714D01*
X155964286Y-59022143D01*
X156107143Y-59093571D01*
X156392857Y-59093571D01*
X156535714Y-59022143D01*
X154964285Y-59093571D02*
X155107143Y-59022143D01*
X155178571Y-58950714D01*
X155250000Y-58807857D01*
X155250000Y-58379286D01*
X155178571Y-58236429D01*
X155107143Y-58165000D01*
X154964285Y-58093571D01*
X154750000Y-58093571D01*
X154607143Y-58165000D01*
X154535714Y-58236429D01*
X154464285Y-58379286D01*
X154464285Y-58807857D01*
X154535714Y-58950714D01*
X154607143Y-59022143D01*
X154750000Y-59093571D01*
X154964285Y-59093571D01*
X153892857Y-59022143D02*
X153750000Y-59093571D01*
X153464285Y-59093571D01*
X153321428Y-59022143D01*
X153250000Y-58879286D01*
X153250000Y-58807857D01*
X153321428Y-58665000D01*
X153464285Y-58593571D01*
X153678571Y-58593571D01*
X153821428Y-58522143D01*
X153892857Y-58379286D01*
X153892857Y-58307857D01*
X153821428Y-58165000D01*
X153678571Y-58093571D01*
X153464285Y-58093571D01*
X153321428Y-58165000D01*
X152035714Y-59022143D02*
X152178571Y-59093571D01*
X152464285Y-59093571D01*
X152607142Y-59022143D01*
X152678571Y-58879286D01*
X152678571Y-58307857D01*
X152607142Y-58165000D01*
X152464285Y-58093571D01*
X152178571Y-58093571D01*
X152035714Y-58165000D01*
X151964285Y-58307857D01*
X151964285Y-58450714D01*
X152678571Y-58593571D01*
X149678571Y-58307857D02*
X149464285Y-58379286D01*
X149392857Y-58450714D01*
X149321428Y-58593571D01*
X149321428Y-58807857D01*
X149392857Y-58950714D01*
X149464285Y-59022143D01*
X149607143Y-59093571D01*
X150178571Y-59093571D01*
X150178571Y-57593571D01*
X149678571Y-57593571D01*
X149535714Y-57665000D01*
X149464285Y-57736429D01*
X149392857Y-57879286D01*
X149392857Y-58022143D01*
X149464285Y-58165000D01*
X149535714Y-58236429D01*
X149678571Y-58307857D01*
X150178571Y-58307857D01*
X148464285Y-59093571D02*
X148607143Y-59022143D01*
X148678571Y-58950714D01*
X148750000Y-58807857D01*
X148750000Y-58379286D01*
X148678571Y-58236429D01*
X148607143Y-58165000D01*
X148464285Y-58093571D01*
X148250000Y-58093571D01*
X148107143Y-58165000D01*
X148035714Y-58236429D01*
X147964285Y-58379286D01*
X147964285Y-58807857D01*
X148035714Y-58950714D01*
X148107143Y-59022143D01*
X148250000Y-59093571D01*
X148464285Y-59093571D01*
X146678571Y-59093571D02*
X146678571Y-58307857D01*
X146750000Y-58165000D01*
X146892857Y-58093571D01*
X147178571Y-58093571D01*
X147321428Y-58165000D01*
X146678571Y-59022143D02*
X146821428Y-59093571D01*
X147178571Y-59093571D01*
X147321428Y-59022143D01*
X147392857Y-58879286D01*
X147392857Y-58736429D01*
X147321428Y-58593571D01*
X147178571Y-58522143D01*
X146821428Y-58522143D01*
X146678571Y-58450714D01*
X145964285Y-59093571D02*
X145964285Y-58093571D01*
X145964285Y-58379286D02*
X145892857Y-58236429D01*
X145821428Y-58165000D01*
X145678571Y-58093571D01*
X145535714Y-58093571D01*
X144392857Y-59093571D02*
X144392857Y-57593571D01*
X144392857Y-59022143D02*
X144535714Y-59093571D01*
X144821428Y-59093571D01*
X144964286Y-59022143D01*
X145035714Y-58950714D01*
X145107143Y-58807857D01*
X145107143Y-58379286D01*
X145035714Y-58236429D01*
X144964286Y-58165000D01*
X144821428Y-58093571D01*
X144535714Y-58093571D01*
X144392857Y-58165000D01*
X142750000Y-57593571D02*
X142250000Y-59093571D01*
X141750000Y-57593571D01*
X141321429Y-57736429D02*
X141250000Y-57665000D01*
X141107143Y-57593571D01*
X140750000Y-57593571D01*
X140607143Y-57665000D01*
X140535714Y-57736429D01*
X140464286Y-57879286D01*
X140464286Y-58022143D01*
X140535714Y-58236429D01*
X141392857Y-59093571D01*
X140464286Y-59093571D01*
X139821429Y-58950714D02*
X139750001Y-59022143D01*
X139821429Y-59093571D01*
X139892858Y-59022143D01*
X139821429Y-58950714D01*
X139821429Y-59093571D01*
X138821429Y-57593571D02*
X138678572Y-57593571D01*
X138535715Y-57665000D01*
X138464286Y-57736429D01*
X138392857Y-57879286D01*
X138321429Y-58165000D01*
X138321429Y-58522143D01*
X138392857Y-58807857D01*
X138464286Y-58950714D01*
X138535715Y-59022143D01*
X138678572Y-59093571D01*
X138821429Y-59093571D01*
X138964286Y-59022143D01*
X139035715Y-58950714D01*
X139107143Y-58807857D01*
X139178572Y-58522143D01*
X139178572Y-58165000D01*
X139107143Y-57879286D01*
X139035715Y-57736429D01*
X138964286Y-57665000D01*
X138821429Y-57593571D01*
X177821428Y-61643571D02*
X177821428Y-60143571D01*
X177321428Y-61215000D01*
X176821428Y-60143571D01*
X176821428Y-61643571D01*
X175464285Y-61643571D02*
X175464285Y-60857857D01*
X175535714Y-60715000D01*
X175678571Y-60643571D01*
X175964285Y-60643571D01*
X176107142Y-60715000D01*
X175464285Y-61572143D02*
X175607142Y-61643571D01*
X175964285Y-61643571D01*
X176107142Y-61572143D01*
X176178571Y-61429286D01*
X176178571Y-61286429D01*
X176107142Y-61143571D01*
X175964285Y-61072143D01*
X175607142Y-61072143D01*
X175464285Y-61000714D01*
X174749999Y-61643571D02*
X174749999Y-60643571D01*
X174749999Y-60929286D02*
X174678571Y-60786429D01*
X174607142Y-60715000D01*
X174464285Y-60643571D01*
X174321428Y-60643571D01*
X173821428Y-61643571D02*
X173821428Y-60143571D01*
X173678571Y-61072143D02*
X173250000Y-61643571D01*
X173250000Y-60643571D02*
X173821428Y-61215000D01*
X170749999Y-61643571D02*
X171464285Y-61643571D01*
X171464285Y-60143571D01*
X170249999Y-61643571D02*
X170249999Y-60643571D01*
X170249999Y-60143571D02*
X170321428Y-60215000D01*
X170249999Y-60286429D01*
X170178571Y-60215000D01*
X170249999Y-60143571D01*
X170249999Y-60286429D01*
X168964285Y-61572143D02*
X169107142Y-61643571D01*
X169392856Y-61643571D01*
X169535713Y-61572143D01*
X169607142Y-61429286D01*
X169607142Y-60857857D01*
X169535713Y-60715000D01*
X169392856Y-60643571D01*
X169107142Y-60643571D01*
X168964285Y-60715000D01*
X168892856Y-60857857D01*
X168892856Y-61000714D01*
X169607142Y-61143571D01*
X168249999Y-61643571D02*
X168249999Y-60143571D01*
X168249999Y-60715000D02*
X168107142Y-60643571D01*
X167821428Y-60643571D01*
X167678571Y-60715000D01*
X167607142Y-60786429D01*
X167535713Y-60929286D01*
X167535713Y-61357857D01*
X167607142Y-61500714D01*
X167678571Y-61572143D01*
X167821428Y-61643571D01*
X168107142Y-61643571D01*
X168249999Y-61572143D01*
X166892856Y-61643571D02*
X166892856Y-60643571D01*
X166892856Y-60929286D02*
X166821428Y-60786429D01*
X166749999Y-60715000D01*
X166607142Y-60643571D01*
X166464285Y-60643571D01*
X165321428Y-61643571D02*
X165321428Y-60857857D01*
X165392857Y-60715000D01*
X165535714Y-60643571D01*
X165821428Y-60643571D01*
X165964285Y-60715000D01*
X165321428Y-61572143D02*
X165464285Y-61643571D01*
X165821428Y-61643571D01*
X165964285Y-61572143D01*
X166035714Y-61429286D01*
X166035714Y-61286429D01*
X165964285Y-61143571D01*
X165821428Y-61072143D01*
X165464285Y-61072143D01*
X165321428Y-61000714D01*
X164607142Y-60643571D02*
X164607142Y-61643571D01*
X164607142Y-60786429D02*
X164535714Y-60715000D01*
X164392856Y-60643571D01*
X164178571Y-60643571D01*
X164035714Y-60715000D01*
X163964285Y-60857857D01*
X163964285Y-61643571D01*
X162607142Y-61643571D02*
X162607142Y-60143571D01*
X162607142Y-61572143D02*
X162749999Y-61643571D01*
X163035713Y-61643571D01*
X163178571Y-61572143D01*
X163249999Y-61500714D01*
X163321428Y-61357857D01*
X163321428Y-60929286D01*
X163249999Y-60786429D01*
X163178571Y-60715000D01*
X163035713Y-60643571D01*
X162749999Y-60643571D01*
X162607142Y-60715000D01*
X160821428Y-60286429D02*
X160749999Y-60215000D01*
X160607142Y-60143571D01*
X160249999Y-60143571D01*
X160107142Y-60215000D01*
X160035713Y-60286429D01*
X159964285Y-60429286D01*
X159964285Y-60572143D01*
X160035713Y-60786429D01*
X160892856Y-61643571D01*
X159964285Y-61643571D01*
X159035714Y-60143571D02*
X158892857Y-60143571D01*
X158750000Y-60215000D01*
X158678571Y-60286429D01*
X158607142Y-60429286D01*
X158535714Y-60715000D01*
X158535714Y-61072143D01*
X158607142Y-61357857D01*
X158678571Y-61500714D01*
X158750000Y-61572143D01*
X158892857Y-61643571D01*
X159035714Y-61643571D01*
X159178571Y-61572143D01*
X159250000Y-61500714D01*
X159321428Y-61357857D01*
X159392857Y-61072143D01*
X159392857Y-60715000D01*
X159321428Y-60429286D01*
X159250000Y-60286429D01*
X159178571Y-60215000D01*
X159035714Y-60143571D01*
X157107143Y-61643571D02*
X157964286Y-61643571D01*
X157535714Y-61643571D02*
X157535714Y-60143571D01*
X157678571Y-60357857D01*
X157821429Y-60500714D01*
X157964286Y-60572143D01*
X156250000Y-60786429D02*
X156392858Y-60715000D01*
X156464286Y-60643571D01*
X156535715Y-60500714D01*
X156535715Y-60429286D01*
X156464286Y-60286429D01*
X156392858Y-60215000D01*
X156250000Y-60143571D01*
X155964286Y-60143571D01*
X155821429Y-60215000D01*
X155750000Y-60286429D01*
X155678572Y-60429286D01*
X155678572Y-60500714D01*
X155750000Y-60643571D01*
X155821429Y-60715000D01*
X155964286Y-60786429D01*
X156250000Y-60786429D01*
X156392858Y-60857857D01*
X156464286Y-60929286D01*
X156535715Y-61072143D01*
X156535715Y-61357857D01*
X156464286Y-61500714D01*
X156392858Y-61572143D01*
X156250000Y-61643571D01*
X155964286Y-61643571D01*
X155821429Y-61572143D01*
X155750000Y-61500714D01*
X155678572Y-61357857D01*
X155678572Y-61072143D01*
X155750000Y-60929286D01*
X155821429Y-60857857D01*
X155964286Y-60786429D01*
X153892858Y-61072143D02*
X152750001Y-61072143D01*
X150678572Y-61643571D02*
X150821430Y-61572143D01*
X150892858Y-61429286D01*
X150892858Y-60143571D01*
X150107144Y-61643571D02*
X150107144Y-60643571D01*
X150107144Y-60143571D02*
X150178573Y-60215000D01*
X150107144Y-60286429D01*
X150035716Y-60215000D01*
X150107144Y-60143571D01*
X150107144Y-60286429D01*
X148821430Y-61572143D02*
X148964287Y-61643571D01*
X149250001Y-61643571D01*
X149392858Y-61572143D01*
X149464287Y-61429286D01*
X149464287Y-60857857D01*
X149392858Y-60715000D01*
X149250001Y-60643571D01*
X148964287Y-60643571D01*
X148821430Y-60715000D01*
X148750001Y-60857857D01*
X148750001Y-61000714D01*
X149464287Y-61143571D01*
X148107144Y-61643571D02*
X148107144Y-60143571D01*
X148107144Y-60715000D02*
X147964287Y-60643571D01*
X147678573Y-60643571D01*
X147535716Y-60715000D01*
X147464287Y-60786429D01*
X147392858Y-60929286D01*
X147392858Y-61357857D01*
X147464287Y-61500714D01*
X147535716Y-61572143D01*
X147678573Y-61643571D01*
X147964287Y-61643571D01*
X148107144Y-61572143D01*
X146750001Y-61643571D02*
X146750001Y-60643571D01*
X146750001Y-60929286D02*
X146678573Y-60786429D01*
X146607144Y-60715000D01*
X146464287Y-60643571D01*
X146321430Y-60643571D01*
X145178573Y-61643571D02*
X145178573Y-60857857D01*
X145250002Y-60715000D01*
X145392859Y-60643571D01*
X145678573Y-60643571D01*
X145821430Y-60715000D01*
X145178573Y-61572143D02*
X145321430Y-61643571D01*
X145678573Y-61643571D01*
X145821430Y-61572143D01*
X145892859Y-61429286D01*
X145892859Y-61286429D01*
X145821430Y-61143571D01*
X145678573Y-61072143D01*
X145321430Y-61072143D01*
X145178573Y-61000714D01*
X144464287Y-60643571D02*
X144464287Y-61643571D01*
X144464287Y-60786429D02*
X144392859Y-60715000D01*
X144250001Y-60643571D01*
X144035716Y-60643571D01*
X143892859Y-60715000D01*
X143821430Y-60857857D01*
X143821430Y-61643571D01*
X142464287Y-61643571D02*
X142464287Y-60143571D01*
X142464287Y-61572143D02*
X142607144Y-61643571D01*
X142892858Y-61643571D01*
X143035716Y-61572143D01*
X143107144Y-61500714D01*
X143178573Y-61357857D01*
X143178573Y-60929286D01*
X143107144Y-60786429D01*
X143035716Y-60715000D01*
X142892858Y-60643571D01*
X142607144Y-60643571D01*
X142464287Y-60715000D01*
X141750001Y-61500714D02*
X141678573Y-61572143D01*
X141750001Y-61643571D01*
X141821430Y-61572143D01*
X141750001Y-61500714D01*
X141750001Y-61643571D01*
X141035715Y-61643571D02*
X141035715Y-60643571D01*
X141035715Y-60143571D02*
X141107144Y-60215000D01*
X141035715Y-60286429D01*
X140964287Y-60215000D01*
X141035715Y-60143571D01*
X141035715Y-60286429D01*
X140107143Y-61643571D02*
X140250001Y-61572143D01*
X140321429Y-61500714D01*
X140392858Y-61357857D01*
X140392858Y-60929286D01*
X140321429Y-60786429D01*
X140250001Y-60715000D01*
X140107143Y-60643571D01*
X139892858Y-60643571D01*
X139750001Y-60715000D01*
X139678572Y-60786429D01*
X139607143Y-60929286D01*
X139607143Y-61357857D01*
X139678572Y-61500714D01*
X139750001Y-61572143D01*
X139892858Y-61643571D01*
X140107143Y-61643571D01*
D12*
X194310000Y-25400000D02*
X50800000Y-25400000D01*
X44450000Y-25400000D02*
X194310000Y-25400000D01*
X44450000Y-26670000D02*
X44450000Y-25400000D01*
X44450000Y-27940000D02*
X44450000Y-26670000D01*
X44450000Y-97790000D02*
X44450000Y-27940000D01*
X194310000Y-97790000D02*
X44450000Y-97790000D01*
X194310000Y-25400000D02*
X194310000Y-97790000D01*
X45720000Y-30480000D02*
X46990000Y-30480000D01*
D13*
X58420000Y-67310000D03*
D14*
X91440000Y-59690000D03*
X60960000Y-67310000D03*
X88900000Y-59690000D03*
X63500000Y-67310000D03*
X86360000Y-59690000D03*
X66040000Y-67310000D03*
X83820000Y-59690000D03*
X68580000Y-67310000D03*
X81280000Y-59690000D03*
X71120000Y-67310000D03*
X78740000Y-59690000D03*
X73660000Y-67310000D03*
X76200000Y-59690000D03*
X76200000Y-67310000D03*
X73660000Y-59690000D03*
X78740000Y-67310000D03*
X71120000Y-59690000D03*
X81280000Y-67310000D03*
X68580000Y-59690000D03*
X83820000Y-67310000D03*
X66040000Y-59690000D03*
X86360000Y-67310000D03*
X63500000Y-59690000D03*
X88900000Y-67310000D03*
X60960000Y-59690000D03*
X91440000Y-67310000D03*
X58420000Y-59690000D03*
D13*
X76200000Y-73660000D03*
D14*
X55880000Y-81280000D03*
X73660000Y-73660000D03*
X58420000Y-81280000D03*
X71120000Y-73660000D03*
X60960000Y-81280000D03*
X68580000Y-73660000D03*
X63500000Y-81280000D03*
X66040000Y-73660000D03*
X66040000Y-81280000D03*
X63500000Y-73660000D03*
X68580000Y-81280000D03*
X60960000Y-73660000D03*
X71120000Y-81280000D03*
X58420000Y-73660000D03*
X73660000Y-81280000D03*
X55880000Y-73660000D03*
X76200000Y-81280000D03*
D13*
X58420000Y-53340000D03*
D14*
X78740000Y-45720000D03*
X60960000Y-53340000D03*
X76200000Y-45720000D03*
X63500000Y-53340000D03*
X73660000Y-45720000D03*
X66040000Y-53340000D03*
X71120000Y-45720000D03*
X68580000Y-53340000D03*
X68580000Y-45720000D03*
X71120000Y-53340000D03*
X66040000Y-45720000D03*
X73660000Y-53340000D03*
X63500000Y-45720000D03*
X76200000Y-53340000D03*
X60960000Y-45720000D03*
X78740000Y-53340000D03*
X58420000Y-45720000D03*
D13*
X109220000Y-53340000D03*
D14*
X116840000Y-71120000D03*
X109220000Y-55880000D03*
X116840000Y-68580000D03*
X109220000Y-58420000D03*
X116840000Y-66040000D03*
X109220000Y-60960000D03*
X116840000Y-63500000D03*
X109220000Y-63500000D03*
X116840000Y-60960000D03*
X109220000Y-66040000D03*
X116840000Y-58420000D03*
X109220000Y-68580000D03*
X116840000Y-55880000D03*
X109220000Y-71120000D03*
X116840000Y-53340000D03*
D15*
X102870000Y-36830000D03*
X104140000Y-38100000D03*
D16*
X101600000Y-38100000D03*
D17*
X76200000Y-91440000D03*
D18*
X73660000Y-91440000D03*
X71120000Y-91440000D03*
X68580000Y-91440000D03*
X66040000Y-91440000D03*
X63500000Y-91440000D03*
X60960000Y-91440000D03*
X58420000Y-91440000D03*
D17*
X58420000Y-31750000D03*
D18*
X60960000Y-31750000D03*
X63500000Y-31750000D03*
X66040000Y-31750000D03*
X68580000Y-31750000D03*
X71120000Y-31750000D03*
X73660000Y-31750000D03*
X76200000Y-31750000D03*
D17*
X121920000Y-78740000D03*
X86360000Y-73660000D03*
D18*
X88900000Y-73660000D03*
D17*
X111760000Y-78740000D03*
D18*
X109220000Y-78740000D03*
X106680000Y-78740000D03*
X104140000Y-78740000D03*
X101600000Y-78740000D03*
X99060000Y-78740000D03*
D17*
X109220000Y-33020000D03*
D18*
X111760000Y-33020000D03*
X114300000Y-33020000D03*
X116840000Y-33020000D03*
X119380000Y-33020000D03*
X121920000Y-33020000D03*
D17*
X109220000Y-36830000D03*
D18*
X111760000Y-36830000D03*
X114300000Y-36830000D03*
X116840000Y-36830000D03*
X119380000Y-36830000D03*
X121920000Y-36830000D03*
D17*
X109220000Y-27940000D03*
D18*
X111760000Y-27940000D03*
X114300000Y-27940000D03*
X116840000Y-27940000D03*
X119380000Y-27940000D03*
X121920000Y-27940000D03*
D17*
X123190000Y-60960000D03*
D18*
X123190000Y-63500000D03*
X123190000Y-66040000D03*
X123190000Y-68580000D03*
D17*
X101600000Y-53340000D03*
D18*
X101600000Y-55880000D03*
X101600000Y-58420000D03*
X101600000Y-60960000D03*
X101600000Y-63500000D03*
X101600000Y-66040000D03*
X101600000Y-68580000D03*
X101600000Y-71120000D03*
D17*
X85090000Y-33020000D03*
D18*
X85090000Y-35560000D03*
D17*
X92710000Y-30480000D03*
D18*
X92710000Y-33020000D03*
X92710000Y-35560000D03*
X92710000Y-38100000D03*
D17*
X111760000Y-86360000D03*
D18*
X111760000Y-88900000D03*
X111760000Y-91440000D03*
X111760000Y-93980000D03*
D17*
X92710000Y-83820000D03*
D18*
X92710000Y-86360000D03*
D19*
X121920000Y-44450000D03*
D14*
X106680000Y-44450000D03*
D19*
X92710000Y-93980000D03*
D14*
X107950000Y-93980000D03*
D19*
X92710000Y-91440000D03*
D14*
X107950000Y-91440000D03*
D17*
X121920000Y-86360000D03*
D20*
X58420000Y-73660000D02*
X58420000Y-67310000D01*
X60960000Y-73660000D02*
X60960000Y-67310000D01*
X63500000Y-73660000D02*
X63500000Y-67310000D01*
X66040000Y-73660000D02*
X66040000Y-67310000D01*
D21*
X111760000Y-33020000D02*
X114300000Y-33020000D01*
X106680000Y-44450000D02*
X106680000Y-40640000D01*
X106680000Y-40640000D02*
X104140000Y-38100000D01*
X116840000Y-55880000D02*
X116840000Y-53340000D01*
X116840000Y-53340000D02*
X107950000Y-44450000D01*
X107950000Y-44450000D02*
X106680000Y-44450000D01*
X106680000Y-44450000D02*
X99060000Y-44450000D01*
X99060000Y-44450000D02*
X92710000Y-38100000D01*
X121920000Y-78740000D02*
X116840000Y-78740000D01*
X113030000Y-59690000D02*
X116840000Y-55880000D01*
X113030000Y-74930000D02*
X113030000Y-59690000D01*
X116840000Y-78740000D02*
X113030000Y-74930000D01*
X104140000Y-38100000D02*
X109220000Y-33020000D01*
X109220000Y-33020000D02*
X114300000Y-33020000D01*
X114300000Y-33020000D02*
X116840000Y-33020000D01*
X116840000Y-33020000D02*
X119380000Y-33020000D01*
X119380000Y-33020000D02*
X121920000Y-33020000D01*
X78740000Y-67310000D02*
X78740000Y-64770000D01*
X52070000Y-81280000D02*
X55880000Y-81280000D01*
X52070000Y-64770000D02*
X52070000Y-81280000D01*
X78740000Y-64770000D02*
X52070000Y-64770000D01*
X83820000Y-59690000D02*
X83820000Y-62230000D01*
X83820000Y-62230000D02*
X78740000Y-67310000D01*
X78740000Y-45720000D02*
X85090000Y-45720000D01*
X85090000Y-45720000D02*
X92710000Y-38100000D01*
X83820000Y-59690000D02*
X83820000Y-50800000D01*
X83820000Y-50800000D02*
X78740000Y-45720000D01*
D20*
X68580000Y-73660000D02*
X68580000Y-67310000D01*
X71120000Y-73660000D02*
X71120000Y-67310000D01*
X73660000Y-73660000D02*
X73660000Y-67310000D01*
X76200000Y-59690000D02*
X76200000Y-53340000D01*
X76200000Y-73660000D02*
X76200000Y-67310000D01*
X73660000Y-59690000D02*
X73660000Y-53340000D01*
X71120000Y-59690000D02*
X71120000Y-53340000D01*
X68580000Y-59690000D02*
X68580000Y-53340000D01*
X66040000Y-59690000D02*
X66040000Y-53340000D01*
X86360000Y-73660000D02*
X86360000Y-67310000D01*
X63500000Y-59690000D02*
X63500000Y-53340000D01*
X88900000Y-73660000D02*
X88900000Y-67310000D01*
X60960000Y-59690000D02*
X60960000Y-53340000D01*
X58420000Y-59690000D02*
X58420000Y-53340000D01*
X58420000Y-91440000D02*
X58420000Y-81280000D01*
X60960000Y-91440000D02*
X60960000Y-81280000D01*
X63500000Y-91440000D02*
X63500000Y-81280000D01*
X66040000Y-91440000D02*
X66040000Y-81280000D01*
X68580000Y-91440000D02*
X68580000Y-81280000D01*
X71120000Y-91440000D02*
X71120000Y-81280000D01*
X73660000Y-91440000D02*
X73660000Y-81280000D01*
X76200000Y-91440000D02*
X76200000Y-81280000D01*
X76200000Y-45720000D02*
X76200000Y-31750000D01*
X73660000Y-45720000D02*
X73660000Y-31750000D01*
X71120000Y-45720000D02*
X71120000Y-31750000D01*
X68580000Y-45720000D02*
X68580000Y-31750000D01*
X66040000Y-45720000D02*
X66040000Y-31750000D01*
X63500000Y-45720000D02*
X63500000Y-31750000D01*
X60960000Y-45720000D02*
X60960000Y-31750000D01*
X58420000Y-45720000D02*
X58420000Y-31750000D01*
X109220000Y-53340000D02*
X101600000Y-53340000D01*
X109220000Y-55880000D02*
X101600000Y-55880000D01*
X123190000Y-68580000D02*
X116840000Y-68580000D01*
X109220000Y-58420000D02*
X101600000Y-58420000D01*
X123190000Y-66040000D02*
X116840000Y-66040000D01*
X109220000Y-60960000D02*
X101600000Y-60960000D01*
X123190000Y-63500000D02*
X116840000Y-63500000D01*
X109220000Y-63500000D02*
X101600000Y-63500000D01*
X123190000Y-60960000D02*
X116840000Y-60960000D01*
X109220000Y-66040000D02*
X101600000Y-66040000D01*
X109220000Y-68580000D02*
X101600000Y-68580000D01*
X109220000Y-71120000D02*
X101600000Y-71120000D01*
D21*
X121920000Y-36830000D02*
X125730000Y-36830000D01*
X102870000Y-30480000D02*
X102870000Y-36830000D01*
X125730000Y-30480000D02*
X102870000Y-30480000D01*
X125730000Y-36830000D02*
X125730000Y-30480000D01*
X109220000Y-36830000D02*
X111760000Y-36830000D01*
X111760000Y-36830000D02*
X114300000Y-36830000D01*
X114300000Y-36830000D02*
X116840000Y-36830000D01*
X116840000Y-36830000D02*
X119380000Y-36830000D01*
X119380000Y-36830000D02*
X121920000Y-36830000D01*
X121920000Y-36830000D02*
X121920000Y-44450000D01*
D20*
X99060000Y-78740000D02*
X101600000Y-78740000D01*
X101600000Y-78740000D02*
X104140000Y-78740000D01*
X104140000Y-78740000D02*
X106680000Y-78740000D01*
X106680000Y-78740000D02*
X109220000Y-78740000D01*
X109220000Y-78740000D02*
X111760000Y-78740000D01*
X111760000Y-78740000D02*
X111760000Y-86360000D01*
X85090000Y-33020000D02*
X92710000Y-33020000D01*
X85090000Y-35560000D02*
X92710000Y-35560000D01*
X92710000Y-83820000D02*
X102870000Y-83820000D01*
X107950000Y-88900000D02*
X111760000Y-88900000D01*
X102870000Y-83820000D02*
X107950000Y-88900000D01*
D21*
X107950000Y-91440000D02*
X111760000Y-91440000D01*
X92710000Y-86360000D02*
X92710000Y-91440000D01*
X92710000Y-91440000D02*
X92710000Y-93980000D01*
D22*
G36*
X107735000Y-26963691D02*
X107735000Y-27654250D01*
X107893750Y-27813000D01*
X109093000Y-27813000D01*
X109093000Y-27793000D01*
X109347000Y-27793000D01*
X109347000Y-27813000D01*
X111633000Y-27813000D01*
X111633000Y-27793000D01*
X111887000Y-27793000D01*
X111887000Y-27813000D01*
X114173000Y-27813000D01*
X114173000Y-27793000D01*
X114427000Y-27793000D01*
X114427000Y-27813000D01*
X116713000Y-27813000D01*
X116713000Y-27793000D01*
X116967000Y-27793000D01*
X116967000Y-27813000D01*
X119253000Y-27813000D01*
X119253000Y-27793000D01*
X119507000Y-27793000D01*
X119507000Y-27813000D01*
X121793000Y-27813000D01*
X121793000Y-27793000D01*
X122047000Y-27793000D01*
X122047000Y-27813000D01*
X123240819Y-27813000D01*
X123361486Y-27583108D01*
X123115183Y-27058642D01*
X122828085Y-26797000D01*
X192913000Y-26797000D01*
X192913000Y-96393000D01*
X45847000Y-96393000D01*
X45847000Y-93152619D01*
X47294613Y-93152619D01*
X47634155Y-93974372D01*
X48262321Y-94603636D01*
X49083481Y-94944611D01*
X49972619Y-94945387D01*
X50794372Y-94605845D01*
X51423636Y-93977679D01*
X51764611Y-93156519D01*
X51765387Y-92267381D01*
X51425845Y-91445628D01*
X50797679Y-90816364D01*
X49976519Y-90475389D01*
X49087381Y-90474613D01*
X48265628Y-90814155D01*
X47636364Y-91442321D01*
X47295389Y-92263481D01*
X47294613Y-93152619D01*
X45847000Y-93152619D01*
X45847000Y-64770000D01*
X51060000Y-64770000D01*
X51060000Y-81280000D01*
X51136882Y-81666510D01*
X51355822Y-81994178D01*
X51683490Y-82213118D01*
X52070000Y-82290000D01*
X54843378Y-82290000D01*
X54865302Y-82322811D01*
X55330849Y-82633880D01*
X55880000Y-82743113D01*
X56429151Y-82633880D01*
X56894698Y-82322811D01*
X57150000Y-81940725D01*
X57285000Y-82142767D01*
X57285000Y-90487984D01*
X57048039Y-90842622D01*
X56935000Y-91410907D01*
X56935000Y-91469093D01*
X57048039Y-92037378D01*
X57369946Y-92519147D01*
X57851715Y-92841054D01*
X58420000Y-92954093D01*
X58988285Y-92841054D01*
X59470054Y-92519147D01*
X59690000Y-92189974D01*
X59909946Y-92519147D01*
X60391715Y-92841054D01*
X60960000Y-92954093D01*
X61528285Y-92841054D01*
X62010054Y-92519147D01*
X62230000Y-92189974D01*
X62449946Y-92519147D01*
X62931715Y-92841054D01*
X63500000Y-92954093D01*
X64068285Y-92841054D01*
X64550054Y-92519147D01*
X64770000Y-92189974D01*
X64989946Y-92519147D01*
X65471715Y-92841054D01*
X66040000Y-92954093D01*
X66608285Y-92841054D01*
X67090054Y-92519147D01*
X67310000Y-92189974D01*
X67529946Y-92519147D01*
X68011715Y-92841054D01*
X68580000Y-92954093D01*
X69148285Y-92841054D01*
X69630054Y-92519147D01*
X69850000Y-92189974D01*
X70069946Y-92519147D01*
X70551715Y-92841054D01*
X71120000Y-92954093D01*
X71688285Y-92841054D01*
X72170054Y-92519147D01*
X72390000Y-92189974D01*
X72609946Y-92519147D01*
X73091715Y-92841054D01*
X73660000Y-92954093D01*
X74228285Y-92841054D01*
X74710054Y-92519147D01*
X74737850Y-92477548D01*
X74746838Y-92525317D01*
X74885910Y-92741441D01*
X75098110Y-92886431D01*
X75350000Y-92937440D01*
X77050000Y-92937440D01*
X77285317Y-92893162D01*
X77501441Y-92754090D01*
X77646431Y-92541890D01*
X77697440Y-92290000D01*
X77697440Y-90590000D01*
X77653162Y-90354683D01*
X77514090Y-90138559D01*
X77335000Y-90016192D01*
X77335000Y-86360000D01*
X91195907Y-86360000D01*
X91308946Y-86928285D01*
X91630853Y-87410054D01*
X91700000Y-87456256D01*
X91700000Y-90420612D01*
X91494176Y-90626077D01*
X91275250Y-91153309D01*
X91274752Y-91724187D01*
X91492757Y-92251800D01*
X91700000Y-92459405D01*
X91700000Y-92960612D01*
X91494176Y-93166077D01*
X91275250Y-93693309D01*
X91274752Y-94264187D01*
X91492757Y-94791800D01*
X91896077Y-95195824D01*
X92423309Y-95414750D01*
X92994187Y-95415248D01*
X93521800Y-95197243D01*
X93925824Y-94793923D01*
X94118860Y-94329039D01*
X106558096Y-94329039D01*
X106718959Y-94717423D01*
X107094866Y-95132389D01*
X107600959Y-95371914D01*
X107823000Y-95250629D01*
X107823000Y-94107000D01*
X108077000Y-94107000D01*
X108077000Y-95250629D01*
X108299041Y-95371914D01*
X108805134Y-95132389D01*
X109181041Y-94717423D01*
X109338652Y-94336890D01*
X110318524Y-94336890D01*
X110488355Y-94746924D01*
X110878642Y-95175183D01*
X111403108Y-95421486D01*
X111633000Y-95300819D01*
X111633000Y-94107000D01*
X111887000Y-94107000D01*
X111887000Y-95300819D01*
X112116892Y-95421486D01*
X112641358Y-95175183D01*
X113031645Y-94746924D01*
X113165968Y-94422619D01*
X188264613Y-94422619D01*
X188604155Y-95244372D01*
X189232321Y-95873636D01*
X190053481Y-96214611D01*
X190942619Y-96215387D01*
X191764372Y-95875845D01*
X192393636Y-95247679D01*
X192734611Y-94426519D01*
X192735387Y-93537381D01*
X192395845Y-92715628D01*
X191767679Y-92086364D01*
X190946519Y-91745389D01*
X190057381Y-91744613D01*
X189235628Y-92084155D01*
X188606364Y-92712321D01*
X188265389Y-93533481D01*
X188264613Y-94422619D01*
X113165968Y-94422619D01*
X113201476Y-94336890D01*
X113080155Y-94107000D01*
X111887000Y-94107000D01*
X111633000Y-94107000D01*
X110439845Y-94107000D01*
X110318524Y-94336890D01*
X109338652Y-94336890D01*
X109341904Y-94329039D01*
X109219915Y-94107000D01*
X108077000Y-94107000D01*
X107823000Y-94107000D01*
X106680085Y-94107000D01*
X106558096Y-94329039D01*
X94118860Y-94329039D01*
X94144750Y-94266691D01*
X94145248Y-93695813D01*
X93927243Y-93168200D01*
X93720000Y-92960595D01*
X93720000Y-92459388D01*
X93925824Y-92253923D01*
X94144750Y-91726691D01*
X94145248Y-91155813D01*
X93927243Y-90628200D01*
X93720000Y-90420595D01*
X93720000Y-87456256D01*
X93789147Y-87410054D01*
X94111054Y-86928285D01*
X94224093Y-86360000D01*
X94111054Y-85791715D01*
X93789147Y-85309946D01*
X93747548Y-85282150D01*
X93795317Y-85273162D01*
X94011441Y-85134090D01*
X94133808Y-84955000D01*
X102399868Y-84955000D01*
X107147434Y-89702566D01*
X107515654Y-89948603D01*
X107860534Y-90017204D01*
X107372736Y-90114233D01*
X106907189Y-90425302D01*
X106596120Y-90890849D01*
X106486887Y-91440000D01*
X106596120Y-91989151D01*
X106907189Y-92454698D01*
X107311703Y-92724986D01*
X107094866Y-92827611D01*
X106718959Y-93242577D01*
X106558096Y-93630961D01*
X106680085Y-93853000D01*
X107823000Y-93853000D01*
X107823000Y-93833000D01*
X108077000Y-93833000D01*
X108077000Y-93853000D01*
X109219915Y-93853000D01*
X109341904Y-93630961D01*
X109181041Y-93242577D01*
X108805134Y-92827611D01*
X108588297Y-92724986D01*
X108992811Y-92454698D01*
X108995950Y-92450000D01*
X110654090Y-92450000D01*
X110680853Y-92490054D01*
X111021553Y-92717702D01*
X110878642Y-92784817D01*
X110488355Y-93213076D01*
X110318524Y-93623110D01*
X110439845Y-93853000D01*
X111633000Y-93853000D01*
X111633000Y-93833000D01*
X111887000Y-93833000D01*
X111887000Y-93853000D01*
X113080155Y-93853000D01*
X113201476Y-93623110D01*
X113031645Y-93213076D01*
X112641358Y-92784817D01*
X112498447Y-92717702D01*
X112839147Y-92490054D01*
X113161054Y-92008285D01*
X113274093Y-91440000D01*
X113161054Y-90871715D01*
X112987932Y-90612619D01*
X133654613Y-90612619D01*
X133994155Y-91434372D01*
X134622321Y-92063636D01*
X135443481Y-92404611D01*
X136332619Y-92405387D01*
X137154372Y-92065845D01*
X137783636Y-91437679D01*
X138124611Y-90616519D01*
X138124614Y-90612619D01*
X183184613Y-90612619D01*
X183524155Y-91434372D01*
X184152321Y-92063636D01*
X184973481Y-92404611D01*
X185862619Y-92405387D01*
X186684372Y-92065845D01*
X187313636Y-91437679D01*
X187654611Y-90616519D01*
X187655387Y-89727381D01*
X187315845Y-88905628D01*
X186687679Y-88276364D01*
X185866519Y-87935389D01*
X184977381Y-87934613D01*
X184155628Y-88274155D01*
X183526364Y-88902321D01*
X183185389Y-89723481D01*
X183184613Y-90612619D01*
X138124614Y-90612619D01*
X138125387Y-89727381D01*
X137785845Y-88905628D01*
X137157679Y-88276364D01*
X136336519Y-87935389D01*
X135447381Y-87934613D01*
X134625628Y-88274155D01*
X133996364Y-88902321D01*
X133655389Y-89723481D01*
X133654613Y-90612619D01*
X112987932Y-90612619D01*
X112839147Y-90389946D01*
X112509974Y-90170000D01*
X112839147Y-89950054D01*
X113161054Y-89468285D01*
X113274093Y-88900000D01*
X113161054Y-88331715D01*
X112839147Y-87849946D01*
X112797548Y-87822150D01*
X112845317Y-87813162D01*
X113061441Y-87674090D01*
X113206431Y-87461890D01*
X113257440Y-87210000D01*
X113257440Y-86645750D01*
X120435000Y-86645750D01*
X120435000Y-87336310D01*
X120531673Y-87569699D01*
X120710302Y-87748327D01*
X120943691Y-87845000D01*
X121634250Y-87845000D01*
X121793000Y-87686250D01*
X121793000Y-86487000D01*
X122047000Y-86487000D01*
X122047000Y-87686250D01*
X122205750Y-87845000D01*
X122896309Y-87845000D01*
X123129698Y-87748327D01*
X123308327Y-87569699D01*
X123405000Y-87336310D01*
X123405000Y-86645750D01*
X123246250Y-86487000D01*
X122047000Y-86487000D01*
X121793000Y-86487000D01*
X120593750Y-86487000D01*
X120435000Y-86645750D01*
X113257440Y-86645750D01*
X113257440Y-85510000D01*
X113233674Y-85383690D01*
X120435000Y-85383690D01*
X120435000Y-86074250D01*
X120593750Y-86233000D01*
X121793000Y-86233000D01*
X121793000Y-85033750D01*
X122047000Y-85033750D01*
X122047000Y-86233000D01*
X123246250Y-86233000D01*
X123405000Y-86074250D01*
X123405000Y-85383690D01*
X123308327Y-85150301D01*
X123129698Y-84971673D01*
X122896309Y-84875000D01*
X122205750Y-84875000D01*
X122047000Y-85033750D01*
X121793000Y-85033750D01*
X121634250Y-84875000D01*
X120943691Y-84875000D01*
X120710302Y-84971673D01*
X120531673Y-85150301D01*
X120435000Y-85383690D01*
X113233674Y-85383690D01*
X113213162Y-85274683D01*
X113074090Y-85058559D01*
X112895000Y-84936192D01*
X112895000Y-80161192D01*
X113061441Y-80054090D01*
X113206431Y-79841890D01*
X113257440Y-79590000D01*
X113257440Y-77890000D01*
X113213162Y-77654683D01*
X113074090Y-77438559D01*
X112861890Y-77293569D01*
X112610000Y-77242560D01*
X110910000Y-77242560D01*
X110674683Y-77286838D01*
X110458559Y-77425910D01*
X110336192Y-77605000D01*
X110186464Y-77605000D01*
X109788285Y-77338946D01*
X109220000Y-77225907D01*
X108651715Y-77338946D01*
X108253536Y-77605000D01*
X107646464Y-77605000D01*
X107248285Y-77338946D01*
X106680000Y-77225907D01*
X106111715Y-77338946D01*
X105713536Y-77605000D01*
X105106464Y-77605000D01*
X104708285Y-77338946D01*
X104140000Y-77225907D01*
X103571715Y-77338946D01*
X103173536Y-77605000D01*
X102566464Y-77605000D01*
X102168285Y-77338946D01*
X101600000Y-77225907D01*
X101031715Y-77338946D01*
X100633536Y-77605000D01*
X100026464Y-77605000D01*
X99628285Y-77338946D01*
X99060000Y-77225907D01*
X98491715Y-77338946D01*
X98009946Y-77660853D01*
X97688039Y-78142622D01*
X97575000Y-78710907D01*
X97575000Y-78769093D01*
X97688039Y-79337378D01*
X98009946Y-79819147D01*
X98491715Y-80141054D01*
X99060000Y-80254093D01*
X99628285Y-80141054D01*
X100026464Y-79875000D01*
X100633536Y-79875000D01*
X101031715Y-80141054D01*
X101600000Y-80254093D01*
X102168285Y-80141054D01*
X102566464Y-79875000D01*
X103173536Y-79875000D01*
X103571715Y-80141054D01*
X104140000Y-80254093D01*
X104708285Y-80141054D01*
X105106464Y-79875000D01*
X105713536Y-79875000D01*
X106111715Y-80141054D01*
X106680000Y-80254093D01*
X107248285Y-80141054D01*
X107646464Y-79875000D01*
X108253536Y-79875000D01*
X108651715Y-80141054D01*
X109220000Y-80254093D01*
X109788285Y-80141054D01*
X110186464Y-79875000D01*
X110338808Y-79875000D01*
X110445910Y-80041441D01*
X110625000Y-80163808D01*
X110625000Y-84938808D01*
X110458559Y-85045910D01*
X110313569Y-85258110D01*
X110262560Y-85510000D01*
X110262560Y-87210000D01*
X110306838Y-87445317D01*
X110445910Y-87661441D01*
X110597474Y-87765000D01*
X108420132Y-87765000D01*
X103672566Y-83017434D01*
X103601576Y-82970000D01*
X103304346Y-82771397D01*
X102870000Y-82685000D01*
X94131192Y-82685000D01*
X94024090Y-82518559D01*
X93811890Y-82373569D01*
X93560000Y-82322560D01*
X91860000Y-82322560D01*
X91624683Y-82366838D01*
X91408559Y-82505910D01*
X91263569Y-82718110D01*
X91212560Y-82970000D01*
X91212560Y-84670000D01*
X91256838Y-84905317D01*
X91395910Y-85121441D01*
X91608110Y-85266431D01*
X91675541Y-85280086D01*
X91630853Y-85309946D01*
X91308946Y-85791715D01*
X91195907Y-86360000D01*
X77335000Y-86360000D01*
X77335000Y-82142767D01*
X77525767Y-81857264D01*
X77635000Y-81308113D01*
X77635000Y-81251887D01*
X77525767Y-80702736D01*
X77214698Y-80237189D01*
X76749151Y-79926120D01*
X76200000Y-79816887D01*
X75650849Y-79926120D01*
X75185302Y-80237189D01*
X74930000Y-80619275D01*
X74674698Y-80237189D01*
X74209151Y-79926120D01*
X73660000Y-79816887D01*
X73110849Y-79926120D01*
X72645302Y-80237189D01*
X72390000Y-80619275D01*
X72134698Y-80237189D01*
X71669151Y-79926120D01*
X71120000Y-79816887D01*
X70570849Y-79926120D01*
X70105302Y-80237189D01*
X69850000Y-80619275D01*
X69594698Y-80237189D01*
X69129151Y-79926120D01*
X68580000Y-79816887D01*
X68030849Y-79926120D01*
X67565302Y-80237189D01*
X67310000Y-80619275D01*
X67054698Y-80237189D01*
X66589151Y-79926120D01*
X66040000Y-79816887D01*
X65490849Y-79926120D01*
X65025302Y-80237189D01*
X64770000Y-80619275D01*
X64514698Y-80237189D01*
X64049151Y-79926120D01*
X63500000Y-79816887D01*
X62950849Y-79926120D01*
X62485302Y-80237189D01*
X62230000Y-80619275D01*
X61974698Y-80237189D01*
X61509151Y-79926120D01*
X60960000Y-79816887D01*
X60410849Y-79926120D01*
X59945302Y-80237189D01*
X59690000Y-80619275D01*
X59434698Y-80237189D01*
X58969151Y-79926120D01*
X58420000Y-79816887D01*
X57870849Y-79926120D01*
X57405302Y-80237189D01*
X57150000Y-80619275D01*
X56894698Y-80237189D01*
X56429151Y-79926120D01*
X55880000Y-79816887D01*
X55330849Y-79926120D01*
X54865302Y-80237189D01*
X54843378Y-80270000D01*
X53080000Y-80270000D01*
X53080000Y-74009041D01*
X54488086Y-74009041D01*
X54727611Y-74515134D01*
X55142577Y-74891041D01*
X55530961Y-75051904D01*
X55753000Y-74929915D01*
X55753000Y-73787000D01*
X54609371Y-73787000D01*
X54488086Y-74009041D01*
X53080000Y-74009041D01*
X53080000Y-73310959D01*
X54488086Y-73310959D01*
X54609371Y-73533000D01*
X55753000Y-73533000D01*
X55753000Y-72390085D01*
X55530961Y-72268096D01*
X55142577Y-72428959D01*
X54727611Y-72804866D01*
X54488086Y-73310959D01*
X53080000Y-73310959D01*
X53080000Y-65780000D01*
X77730000Y-65780000D01*
X77730000Y-66264050D01*
X77725302Y-66267189D01*
X77470000Y-66649275D01*
X77214698Y-66267189D01*
X76749151Y-65956120D01*
X76200000Y-65846887D01*
X75650849Y-65956120D01*
X75185302Y-66267189D01*
X74930000Y-66649275D01*
X74674698Y-66267189D01*
X74209151Y-65956120D01*
X73660000Y-65846887D01*
X73110849Y-65956120D01*
X72645302Y-66267189D01*
X72390000Y-66649275D01*
X72134698Y-66267189D01*
X71669151Y-65956120D01*
X71120000Y-65846887D01*
X70570849Y-65956120D01*
X70105302Y-66267189D01*
X69850000Y-66649275D01*
X69594698Y-66267189D01*
X69129151Y-65956120D01*
X68580000Y-65846887D01*
X68030849Y-65956120D01*
X67565302Y-66267189D01*
X67310000Y-66649275D01*
X67054698Y-66267189D01*
X66589151Y-65956120D01*
X66040000Y-65846887D01*
X65490849Y-65956120D01*
X65025302Y-66267189D01*
X64770000Y-66649275D01*
X64514698Y-66267189D01*
X64049151Y-65956120D01*
X63500000Y-65846887D01*
X62950849Y-65956120D01*
X62485302Y-66267189D01*
X62230000Y-66649275D01*
X61974698Y-66267189D01*
X61509151Y-65956120D01*
X60960000Y-65846887D01*
X60410849Y-65956120D01*
X59945302Y-66267189D01*
X59848899Y-66411465D01*
X59823162Y-66274683D01*
X59684090Y-66058559D01*
X59471890Y-65913569D01*
X59220000Y-65862560D01*
X57620000Y-65862560D01*
X57384683Y-65906838D01*
X57168559Y-66045910D01*
X57023569Y-66258110D01*
X56972560Y-66510000D01*
X56972560Y-68110000D01*
X57016838Y-68345317D01*
X57155910Y-68561441D01*
X57285000Y-68649644D01*
X57285000Y-72797233D01*
X57135014Y-73021703D01*
X57032389Y-72804866D01*
X56617423Y-72428959D01*
X56229039Y-72268096D01*
X56007000Y-72390085D01*
X56007000Y-73533000D01*
X56027000Y-73533000D01*
X56027000Y-73787000D01*
X56007000Y-73787000D01*
X56007000Y-74929915D01*
X56229039Y-75051904D01*
X56617423Y-74891041D01*
X57032389Y-74515134D01*
X57135014Y-74298297D01*
X57405302Y-74702811D01*
X57870849Y-75013880D01*
X58420000Y-75123113D01*
X58969151Y-75013880D01*
X59434698Y-74702811D01*
X59690000Y-74320725D01*
X59945302Y-74702811D01*
X60410849Y-75013880D01*
X60960000Y-75123113D01*
X61509151Y-75013880D01*
X61974698Y-74702811D01*
X62230000Y-74320725D01*
X62485302Y-74702811D01*
X62950849Y-75013880D01*
X63500000Y-75123113D01*
X64049151Y-75013880D01*
X64514698Y-74702811D01*
X64770000Y-74320725D01*
X65025302Y-74702811D01*
X65490849Y-75013880D01*
X66040000Y-75123113D01*
X66589151Y-75013880D01*
X67054698Y-74702811D01*
X67310000Y-74320725D01*
X67565302Y-74702811D01*
X68030849Y-75013880D01*
X68580000Y-75123113D01*
X69129151Y-75013880D01*
X69594698Y-74702811D01*
X69850000Y-74320725D01*
X70105302Y-74702811D01*
X70570849Y-75013880D01*
X71120000Y-75123113D01*
X71669151Y-75013880D01*
X72134698Y-74702811D01*
X72390000Y-74320725D01*
X72645302Y-74702811D01*
X73110849Y-75013880D01*
X73660000Y-75123113D01*
X74209151Y-75013880D01*
X74674698Y-74702811D01*
X74771101Y-74558535D01*
X74796838Y-74695317D01*
X74935910Y-74911441D01*
X75148110Y-75056431D01*
X75400000Y-75107440D01*
X77000000Y-75107440D01*
X77235317Y-75063162D01*
X77451441Y-74924090D01*
X77596431Y-74711890D01*
X77647440Y-74460000D01*
X77647440Y-72860000D01*
X77603162Y-72624683D01*
X77464090Y-72408559D01*
X77335000Y-72320356D01*
X77335000Y-68172767D01*
X77470000Y-67970725D01*
X77725302Y-68352811D01*
X78190849Y-68663880D01*
X78740000Y-68773113D01*
X79289151Y-68663880D01*
X79754698Y-68352811D01*
X80024986Y-67948297D01*
X80127611Y-68165134D01*
X80542577Y-68541041D01*
X80930961Y-68701904D01*
X81153000Y-68579915D01*
X81153000Y-67437000D01*
X81133000Y-67437000D01*
X81133000Y-67183000D01*
X81153000Y-67183000D01*
X81153000Y-67163000D01*
X81407000Y-67163000D01*
X81407000Y-67183000D01*
X81427000Y-67183000D01*
X81427000Y-67437000D01*
X81407000Y-67437000D01*
X81407000Y-68579915D01*
X81629039Y-68701904D01*
X82017423Y-68541041D01*
X82432389Y-68165134D01*
X82535014Y-67948297D01*
X82805302Y-68352811D01*
X83270849Y-68663880D01*
X83820000Y-68773113D01*
X84369151Y-68663880D01*
X84834698Y-68352811D01*
X85090000Y-67970725D01*
X85225000Y-68172767D01*
X85225000Y-72238808D01*
X85058559Y-72345910D01*
X84913569Y-72558110D01*
X84862560Y-72810000D01*
X84862560Y-74510000D01*
X84906838Y-74745317D01*
X85045910Y-74961441D01*
X85258110Y-75106431D01*
X85510000Y-75157440D01*
X87210000Y-75157440D01*
X87445317Y-75113162D01*
X87661441Y-74974090D01*
X87806431Y-74761890D01*
X87820086Y-74694459D01*
X87849946Y-74739147D01*
X88331715Y-75061054D01*
X88900000Y-75174093D01*
X89468285Y-75061054D01*
X89950054Y-74739147D01*
X90271961Y-74257378D01*
X90385000Y-73689093D01*
X90385000Y-73630907D01*
X90271961Y-73062622D01*
X90035000Y-72707984D01*
X90035000Y-68172767D01*
X90170000Y-67970725D01*
X90425302Y-68352811D01*
X90890849Y-68663880D01*
X91440000Y-68773113D01*
X91989151Y-68663880D01*
X92454698Y-68352811D01*
X92765767Y-67887264D01*
X92875000Y-67338113D01*
X92875000Y-67281887D01*
X92765767Y-66732736D01*
X92454698Y-66267189D01*
X91989151Y-65956120D01*
X91440000Y-65846887D01*
X90890849Y-65956120D01*
X90425302Y-66267189D01*
X90170000Y-66649275D01*
X89914698Y-66267189D01*
X89449151Y-65956120D01*
X88900000Y-65846887D01*
X88350849Y-65956120D01*
X87885302Y-66267189D01*
X87630000Y-66649275D01*
X87374698Y-66267189D01*
X86909151Y-65956120D01*
X86360000Y-65846887D01*
X85810849Y-65956120D01*
X85345302Y-66267189D01*
X85090000Y-66649275D01*
X84834698Y-66267189D01*
X84369151Y-65956120D01*
X83820000Y-65846887D01*
X83270849Y-65956120D01*
X82805302Y-66267189D01*
X82535014Y-66671703D01*
X82432389Y-66454866D01*
X82017423Y-66078959D01*
X81629039Y-65918096D01*
X81476399Y-66001957D01*
X84534178Y-62944178D01*
X84753118Y-62616510D01*
X84830000Y-62230000D01*
X84830000Y-60735950D01*
X84834698Y-60732811D01*
X85104986Y-60328297D01*
X85207611Y-60545134D01*
X85622577Y-60921041D01*
X86010961Y-61081904D01*
X86233000Y-60959915D01*
X86233000Y-59817000D01*
X86487000Y-59817000D01*
X86487000Y-60959915D01*
X86709039Y-61081904D01*
X87097423Y-60921041D01*
X87512389Y-60545134D01*
X87630000Y-60296633D01*
X87747611Y-60545134D01*
X88162577Y-60921041D01*
X88550961Y-61081904D01*
X88773000Y-60959915D01*
X88773000Y-59817000D01*
X89027000Y-59817000D01*
X89027000Y-60959915D01*
X89249039Y-61081904D01*
X89637423Y-60921041D01*
X90052389Y-60545134D01*
X90170000Y-60296633D01*
X90287611Y-60545134D01*
X90702577Y-60921041D01*
X91090961Y-61081904D01*
X91313000Y-60959915D01*
X91313000Y-59817000D01*
X91567000Y-59817000D01*
X91567000Y-60959915D01*
X91789039Y-61081904D01*
X92177423Y-60921041D01*
X92592389Y-60545134D01*
X92831914Y-60039041D01*
X92710629Y-59817000D01*
X91567000Y-59817000D01*
X91313000Y-59817000D01*
X89027000Y-59817000D01*
X88773000Y-59817000D01*
X86487000Y-59817000D01*
X86233000Y-59817000D01*
X86213000Y-59817000D01*
X86213000Y-59563000D01*
X86233000Y-59563000D01*
X86233000Y-58420085D01*
X86487000Y-58420085D01*
X86487000Y-59563000D01*
X88773000Y-59563000D01*
X88773000Y-58420085D01*
X89027000Y-58420085D01*
X89027000Y-59563000D01*
X91313000Y-59563000D01*
X91313000Y-58420085D01*
X91567000Y-58420085D01*
X91567000Y-59563000D01*
X92710629Y-59563000D01*
X92831914Y-59340959D01*
X92592389Y-58834866D01*
X92177423Y-58458959D01*
X91789039Y-58298096D01*
X91567000Y-58420085D01*
X91313000Y-58420085D01*
X91090961Y-58298096D01*
X90702577Y-58458959D01*
X90287611Y-58834866D01*
X90170000Y-59083367D01*
X90052389Y-58834866D01*
X89637423Y-58458959D01*
X89249039Y-58298096D01*
X89027000Y-58420085D01*
X88773000Y-58420085D01*
X88550961Y-58298096D01*
X88162577Y-58458959D01*
X87747611Y-58834866D01*
X87630000Y-59083367D01*
X87512389Y-58834866D01*
X87097423Y-58458959D01*
X86709039Y-58298096D01*
X86487000Y-58420085D01*
X86233000Y-58420085D01*
X86010961Y-58298096D01*
X85622577Y-58458959D01*
X85207611Y-58834866D01*
X85104986Y-59051703D01*
X84834698Y-58647189D01*
X84830000Y-58644050D01*
X84830000Y-55880000D01*
X100085907Y-55880000D01*
X100198946Y-56448285D01*
X100520853Y-56930054D01*
X100850026Y-57150000D01*
X100520853Y-57369946D01*
X100198946Y-57851715D01*
X100085907Y-58420000D01*
X100198946Y-58988285D01*
X100520853Y-59470054D01*
X100850026Y-59690000D01*
X100520853Y-59909946D01*
X100198946Y-60391715D01*
X100085907Y-60960000D01*
X100198946Y-61528285D01*
X100520853Y-62010054D01*
X100850026Y-62230000D01*
X100520853Y-62449946D01*
X100198946Y-62931715D01*
X100085907Y-63500000D01*
X100198946Y-64068285D01*
X100520853Y-64550054D01*
X100850026Y-64770000D01*
X100520853Y-64989946D01*
X100198946Y-65471715D01*
X100085907Y-66040000D01*
X100198946Y-66608285D01*
X100520853Y-67090054D01*
X100850026Y-67310000D01*
X100520853Y-67529946D01*
X100198946Y-68011715D01*
X100085907Y-68580000D01*
X100198946Y-69148285D01*
X100520853Y-69630054D01*
X100850026Y-69850000D01*
X100520853Y-70069946D01*
X100198946Y-70551715D01*
X100085907Y-71120000D01*
X100198946Y-71688285D01*
X100520853Y-72170054D01*
X101002622Y-72491961D01*
X101570907Y-72605000D01*
X101629093Y-72605000D01*
X102197378Y-72491961D01*
X102552016Y-72255000D01*
X108357233Y-72255000D01*
X108642736Y-72445767D01*
X109191887Y-72555000D01*
X109248113Y-72555000D01*
X109797264Y-72445767D01*
X110262811Y-72134698D01*
X110573880Y-71669151D01*
X110683113Y-71120000D01*
X110573880Y-70570849D01*
X110262811Y-70105302D01*
X109880725Y-69850000D01*
X110262811Y-69594698D01*
X110573880Y-69129151D01*
X110683113Y-68580000D01*
X110573880Y-68030849D01*
X110262811Y-67565302D01*
X109880725Y-67310000D01*
X110262811Y-67054698D01*
X110573880Y-66589151D01*
X110683113Y-66040000D01*
X110573880Y-65490849D01*
X110262811Y-65025302D01*
X109880725Y-64770000D01*
X110262811Y-64514698D01*
X110573880Y-64049151D01*
X110683113Y-63500000D01*
X110573880Y-62950849D01*
X110262811Y-62485302D01*
X109880725Y-62230000D01*
X110262811Y-61974698D01*
X110573880Y-61509151D01*
X110683113Y-60960000D01*
X110573880Y-60410849D01*
X110262811Y-59945302D01*
X109880725Y-59690000D01*
X110262811Y-59434698D01*
X110573880Y-58969151D01*
X110683113Y-58420000D01*
X110573880Y-57870849D01*
X110262811Y-57405302D01*
X109880725Y-57150000D01*
X110262811Y-56894698D01*
X110573880Y-56429151D01*
X110683113Y-55880000D01*
X110573880Y-55330849D01*
X110262811Y-54865302D01*
X110118535Y-54768899D01*
X110255317Y-54743162D01*
X110471441Y-54604090D01*
X110616431Y-54391890D01*
X110667440Y-54140000D01*
X110667440Y-52540000D01*
X110623162Y-52304683D01*
X110484090Y-52088559D01*
X110271890Y-51943569D01*
X110020000Y-51892560D01*
X108420000Y-51892560D01*
X108184683Y-51936838D01*
X107968559Y-52075910D01*
X107880356Y-52205000D01*
X103021192Y-52205000D01*
X102914090Y-52038559D01*
X102701890Y-51893569D01*
X102450000Y-51842560D01*
X100750000Y-51842560D01*
X100514683Y-51886838D01*
X100298559Y-52025910D01*
X100153569Y-52238110D01*
X100102560Y-52490000D01*
X100102560Y-54190000D01*
X100146838Y-54425317D01*
X100285910Y-54641441D01*
X100498110Y-54786431D01*
X100565541Y-54800086D01*
X100520853Y-54829946D01*
X100198946Y-55311715D01*
X100085907Y-55880000D01*
X84830000Y-55880000D01*
X84830000Y-50800000D01*
X84753118Y-50413490D01*
X84534178Y-50085822D01*
X81178356Y-46730000D01*
X85090000Y-46730000D01*
X85476510Y-46653118D01*
X85804178Y-46434178D01*
X92657927Y-39580429D01*
X92680907Y-39585000D01*
X92739093Y-39585000D01*
X92762073Y-39580429D01*
X98345822Y-45164178D01*
X98673490Y-45383118D01*
X99060000Y-45460000D01*
X105634050Y-45460000D01*
X105637189Y-45464698D01*
X106102736Y-45775767D01*
X106651887Y-45885000D01*
X106708113Y-45885000D01*
X107257264Y-45775767D01*
X107611031Y-45539387D01*
X115382654Y-53311010D01*
X115376887Y-53340000D01*
X115486120Y-53889151D01*
X115797189Y-54354698D01*
X115830000Y-54376622D01*
X115830000Y-54843378D01*
X115797189Y-54865302D01*
X115486120Y-55330849D01*
X115376887Y-55880000D01*
X115382654Y-55908990D01*
X112315822Y-58975822D01*
X112096882Y-59303490D01*
X112020000Y-59690000D01*
X112020000Y-74930000D01*
X112096882Y-75316510D01*
X112315822Y-75644178D01*
X116125822Y-79454178D01*
X116453490Y-79673118D01*
X116840000Y-79750000D01*
X120452666Y-79750000D01*
X120466838Y-79825317D01*
X120605910Y-80041441D01*
X120818110Y-80186431D01*
X121070000Y-80237440D01*
X122770000Y-80237440D01*
X123005317Y-80193162D01*
X123221441Y-80054090D01*
X123366431Y-79841890D01*
X123417440Y-79590000D01*
X123417440Y-77890000D01*
X123373162Y-77654683D01*
X123234090Y-77438559D01*
X123021890Y-77293569D01*
X122770000Y-77242560D01*
X121070000Y-77242560D01*
X120834683Y-77286838D01*
X120618559Y-77425910D01*
X120473569Y-77638110D01*
X120454961Y-77730000D01*
X117258356Y-77730000D01*
X114040000Y-74511644D01*
X114040000Y-71469039D01*
X115448096Y-71469039D01*
X115608959Y-71857423D01*
X115984866Y-72272389D01*
X116490959Y-72511914D01*
X116713000Y-72390629D01*
X116713000Y-71247000D01*
X116967000Y-71247000D01*
X116967000Y-72390629D01*
X117189041Y-72511914D01*
X117695134Y-72272389D01*
X118071041Y-71857423D01*
X118231904Y-71469039D01*
X118109915Y-71247000D01*
X116967000Y-71247000D01*
X116713000Y-71247000D01*
X115570085Y-71247000D01*
X115448096Y-71469039D01*
X114040000Y-71469039D01*
X114040000Y-60108356D01*
X115531957Y-58616399D01*
X115448096Y-58769039D01*
X115608959Y-59157423D01*
X115984866Y-59572389D01*
X116201703Y-59675014D01*
X115797189Y-59945302D01*
X115486120Y-60410849D01*
X115376887Y-60960000D01*
X115486120Y-61509151D01*
X115797189Y-61974698D01*
X116179275Y-62230000D01*
X115797189Y-62485302D01*
X115486120Y-62950849D01*
X115376887Y-63500000D01*
X115486120Y-64049151D01*
X115797189Y-64514698D01*
X116179275Y-64770000D01*
X115797189Y-65025302D01*
X115486120Y-65490849D01*
X115376887Y-66040000D01*
X115486120Y-66589151D01*
X115797189Y-67054698D01*
X116179275Y-67310000D01*
X115797189Y-67565302D01*
X115486120Y-68030849D01*
X115376887Y-68580000D01*
X115486120Y-69129151D01*
X115797189Y-69594698D01*
X116201703Y-69864986D01*
X115984866Y-69967611D01*
X115608959Y-70382577D01*
X115448096Y-70770961D01*
X115570085Y-70993000D01*
X116713000Y-70993000D01*
X116713000Y-70973000D01*
X116967000Y-70973000D01*
X116967000Y-70993000D01*
X118109915Y-70993000D01*
X118231904Y-70770961D01*
X118071041Y-70382577D01*
X117695134Y-69967611D01*
X117478297Y-69864986D01*
X117702767Y-69715000D01*
X122237984Y-69715000D01*
X122592622Y-69951961D01*
X123160907Y-70065000D01*
X123219093Y-70065000D01*
X123787378Y-69951961D01*
X124269147Y-69630054D01*
X124591054Y-69148285D01*
X124704093Y-68580000D01*
X124591054Y-68011715D01*
X124269147Y-67529946D01*
X123939974Y-67310000D01*
X124269147Y-67090054D01*
X124591054Y-66608285D01*
X124704093Y-66040000D01*
X124591054Y-65471715D01*
X124269147Y-64989946D01*
X123939974Y-64770000D01*
X124269147Y-64550054D01*
X124591054Y-64068285D01*
X124704093Y-63500000D01*
X124591054Y-62931715D01*
X124269147Y-62449946D01*
X124227548Y-62422150D01*
X124275317Y-62413162D01*
X124491441Y-62274090D01*
X124636431Y-62061890D01*
X124687440Y-61810000D01*
X124687440Y-60110000D01*
X124643162Y-59874683D01*
X124504090Y-59658559D01*
X124291890Y-59513569D01*
X124040000Y-59462560D01*
X122340000Y-59462560D01*
X122104683Y-59506838D01*
X121888559Y-59645910D01*
X121766192Y-59825000D01*
X117702767Y-59825000D01*
X117478297Y-59675014D01*
X117695134Y-59572389D01*
X118071041Y-59157423D01*
X118231904Y-58769039D01*
X118109915Y-58547000D01*
X116967000Y-58547000D01*
X116967000Y-58567000D01*
X116713000Y-58567000D01*
X116713000Y-58547000D01*
X116693000Y-58547000D01*
X116693000Y-58293000D01*
X116713000Y-58293000D01*
X116713000Y-58273000D01*
X116967000Y-58273000D01*
X116967000Y-58293000D01*
X118109915Y-58293000D01*
X118231904Y-58070961D01*
X118071041Y-57682577D01*
X117695134Y-57267611D01*
X117478297Y-57164986D01*
X117882811Y-56894698D01*
X118093085Y-56580000D01*
X137400715Y-56580000D01*
X137400715Y-62950000D01*
X180099285Y-62950000D01*
X180099285Y-56580000D01*
X137400715Y-56580000D01*
X118093085Y-56580000D01*
X118193880Y-56429151D01*
X118303113Y-55880000D01*
X118193880Y-55330849D01*
X117882811Y-54865302D01*
X117850000Y-54843378D01*
X117850000Y-54376622D01*
X117882811Y-54354698D01*
X118193880Y-53889151D01*
X118303113Y-53340000D01*
X118193880Y-52790849D01*
X117882811Y-52325302D01*
X117417264Y-52014233D01*
X116868113Y-51905000D01*
X116833356Y-51905000D01*
X108664178Y-43735822D01*
X108336510Y-43516882D01*
X107950000Y-43440000D01*
X107725950Y-43440000D01*
X107722811Y-43435302D01*
X107690000Y-43413378D01*
X107690000Y-40640000D01*
X107613118Y-40253490D01*
X107613118Y-40253489D01*
X107394178Y-39925822D01*
X105568356Y-38100000D01*
X107731245Y-35937111D01*
X107722560Y-35980000D01*
X107722560Y-37680000D01*
X107766838Y-37915317D01*
X107905910Y-38131441D01*
X108118110Y-38276431D01*
X108370000Y-38327440D01*
X110070000Y-38327440D01*
X110305317Y-38283162D01*
X110521441Y-38144090D01*
X110666431Y-37931890D01*
X110680086Y-37864459D01*
X110709946Y-37909147D01*
X111191715Y-38231054D01*
X111760000Y-38344093D01*
X112328285Y-38231054D01*
X112810054Y-37909147D01*
X112856256Y-37840000D01*
X113203744Y-37840000D01*
X113249946Y-37909147D01*
X113731715Y-38231054D01*
X114300000Y-38344093D01*
X114868285Y-38231054D01*
X115350054Y-37909147D01*
X115396256Y-37840000D01*
X115743744Y-37840000D01*
X115789946Y-37909147D01*
X116271715Y-38231054D01*
X116840000Y-38344093D01*
X117408285Y-38231054D01*
X117890054Y-37909147D01*
X117936256Y-37840000D01*
X118283744Y-37840000D01*
X118329946Y-37909147D01*
X118811715Y-38231054D01*
X119380000Y-38344093D01*
X119948285Y-38231054D01*
X120430054Y-37909147D01*
X120476256Y-37840000D01*
X120823744Y-37840000D01*
X120869946Y-37909147D01*
X120910000Y-37935910D01*
X120910000Y-43430612D01*
X120704176Y-43636077D01*
X120485250Y-44163309D01*
X120484752Y-44734187D01*
X120702757Y-45261800D01*
X121106077Y-45665824D01*
X121633309Y-45884750D01*
X122204187Y-45885248D01*
X122731800Y-45667243D01*
X123135824Y-45263923D01*
X123354750Y-44736691D01*
X123355248Y-44165813D01*
X123137243Y-43638200D01*
X122930000Y-43430595D01*
X122930000Y-37935910D01*
X122970054Y-37909147D01*
X123016256Y-37840000D01*
X125730000Y-37840000D01*
X126116510Y-37763118D01*
X126444178Y-37544178D01*
X126663118Y-37216510D01*
X126740000Y-36830000D01*
X126740000Y-32192619D01*
X133654613Y-32192619D01*
X133994155Y-33014372D01*
X134622321Y-33643636D01*
X135443481Y-33984611D01*
X136332619Y-33985387D01*
X137154372Y-33645845D01*
X137783636Y-33017679D01*
X138124611Y-32196519D01*
X138124614Y-32192619D01*
X183184613Y-32192619D01*
X183524155Y-33014372D01*
X184152321Y-33643636D01*
X184973481Y-33984611D01*
X185862619Y-33985387D01*
X186684372Y-33645845D01*
X187313636Y-33017679D01*
X187654611Y-32196519D01*
X187655387Y-31307381D01*
X187315845Y-30485628D01*
X186687679Y-29856364D01*
X186197006Y-29652619D01*
X188264613Y-29652619D01*
X188604155Y-30474372D01*
X189232321Y-31103636D01*
X190053481Y-31444611D01*
X190942619Y-31445387D01*
X191764372Y-31105845D01*
X192393636Y-30477679D01*
X192734611Y-29656519D01*
X192735387Y-28767381D01*
X192395845Y-27945628D01*
X191767679Y-27316364D01*
X190946519Y-26975389D01*
X190057381Y-26974613D01*
X189235628Y-27314155D01*
X188606364Y-27942321D01*
X188265389Y-28763481D01*
X188264613Y-29652619D01*
X186197006Y-29652619D01*
X185866519Y-29515389D01*
X184977381Y-29514613D01*
X184155628Y-29854155D01*
X183526364Y-30482321D01*
X183185389Y-31303481D01*
X183184613Y-32192619D01*
X138124614Y-32192619D01*
X138125387Y-31307381D01*
X137785845Y-30485628D01*
X137157679Y-29856364D01*
X136336519Y-29515389D01*
X135447381Y-29514613D01*
X134625628Y-29854155D01*
X133996364Y-30482321D01*
X133655389Y-31303481D01*
X133654613Y-32192619D01*
X126740000Y-32192619D01*
X126740000Y-30480000D01*
X126663118Y-30093490D01*
X126444178Y-29765822D01*
X126116510Y-29546882D01*
X125730000Y-29470000D01*
X102870000Y-29470000D01*
X102483490Y-29546882D01*
X102155822Y-29765822D01*
X101936882Y-30093490D01*
X101860000Y-30480000D01*
X101860000Y-36302686D01*
X101735197Y-36603244D01*
X101734803Y-37054775D01*
X101752689Y-37098061D01*
X101727000Y-37123750D01*
X101727000Y-37973000D01*
X102576250Y-37973000D01*
X102601698Y-37947552D01*
X102643244Y-37964803D01*
X103005117Y-37965119D01*
X103004803Y-38324775D01*
X103177233Y-38742086D01*
X103496235Y-39061645D01*
X103799015Y-39187371D01*
X105670000Y-41058356D01*
X105670000Y-43413378D01*
X105637189Y-43435302D01*
X105634050Y-43440000D01*
X99478356Y-43440000D01*
X94424106Y-38385750D01*
X100465000Y-38385750D01*
X100465000Y-38726309D01*
X100561673Y-38959698D01*
X100740301Y-39138327D01*
X100973690Y-39235000D01*
X101314250Y-39235000D01*
X101473000Y-39076250D01*
X101473000Y-38227000D01*
X101727000Y-38227000D01*
X101727000Y-39076250D01*
X101885750Y-39235000D01*
X102226310Y-39235000D01*
X102459699Y-39138327D01*
X102638327Y-38959698D01*
X102735000Y-38726309D01*
X102735000Y-38385750D01*
X102576250Y-38227000D01*
X101727000Y-38227000D01*
X101473000Y-38227000D01*
X100623750Y-38227000D01*
X100465000Y-38385750D01*
X94424106Y-38385750D01*
X94209868Y-38171512D01*
X94224093Y-38100000D01*
X94111054Y-37531715D01*
X94072284Y-37473691D01*
X100465000Y-37473691D01*
X100465000Y-37814250D01*
X100623750Y-37973000D01*
X101473000Y-37973000D01*
X101473000Y-37123750D01*
X101314250Y-36965000D01*
X100973690Y-36965000D01*
X100740301Y-37061673D01*
X100561673Y-37240302D01*
X100465000Y-37473691D01*
X94072284Y-37473691D01*
X93789147Y-37049946D01*
X93459974Y-36830000D01*
X93789147Y-36610054D01*
X94111054Y-36128285D01*
X94224093Y-35560000D01*
X94111054Y-34991715D01*
X93789147Y-34509946D01*
X93459974Y-34290000D01*
X93789147Y-34070054D01*
X94111054Y-33588285D01*
X94224093Y-33020000D01*
X94111054Y-32451715D01*
X93789147Y-31969946D01*
X93745223Y-31940597D01*
X93919698Y-31868327D01*
X94098327Y-31689699D01*
X94195000Y-31456310D01*
X94195000Y-30765750D01*
X94036250Y-30607000D01*
X92837000Y-30607000D01*
X92837000Y-30627000D01*
X92583000Y-30627000D01*
X92583000Y-30607000D01*
X91383750Y-30607000D01*
X91225000Y-30765750D01*
X91225000Y-31456310D01*
X91321673Y-31689699D01*
X91500302Y-31868327D01*
X91540554Y-31885000D01*
X86511192Y-31885000D01*
X86404090Y-31718559D01*
X86191890Y-31573569D01*
X85940000Y-31522560D01*
X84240000Y-31522560D01*
X84004683Y-31566838D01*
X83788559Y-31705910D01*
X83643569Y-31918110D01*
X83592560Y-32170000D01*
X83592560Y-33870000D01*
X83636838Y-34105317D01*
X83775910Y-34321441D01*
X83988110Y-34466431D01*
X84055541Y-34480086D01*
X84010853Y-34509946D01*
X83688946Y-34991715D01*
X83575907Y-35560000D01*
X83688946Y-36128285D01*
X84010853Y-36610054D01*
X84492622Y-36931961D01*
X85060907Y-37045000D01*
X85119093Y-37045000D01*
X85687378Y-36931961D01*
X86042016Y-36695000D01*
X91757984Y-36695000D01*
X91960026Y-36830000D01*
X91630853Y-37049946D01*
X91308946Y-37531715D01*
X91195907Y-38100000D01*
X91210132Y-38171512D01*
X84671644Y-44710000D01*
X79776622Y-44710000D01*
X79754698Y-44677189D01*
X79289151Y-44366120D01*
X78740000Y-44256887D01*
X78190849Y-44366120D01*
X77725302Y-44677189D01*
X77470000Y-45059275D01*
X77335000Y-44857233D01*
X77335000Y-32702016D01*
X77571961Y-32347378D01*
X77685000Y-31779093D01*
X77685000Y-31720907D01*
X77571961Y-31152622D01*
X77250054Y-30670853D01*
X76768285Y-30348946D01*
X76200000Y-30235907D01*
X75631715Y-30348946D01*
X75149946Y-30670853D01*
X74930000Y-31000026D01*
X74710054Y-30670853D01*
X74228285Y-30348946D01*
X73660000Y-30235907D01*
X73091715Y-30348946D01*
X72609946Y-30670853D01*
X72390000Y-31000026D01*
X72170054Y-30670853D01*
X71688285Y-30348946D01*
X71120000Y-30235907D01*
X70551715Y-30348946D01*
X70069946Y-30670853D01*
X69850000Y-31000026D01*
X69630054Y-30670853D01*
X69148285Y-30348946D01*
X68580000Y-30235907D01*
X68011715Y-30348946D01*
X67529946Y-30670853D01*
X67310000Y-31000026D01*
X67090054Y-30670853D01*
X66608285Y-30348946D01*
X66040000Y-30235907D01*
X65471715Y-30348946D01*
X64989946Y-30670853D01*
X64770000Y-31000026D01*
X64550054Y-30670853D01*
X64068285Y-30348946D01*
X63500000Y-30235907D01*
X62931715Y-30348946D01*
X62449946Y-30670853D01*
X62230000Y-31000026D01*
X62010054Y-30670853D01*
X61528285Y-30348946D01*
X60960000Y-30235907D01*
X60391715Y-30348946D01*
X59909946Y-30670853D01*
X59882150Y-30712452D01*
X59873162Y-30664683D01*
X59734090Y-30448559D01*
X59521890Y-30303569D01*
X59270000Y-30252560D01*
X57570000Y-30252560D01*
X57334683Y-30296838D01*
X57118559Y-30435910D01*
X56973569Y-30648110D01*
X56922560Y-30900000D01*
X56922560Y-32600000D01*
X56966838Y-32835317D01*
X57105910Y-33051441D01*
X57285000Y-33173808D01*
X57285000Y-44857233D01*
X57094233Y-45142736D01*
X56985000Y-45691887D01*
X56985000Y-45748113D01*
X57094233Y-46297264D01*
X57405302Y-46762811D01*
X57870849Y-47073880D01*
X58420000Y-47183113D01*
X58969151Y-47073880D01*
X59434698Y-46762811D01*
X59690000Y-46380725D01*
X59945302Y-46762811D01*
X60410849Y-47073880D01*
X60960000Y-47183113D01*
X61509151Y-47073880D01*
X61974698Y-46762811D01*
X62230000Y-46380725D01*
X62485302Y-46762811D01*
X62950849Y-47073880D01*
X63500000Y-47183113D01*
X64049151Y-47073880D01*
X64514698Y-46762811D01*
X64770000Y-46380725D01*
X65025302Y-46762811D01*
X65490849Y-47073880D01*
X66040000Y-47183113D01*
X66589151Y-47073880D01*
X67054698Y-46762811D01*
X67310000Y-46380725D01*
X67565302Y-46762811D01*
X68030849Y-47073880D01*
X68580000Y-47183113D01*
X69129151Y-47073880D01*
X69594698Y-46762811D01*
X69850000Y-46380725D01*
X70105302Y-46762811D01*
X70570849Y-47073880D01*
X71120000Y-47183113D01*
X71669151Y-47073880D01*
X72134698Y-46762811D01*
X72390000Y-46380725D01*
X72645302Y-46762811D01*
X73110849Y-47073880D01*
X73660000Y-47183113D01*
X74209151Y-47073880D01*
X74674698Y-46762811D01*
X74930000Y-46380725D01*
X75185302Y-46762811D01*
X75650849Y-47073880D01*
X76200000Y-47183113D01*
X76749151Y-47073880D01*
X77214698Y-46762811D01*
X77470000Y-46380725D01*
X77725302Y-46762811D01*
X78190849Y-47073880D01*
X78740000Y-47183113D01*
X78768990Y-47177346D01*
X82810000Y-51218356D01*
X82810000Y-58644050D01*
X82805302Y-58647189D01*
X82550000Y-59029275D01*
X82294698Y-58647189D01*
X81829151Y-58336120D01*
X81280000Y-58226887D01*
X80730849Y-58336120D01*
X80265302Y-58647189D01*
X80010000Y-59029275D01*
X79754698Y-58647189D01*
X79289151Y-58336120D01*
X78740000Y-58226887D01*
X78190849Y-58336120D01*
X77725302Y-58647189D01*
X77470000Y-59029275D01*
X77335000Y-58827233D01*
X77335000Y-54202767D01*
X77484986Y-53978297D01*
X77587611Y-54195134D01*
X78002577Y-54571041D01*
X78390961Y-54731904D01*
X78613000Y-54609915D01*
X78613000Y-53467000D01*
X78867000Y-53467000D01*
X78867000Y-54609915D01*
X79089039Y-54731904D01*
X79477423Y-54571041D01*
X79892389Y-54195134D01*
X80131914Y-53689041D01*
X80010629Y-53467000D01*
X78867000Y-53467000D01*
X78613000Y-53467000D01*
X78593000Y-53467000D01*
X78593000Y-53213000D01*
X78613000Y-53213000D01*
X78613000Y-52070085D01*
X78867000Y-52070085D01*
X78867000Y-53213000D01*
X80010629Y-53213000D01*
X80131914Y-52990959D01*
X79892389Y-52484866D01*
X79477423Y-52108959D01*
X79089039Y-51948096D01*
X78867000Y-52070085D01*
X78613000Y-52070085D01*
X78390961Y-51948096D01*
X78002577Y-52108959D01*
X77587611Y-52484866D01*
X77484986Y-52701703D01*
X77214698Y-52297189D01*
X76749151Y-51986120D01*
X76200000Y-51876887D01*
X75650849Y-51986120D01*
X75185302Y-52297189D01*
X74930000Y-52679275D01*
X74674698Y-52297189D01*
X74209151Y-51986120D01*
X73660000Y-51876887D01*
X73110849Y-51986120D01*
X72645302Y-52297189D01*
X72390000Y-52679275D01*
X72134698Y-52297189D01*
X71669151Y-51986120D01*
X71120000Y-51876887D01*
X70570849Y-51986120D01*
X70105302Y-52297189D01*
X69850000Y-52679275D01*
X69594698Y-52297189D01*
X69129151Y-51986120D01*
X68580000Y-51876887D01*
X68030849Y-51986120D01*
X67565302Y-52297189D01*
X67310000Y-52679275D01*
X67054698Y-52297189D01*
X66589151Y-51986120D01*
X66040000Y-51876887D01*
X65490849Y-51986120D01*
X65025302Y-52297189D01*
X64770000Y-52679275D01*
X64514698Y-52297189D01*
X64049151Y-51986120D01*
X63500000Y-51876887D01*
X62950849Y-51986120D01*
X62485302Y-52297189D01*
X62230000Y-52679275D01*
X61974698Y-52297189D01*
X61509151Y-51986120D01*
X60960000Y-51876887D01*
X60410849Y-51986120D01*
X59945302Y-52297189D01*
X59848899Y-52441465D01*
X59823162Y-52304683D01*
X59684090Y-52088559D01*
X59471890Y-51943569D01*
X59220000Y-51892560D01*
X57620000Y-51892560D01*
X57384683Y-51936838D01*
X57168559Y-52075910D01*
X57023569Y-52288110D01*
X56972560Y-52540000D01*
X56972560Y-54140000D01*
X57016838Y-54375317D01*
X57155910Y-54591441D01*
X57285000Y-54679644D01*
X57285000Y-58827233D01*
X57094233Y-59112736D01*
X56985000Y-59661887D01*
X56985000Y-59718113D01*
X57094233Y-60267264D01*
X57405302Y-60732811D01*
X57870849Y-61043880D01*
X58420000Y-61153113D01*
X58969151Y-61043880D01*
X59434698Y-60732811D01*
X59690000Y-60350725D01*
X59945302Y-60732811D01*
X60410849Y-61043880D01*
X60960000Y-61153113D01*
X61509151Y-61043880D01*
X61974698Y-60732811D01*
X62230000Y-60350725D01*
X62485302Y-60732811D01*
X62950849Y-61043880D01*
X63500000Y-61153113D01*
X64049151Y-61043880D01*
X64514698Y-60732811D01*
X64770000Y-60350725D01*
X65025302Y-60732811D01*
X65490849Y-61043880D01*
X66040000Y-61153113D01*
X66589151Y-61043880D01*
X67054698Y-60732811D01*
X67310000Y-60350725D01*
X67565302Y-60732811D01*
X68030849Y-61043880D01*
X68580000Y-61153113D01*
X69129151Y-61043880D01*
X69594698Y-60732811D01*
X69850000Y-60350725D01*
X70105302Y-60732811D01*
X70570849Y-61043880D01*
X71120000Y-61153113D01*
X71669151Y-61043880D01*
X72134698Y-60732811D01*
X72390000Y-60350725D01*
X72645302Y-60732811D01*
X73110849Y-61043880D01*
X73660000Y-61153113D01*
X74209151Y-61043880D01*
X74674698Y-60732811D01*
X74930000Y-60350725D01*
X75185302Y-60732811D01*
X75650849Y-61043880D01*
X76200000Y-61153113D01*
X76749151Y-61043880D01*
X77214698Y-60732811D01*
X77470000Y-60350725D01*
X77725302Y-60732811D01*
X78190849Y-61043880D01*
X78740000Y-61153113D01*
X79289151Y-61043880D01*
X79754698Y-60732811D01*
X80010000Y-60350725D01*
X80265302Y-60732811D01*
X80730849Y-61043880D01*
X81280000Y-61153113D01*
X81829151Y-61043880D01*
X82294698Y-60732811D01*
X82550000Y-60350725D01*
X82805302Y-60732811D01*
X82810000Y-60735950D01*
X82810000Y-61811644D01*
X79750000Y-64871644D01*
X79750000Y-64770000D01*
X79673118Y-64383490D01*
X79454178Y-64055822D01*
X79126510Y-63836882D01*
X78740000Y-63760000D01*
X52070000Y-63760000D01*
X51683490Y-63836882D01*
X51355822Y-64055822D01*
X51136882Y-64383490D01*
X51060000Y-64770000D01*
X45847000Y-64770000D01*
X45847000Y-31190000D01*
X46990000Y-31190000D01*
X47261705Y-31135954D01*
X47356570Y-31072567D01*
X47634155Y-31744372D01*
X48262321Y-32373636D01*
X49083481Y-32714611D01*
X49972619Y-32715387D01*
X50794372Y-32375845D01*
X51423636Y-31747679D01*
X51764611Y-30926519D01*
X51765387Y-30037381D01*
X51544870Y-29503690D01*
X91225000Y-29503690D01*
X91225000Y-30194250D01*
X91383750Y-30353000D01*
X92583000Y-30353000D01*
X92583000Y-29153750D01*
X92837000Y-29153750D01*
X92837000Y-30353000D01*
X94036250Y-30353000D01*
X94195000Y-30194250D01*
X94195000Y-29503690D01*
X94098327Y-29270301D01*
X93919698Y-29091673D01*
X93686309Y-28995000D01*
X92995750Y-28995000D01*
X92837000Y-29153750D01*
X92583000Y-29153750D01*
X92424250Y-28995000D01*
X91733691Y-28995000D01*
X91500302Y-29091673D01*
X91321673Y-29270301D01*
X91225000Y-29503690D01*
X51544870Y-29503690D01*
X51425845Y-29215628D01*
X50797679Y-28586364D01*
X49976519Y-28245389D01*
X49087381Y-28244613D01*
X48265628Y-28584155D01*
X47636364Y-29212321D01*
X47356150Y-29887152D01*
X47261705Y-29824046D01*
X46990000Y-29770000D01*
X45847000Y-29770000D01*
X45847000Y-28225750D01*
X107735000Y-28225750D01*
X107735000Y-28916309D01*
X107831673Y-29149698D01*
X108010301Y-29328327D01*
X108243690Y-29425000D01*
X108934250Y-29425000D01*
X109093000Y-29266250D01*
X109093000Y-28067000D01*
X109347000Y-28067000D01*
X109347000Y-29266250D01*
X109505750Y-29425000D01*
X110196310Y-29425000D01*
X110429699Y-29328327D01*
X110608327Y-29149698D01*
X110695136Y-28940122D01*
X110993076Y-29211645D01*
X111403110Y-29381476D01*
X111633000Y-29260155D01*
X111633000Y-28067000D01*
X111887000Y-28067000D01*
X111887000Y-29260155D01*
X112116890Y-29381476D01*
X112526924Y-29211645D01*
X112955183Y-28821358D01*
X113030000Y-28662046D01*
X113104817Y-28821358D01*
X113533076Y-29211645D01*
X113943110Y-29381476D01*
X114173000Y-29260155D01*
X114173000Y-28067000D01*
X114427000Y-28067000D01*
X114427000Y-29260155D01*
X114656890Y-29381476D01*
X115066924Y-29211645D01*
X115495183Y-28821358D01*
X115570000Y-28662046D01*
X115644817Y-28821358D01*
X116073076Y-29211645D01*
X116483110Y-29381476D01*
X116713000Y-29260155D01*
X116713000Y-28067000D01*
X116967000Y-28067000D01*
X116967000Y-29260155D01*
X117196890Y-29381476D01*
X117606924Y-29211645D01*
X118035183Y-28821358D01*
X118110000Y-28662046D01*
X118184817Y-28821358D01*
X118613076Y-29211645D01*
X119023110Y-29381476D01*
X119253000Y-29260155D01*
X119253000Y-28067000D01*
X119507000Y-28067000D01*
X119507000Y-29260155D01*
X119736890Y-29381476D01*
X120146924Y-29211645D01*
X120575183Y-28821358D01*
X120650000Y-28662046D01*
X120724817Y-28821358D01*
X121153076Y-29211645D01*
X121563110Y-29381476D01*
X121793000Y-29260155D01*
X121793000Y-28067000D01*
X122047000Y-28067000D01*
X122047000Y-29260155D01*
X122276890Y-29381476D01*
X122686924Y-29211645D01*
X123115183Y-28821358D01*
X123361486Y-28296892D01*
X123240819Y-28067000D01*
X122047000Y-28067000D01*
X121793000Y-28067000D01*
X119507000Y-28067000D01*
X119253000Y-28067000D01*
X116967000Y-28067000D01*
X116713000Y-28067000D01*
X114427000Y-28067000D01*
X114173000Y-28067000D01*
X111887000Y-28067000D01*
X111633000Y-28067000D01*
X109347000Y-28067000D01*
X109093000Y-28067000D01*
X107893750Y-28067000D01*
X107735000Y-28225750D01*
X45847000Y-28225750D01*
X45847000Y-26797000D01*
X107804046Y-26797000D01*
X107735000Y-26963691D01*
X107735000Y-26963691D01*
G37*
X107735000Y-26963691D02*
X107735000Y-27654250D01*
X107893750Y-27813000D01*
X109093000Y-27813000D01*
X109093000Y-27793000D01*
X109347000Y-27793000D01*
X109347000Y-27813000D01*
X111633000Y-27813000D01*
X111633000Y-27793000D01*
X111887000Y-27793000D01*
X111887000Y-27813000D01*
X114173000Y-27813000D01*
X114173000Y-27793000D01*
X114427000Y-27793000D01*
X114427000Y-27813000D01*
X116713000Y-27813000D01*
X116713000Y-27793000D01*
X116967000Y-27793000D01*
X116967000Y-27813000D01*
X119253000Y-27813000D01*
X119253000Y-27793000D01*
X119507000Y-27793000D01*
X119507000Y-27813000D01*
X121793000Y-27813000D01*
X121793000Y-27793000D01*
X122047000Y-27793000D01*
X122047000Y-27813000D01*
X123240819Y-27813000D01*
X123361486Y-27583108D01*
X123115183Y-27058642D01*
X122828085Y-26797000D01*
X192913000Y-26797000D01*
X192913000Y-96393000D01*
X45847000Y-96393000D01*
X45847000Y-93152619D01*
X47294613Y-93152619D01*
X47634155Y-93974372D01*
X48262321Y-94603636D01*
X49083481Y-94944611D01*
X49972619Y-94945387D01*
X50794372Y-94605845D01*
X51423636Y-93977679D01*
X51764611Y-93156519D01*
X51765387Y-92267381D01*
X51425845Y-91445628D01*
X50797679Y-90816364D01*
X49976519Y-90475389D01*
X49087381Y-90474613D01*
X48265628Y-90814155D01*
X47636364Y-91442321D01*
X47295389Y-92263481D01*
X47294613Y-93152619D01*
X45847000Y-93152619D01*
X45847000Y-64770000D01*
X51060000Y-64770000D01*
X51060000Y-81280000D01*
X51136882Y-81666510D01*
X51355822Y-81994178D01*
X51683490Y-82213118D01*
X52070000Y-82290000D01*
X54843378Y-82290000D01*
X54865302Y-82322811D01*
X55330849Y-82633880D01*
X55880000Y-82743113D01*
X56429151Y-82633880D01*
X56894698Y-82322811D01*
X57150000Y-81940725D01*
X57285000Y-82142767D01*
X57285000Y-90487984D01*
X57048039Y-90842622D01*
X56935000Y-91410907D01*
X56935000Y-91469093D01*
X57048039Y-92037378D01*
X57369946Y-92519147D01*
X57851715Y-92841054D01*
X58420000Y-92954093D01*
X58988285Y-92841054D01*
X59470054Y-92519147D01*
X59690000Y-92189974D01*
X59909946Y-92519147D01*
X60391715Y-92841054D01*
X60960000Y-92954093D01*
X61528285Y-92841054D01*
X62010054Y-92519147D01*
X62230000Y-92189974D01*
X62449946Y-92519147D01*
X62931715Y-92841054D01*
X63500000Y-92954093D01*
X64068285Y-92841054D01*
X64550054Y-92519147D01*
X64770000Y-92189974D01*
X64989946Y-92519147D01*
X65471715Y-92841054D01*
X66040000Y-92954093D01*
X66608285Y-92841054D01*
X67090054Y-92519147D01*
X67310000Y-92189974D01*
X67529946Y-92519147D01*
X68011715Y-92841054D01*
X68580000Y-92954093D01*
X69148285Y-92841054D01*
X69630054Y-92519147D01*
X69850000Y-92189974D01*
X70069946Y-92519147D01*
X70551715Y-92841054D01*
X71120000Y-92954093D01*
X71688285Y-92841054D01*
X72170054Y-92519147D01*
X72390000Y-92189974D01*
X72609946Y-92519147D01*
X73091715Y-92841054D01*
X73660000Y-92954093D01*
X74228285Y-92841054D01*
X74710054Y-92519147D01*
X74737850Y-92477548D01*
X74746838Y-92525317D01*
X74885910Y-92741441D01*
X75098110Y-92886431D01*
X75350000Y-92937440D01*
X77050000Y-92937440D01*
X77285317Y-92893162D01*
X77501441Y-92754090D01*
X77646431Y-92541890D01*
X77697440Y-92290000D01*
X77697440Y-90590000D01*
X77653162Y-90354683D01*
X77514090Y-90138559D01*
X77335000Y-90016192D01*
X77335000Y-86360000D01*
X91195907Y-86360000D01*
X91308946Y-86928285D01*
X91630853Y-87410054D01*
X91700000Y-87456256D01*
X91700000Y-90420612D01*
X91494176Y-90626077D01*
X91275250Y-91153309D01*
X91274752Y-91724187D01*
X91492757Y-92251800D01*
X91700000Y-92459405D01*
X91700000Y-92960612D01*
X91494176Y-93166077D01*
X91275250Y-93693309D01*
X91274752Y-94264187D01*
X91492757Y-94791800D01*
X91896077Y-95195824D01*
X92423309Y-95414750D01*
X92994187Y-95415248D01*
X93521800Y-95197243D01*
X93925824Y-94793923D01*
X94118860Y-94329039D01*
X106558096Y-94329039D01*
X106718959Y-94717423D01*
X107094866Y-95132389D01*
X107600959Y-95371914D01*
X107823000Y-95250629D01*
X107823000Y-94107000D01*
X108077000Y-94107000D01*
X108077000Y-95250629D01*
X108299041Y-95371914D01*
X108805134Y-95132389D01*
X109181041Y-94717423D01*
X109338652Y-94336890D01*
X110318524Y-94336890D01*
X110488355Y-94746924D01*
X110878642Y-95175183D01*
X111403108Y-95421486D01*
X111633000Y-95300819D01*
X111633000Y-94107000D01*
X111887000Y-94107000D01*
X111887000Y-95300819D01*
X112116892Y-95421486D01*
X112641358Y-95175183D01*
X113031645Y-94746924D01*
X113165968Y-94422619D01*
X188264613Y-94422619D01*
X188604155Y-95244372D01*
X189232321Y-95873636D01*
X190053481Y-96214611D01*
X190942619Y-96215387D01*
X191764372Y-95875845D01*
X192393636Y-95247679D01*
X192734611Y-94426519D01*
X192735387Y-93537381D01*
X192395845Y-92715628D01*
X191767679Y-92086364D01*
X190946519Y-91745389D01*
X190057381Y-91744613D01*
X189235628Y-92084155D01*
X188606364Y-92712321D01*
X188265389Y-93533481D01*
X188264613Y-94422619D01*
X113165968Y-94422619D01*
X113201476Y-94336890D01*
X113080155Y-94107000D01*
X111887000Y-94107000D01*
X111633000Y-94107000D01*
X110439845Y-94107000D01*
X110318524Y-94336890D01*
X109338652Y-94336890D01*
X109341904Y-94329039D01*
X109219915Y-94107000D01*
X108077000Y-94107000D01*
X107823000Y-94107000D01*
X106680085Y-94107000D01*
X106558096Y-94329039D01*
X94118860Y-94329039D01*
X94144750Y-94266691D01*
X94145248Y-93695813D01*
X93927243Y-93168200D01*
X93720000Y-92960595D01*
X93720000Y-92459388D01*
X93925824Y-92253923D01*
X94144750Y-91726691D01*
X94145248Y-91155813D01*
X93927243Y-90628200D01*
X93720000Y-90420595D01*
X93720000Y-87456256D01*
X93789147Y-87410054D01*
X94111054Y-86928285D01*
X94224093Y-86360000D01*
X94111054Y-85791715D01*
X93789147Y-85309946D01*
X93747548Y-85282150D01*
X93795317Y-85273162D01*
X94011441Y-85134090D01*
X94133808Y-84955000D01*
X102399868Y-84955000D01*
X107147434Y-89702566D01*
X107515654Y-89948603D01*
X107860534Y-90017204D01*
X107372736Y-90114233D01*
X106907189Y-90425302D01*
X106596120Y-90890849D01*
X106486887Y-91440000D01*
X106596120Y-91989151D01*
X106907189Y-92454698D01*
X107311703Y-92724986D01*
X107094866Y-92827611D01*
X106718959Y-93242577D01*
X106558096Y-93630961D01*
X106680085Y-93853000D01*
X107823000Y-93853000D01*
X107823000Y-93833000D01*
X108077000Y-93833000D01*
X108077000Y-93853000D01*
X109219915Y-93853000D01*
X109341904Y-93630961D01*
X109181041Y-93242577D01*
X108805134Y-92827611D01*
X108588297Y-92724986D01*
X108992811Y-92454698D01*
X108995950Y-92450000D01*
X110654090Y-92450000D01*
X110680853Y-92490054D01*
X111021553Y-92717702D01*
X110878642Y-92784817D01*
X110488355Y-93213076D01*
X110318524Y-93623110D01*
X110439845Y-93853000D01*
X111633000Y-93853000D01*
X111633000Y-93833000D01*
X111887000Y-93833000D01*
X111887000Y-93853000D01*
X113080155Y-93853000D01*
X113201476Y-93623110D01*
X113031645Y-93213076D01*
X112641358Y-92784817D01*
X112498447Y-92717702D01*
X112839147Y-92490054D01*
X113161054Y-92008285D01*
X113274093Y-91440000D01*
X113161054Y-90871715D01*
X112987932Y-90612619D01*
X133654613Y-90612619D01*
X133994155Y-91434372D01*
X134622321Y-92063636D01*
X135443481Y-92404611D01*
X136332619Y-92405387D01*
X137154372Y-92065845D01*
X137783636Y-91437679D01*
X138124611Y-90616519D01*
X138124614Y-90612619D01*
X183184613Y-90612619D01*
X183524155Y-91434372D01*
X184152321Y-92063636D01*
X184973481Y-92404611D01*
X185862619Y-92405387D01*
X186684372Y-92065845D01*
X187313636Y-91437679D01*
X187654611Y-90616519D01*
X187655387Y-89727381D01*
X187315845Y-88905628D01*
X186687679Y-88276364D01*
X185866519Y-87935389D01*
X184977381Y-87934613D01*
X184155628Y-88274155D01*
X183526364Y-88902321D01*
X183185389Y-89723481D01*
X183184613Y-90612619D01*
X138124614Y-90612619D01*
X138125387Y-89727381D01*
X137785845Y-88905628D01*
X137157679Y-88276364D01*
X136336519Y-87935389D01*
X135447381Y-87934613D01*
X134625628Y-88274155D01*
X133996364Y-88902321D01*
X133655389Y-89723481D01*
X133654613Y-90612619D01*
X112987932Y-90612619D01*
X112839147Y-90389946D01*
X112509974Y-90170000D01*
X112839147Y-89950054D01*
X113161054Y-89468285D01*
X113274093Y-88900000D01*
X113161054Y-88331715D01*
X112839147Y-87849946D01*
X112797548Y-87822150D01*
X112845317Y-87813162D01*
X113061441Y-87674090D01*
X113206431Y-87461890D01*
X113257440Y-87210000D01*
X113257440Y-86645750D01*
X120435000Y-86645750D01*
X120435000Y-87336310D01*
X120531673Y-87569699D01*
X120710302Y-87748327D01*
X120943691Y-87845000D01*
X121634250Y-87845000D01*
X121793000Y-87686250D01*
X121793000Y-86487000D01*
X122047000Y-86487000D01*
X122047000Y-87686250D01*
X122205750Y-87845000D01*
X122896309Y-87845000D01*
X123129698Y-87748327D01*
X123308327Y-87569699D01*
X123405000Y-87336310D01*
X123405000Y-86645750D01*
X123246250Y-86487000D01*
X122047000Y-86487000D01*
X121793000Y-86487000D01*
X120593750Y-86487000D01*
X120435000Y-86645750D01*
X113257440Y-86645750D01*
X113257440Y-85510000D01*
X113233674Y-85383690D01*
X120435000Y-85383690D01*
X120435000Y-86074250D01*
X120593750Y-86233000D01*
X121793000Y-86233000D01*
X121793000Y-85033750D01*
X122047000Y-85033750D01*
X122047000Y-86233000D01*
X123246250Y-86233000D01*
X123405000Y-86074250D01*
X123405000Y-85383690D01*
X123308327Y-85150301D01*
X123129698Y-84971673D01*
X122896309Y-84875000D01*
X122205750Y-84875000D01*
X122047000Y-85033750D01*
X121793000Y-85033750D01*
X121634250Y-84875000D01*
X120943691Y-84875000D01*
X120710302Y-84971673D01*
X120531673Y-85150301D01*
X120435000Y-85383690D01*
X113233674Y-85383690D01*
X113213162Y-85274683D01*
X113074090Y-85058559D01*
X112895000Y-84936192D01*
X112895000Y-80161192D01*
X113061441Y-80054090D01*
X113206431Y-79841890D01*
X113257440Y-79590000D01*
X113257440Y-77890000D01*
X113213162Y-77654683D01*
X113074090Y-77438559D01*
X112861890Y-77293569D01*
X112610000Y-77242560D01*
X110910000Y-77242560D01*
X110674683Y-77286838D01*
X110458559Y-77425910D01*
X110336192Y-77605000D01*
X110186464Y-77605000D01*
X109788285Y-77338946D01*
X109220000Y-77225907D01*
X108651715Y-77338946D01*
X108253536Y-77605000D01*
X107646464Y-77605000D01*
X107248285Y-77338946D01*
X106680000Y-77225907D01*
X106111715Y-77338946D01*
X105713536Y-77605000D01*
X105106464Y-77605000D01*
X104708285Y-77338946D01*
X104140000Y-77225907D01*
X103571715Y-77338946D01*
X103173536Y-77605000D01*
X102566464Y-77605000D01*
X102168285Y-77338946D01*
X101600000Y-77225907D01*
X101031715Y-77338946D01*
X100633536Y-77605000D01*
X100026464Y-77605000D01*
X99628285Y-77338946D01*
X99060000Y-77225907D01*
X98491715Y-77338946D01*
X98009946Y-77660853D01*
X97688039Y-78142622D01*
X97575000Y-78710907D01*
X97575000Y-78769093D01*
X97688039Y-79337378D01*
X98009946Y-79819147D01*
X98491715Y-80141054D01*
X99060000Y-80254093D01*
X99628285Y-80141054D01*
X100026464Y-79875000D01*
X100633536Y-79875000D01*
X101031715Y-80141054D01*
X101600000Y-80254093D01*
X102168285Y-80141054D01*
X102566464Y-79875000D01*
X103173536Y-79875000D01*
X103571715Y-80141054D01*
X104140000Y-80254093D01*
X104708285Y-80141054D01*
X105106464Y-79875000D01*
X105713536Y-79875000D01*
X106111715Y-80141054D01*
X106680000Y-80254093D01*
X107248285Y-80141054D01*
X107646464Y-79875000D01*
X108253536Y-79875000D01*
X108651715Y-80141054D01*
X109220000Y-80254093D01*
X109788285Y-80141054D01*
X110186464Y-79875000D01*
X110338808Y-79875000D01*
X110445910Y-80041441D01*
X110625000Y-80163808D01*
X110625000Y-84938808D01*
X110458559Y-85045910D01*
X110313569Y-85258110D01*
X110262560Y-85510000D01*
X110262560Y-87210000D01*
X110306838Y-87445317D01*
X110445910Y-87661441D01*
X110597474Y-87765000D01*
X108420132Y-87765000D01*
X103672566Y-83017434D01*
X103601576Y-82970000D01*
X103304346Y-82771397D01*
X102870000Y-82685000D01*
X94131192Y-82685000D01*
X94024090Y-82518559D01*
X93811890Y-82373569D01*
X93560000Y-82322560D01*
X91860000Y-82322560D01*
X91624683Y-82366838D01*
X91408559Y-82505910D01*
X91263569Y-82718110D01*
X91212560Y-82970000D01*
X91212560Y-84670000D01*
X91256838Y-84905317D01*
X91395910Y-85121441D01*
X91608110Y-85266431D01*
X91675541Y-85280086D01*
X91630853Y-85309946D01*
X91308946Y-85791715D01*
X91195907Y-86360000D01*
X77335000Y-86360000D01*
X77335000Y-82142767D01*
X77525767Y-81857264D01*
X77635000Y-81308113D01*
X77635000Y-81251887D01*
X77525767Y-80702736D01*
X77214698Y-80237189D01*
X76749151Y-79926120D01*
X76200000Y-79816887D01*
X75650849Y-79926120D01*
X75185302Y-80237189D01*
X74930000Y-80619275D01*
X74674698Y-80237189D01*
X74209151Y-79926120D01*
X73660000Y-79816887D01*
X73110849Y-79926120D01*
X72645302Y-80237189D01*
X72390000Y-80619275D01*
X72134698Y-80237189D01*
X71669151Y-79926120D01*
X71120000Y-79816887D01*
X70570849Y-79926120D01*
X70105302Y-80237189D01*
X69850000Y-80619275D01*
X69594698Y-80237189D01*
X69129151Y-79926120D01*
X68580000Y-79816887D01*
X68030849Y-79926120D01*
X67565302Y-80237189D01*
X67310000Y-80619275D01*
X67054698Y-80237189D01*
X66589151Y-79926120D01*
X66040000Y-79816887D01*
X65490849Y-79926120D01*
X65025302Y-80237189D01*
X64770000Y-80619275D01*
X64514698Y-80237189D01*
X64049151Y-79926120D01*
X63500000Y-79816887D01*
X62950849Y-79926120D01*
X62485302Y-80237189D01*
X62230000Y-80619275D01*
X61974698Y-80237189D01*
X61509151Y-79926120D01*
X60960000Y-79816887D01*
X60410849Y-79926120D01*
X59945302Y-80237189D01*
X59690000Y-80619275D01*
X59434698Y-80237189D01*
X58969151Y-79926120D01*
X58420000Y-79816887D01*
X57870849Y-79926120D01*
X57405302Y-80237189D01*
X57150000Y-80619275D01*
X56894698Y-80237189D01*
X56429151Y-79926120D01*
X55880000Y-79816887D01*
X55330849Y-79926120D01*
X54865302Y-80237189D01*
X54843378Y-80270000D01*
X53080000Y-80270000D01*
X53080000Y-74009041D01*
X54488086Y-74009041D01*
X54727611Y-74515134D01*
X55142577Y-74891041D01*
X55530961Y-75051904D01*
X55753000Y-74929915D01*
X55753000Y-73787000D01*
X54609371Y-73787000D01*
X54488086Y-74009041D01*
X53080000Y-74009041D01*
X53080000Y-73310959D01*
X54488086Y-73310959D01*
X54609371Y-73533000D01*
X55753000Y-73533000D01*
X55753000Y-72390085D01*
X55530961Y-72268096D01*
X55142577Y-72428959D01*
X54727611Y-72804866D01*
X54488086Y-73310959D01*
X53080000Y-73310959D01*
X53080000Y-65780000D01*
X77730000Y-65780000D01*
X77730000Y-66264050D01*
X77725302Y-66267189D01*
X77470000Y-66649275D01*
X77214698Y-66267189D01*
X76749151Y-65956120D01*
X76200000Y-65846887D01*
X75650849Y-65956120D01*
X75185302Y-66267189D01*
X74930000Y-66649275D01*
X74674698Y-66267189D01*
X74209151Y-65956120D01*
X73660000Y-65846887D01*
X73110849Y-65956120D01*
X72645302Y-66267189D01*
X72390000Y-66649275D01*
X72134698Y-66267189D01*
X71669151Y-65956120D01*
X71120000Y-65846887D01*
X70570849Y-65956120D01*
X70105302Y-66267189D01*
X69850000Y-66649275D01*
X69594698Y-66267189D01*
X69129151Y-65956120D01*
X68580000Y-65846887D01*
X68030849Y-65956120D01*
X67565302Y-66267189D01*
X67310000Y-66649275D01*
X67054698Y-66267189D01*
X66589151Y-65956120D01*
X66040000Y-65846887D01*
X65490849Y-65956120D01*
X65025302Y-66267189D01*
X64770000Y-66649275D01*
X64514698Y-66267189D01*
X64049151Y-65956120D01*
X63500000Y-65846887D01*
X62950849Y-65956120D01*
X62485302Y-66267189D01*
X62230000Y-66649275D01*
X61974698Y-66267189D01*
X61509151Y-65956120D01*
X60960000Y-65846887D01*
X60410849Y-65956120D01*
X59945302Y-66267189D01*
X59848899Y-66411465D01*
X59823162Y-66274683D01*
X59684090Y-66058559D01*
X59471890Y-65913569D01*
X59220000Y-65862560D01*
X57620000Y-65862560D01*
X57384683Y-65906838D01*
X57168559Y-66045910D01*
X57023569Y-66258110D01*
X56972560Y-66510000D01*
X56972560Y-68110000D01*
X57016838Y-68345317D01*
X57155910Y-68561441D01*
X57285000Y-68649644D01*
X57285000Y-72797233D01*
X57135014Y-73021703D01*
X57032389Y-72804866D01*
X56617423Y-72428959D01*
X56229039Y-72268096D01*
X56007000Y-72390085D01*
X56007000Y-73533000D01*
X56027000Y-73533000D01*
X56027000Y-73787000D01*
X56007000Y-73787000D01*
X56007000Y-74929915D01*
X56229039Y-75051904D01*
X56617423Y-74891041D01*
X57032389Y-74515134D01*
X57135014Y-74298297D01*
X57405302Y-74702811D01*
X57870849Y-75013880D01*
X58420000Y-75123113D01*
X58969151Y-75013880D01*
X59434698Y-74702811D01*
X59690000Y-74320725D01*
X59945302Y-74702811D01*
X60410849Y-75013880D01*
X60960000Y-75123113D01*
X61509151Y-75013880D01*
X61974698Y-74702811D01*
X62230000Y-74320725D01*
X62485302Y-74702811D01*
X62950849Y-75013880D01*
X63500000Y-75123113D01*
X64049151Y-75013880D01*
X64514698Y-74702811D01*
X64770000Y-74320725D01*
X65025302Y-74702811D01*
X65490849Y-75013880D01*
X66040000Y-75123113D01*
X66589151Y-75013880D01*
X67054698Y-74702811D01*
X67310000Y-74320725D01*
X67565302Y-74702811D01*
X68030849Y-75013880D01*
X68580000Y-75123113D01*
X69129151Y-75013880D01*
X69594698Y-74702811D01*
X69850000Y-74320725D01*
X70105302Y-74702811D01*
X70570849Y-75013880D01*
X71120000Y-75123113D01*
X71669151Y-75013880D01*
X72134698Y-74702811D01*
X72390000Y-74320725D01*
X72645302Y-74702811D01*
X73110849Y-75013880D01*
X73660000Y-75123113D01*
X74209151Y-75013880D01*
X74674698Y-74702811D01*
X74771101Y-74558535D01*
X74796838Y-74695317D01*
X74935910Y-74911441D01*
X75148110Y-75056431D01*
X75400000Y-75107440D01*
X77000000Y-75107440D01*
X77235317Y-75063162D01*
X77451441Y-74924090D01*
X77596431Y-74711890D01*
X77647440Y-74460000D01*
X77647440Y-72860000D01*
X77603162Y-72624683D01*
X77464090Y-72408559D01*
X77335000Y-72320356D01*
X77335000Y-68172767D01*
X77470000Y-67970725D01*
X77725302Y-68352811D01*
X78190849Y-68663880D01*
X78740000Y-68773113D01*
X79289151Y-68663880D01*
X79754698Y-68352811D01*
X80024986Y-67948297D01*
X80127611Y-68165134D01*
X80542577Y-68541041D01*
X80930961Y-68701904D01*
X81153000Y-68579915D01*
X81153000Y-67437000D01*
X81133000Y-67437000D01*
X81133000Y-67183000D01*
X81153000Y-67183000D01*
X81153000Y-67163000D01*
X81407000Y-67163000D01*
X81407000Y-67183000D01*
X81427000Y-67183000D01*
X81427000Y-67437000D01*
X81407000Y-67437000D01*
X81407000Y-68579915D01*
X81629039Y-68701904D01*
X82017423Y-68541041D01*
X82432389Y-68165134D01*
X82535014Y-67948297D01*
X82805302Y-68352811D01*
X83270849Y-68663880D01*
X83820000Y-68773113D01*
X84369151Y-68663880D01*
X84834698Y-68352811D01*
X85090000Y-67970725D01*
X85225000Y-68172767D01*
X85225000Y-72238808D01*
X85058559Y-72345910D01*
X84913569Y-72558110D01*
X84862560Y-72810000D01*
X84862560Y-74510000D01*
X84906838Y-74745317D01*
X85045910Y-74961441D01*
X85258110Y-75106431D01*
X85510000Y-75157440D01*
X87210000Y-75157440D01*
X87445317Y-75113162D01*
X87661441Y-74974090D01*
X87806431Y-74761890D01*
X87820086Y-74694459D01*
X87849946Y-74739147D01*
X88331715Y-75061054D01*
X88900000Y-75174093D01*
X89468285Y-75061054D01*
X89950054Y-74739147D01*
X90271961Y-74257378D01*
X90385000Y-73689093D01*
X90385000Y-73630907D01*
X90271961Y-73062622D01*
X90035000Y-72707984D01*
X90035000Y-68172767D01*
X90170000Y-67970725D01*
X90425302Y-68352811D01*
X90890849Y-68663880D01*
X91440000Y-68773113D01*
X91989151Y-68663880D01*
X92454698Y-68352811D01*
X92765767Y-67887264D01*
X92875000Y-67338113D01*
X92875000Y-67281887D01*
X92765767Y-66732736D01*
X92454698Y-66267189D01*
X91989151Y-65956120D01*
X91440000Y-65846887D01*
X90890849Y-65956120D01*
X90425302Y-66267189D01*
X90170000Y-66649275D01*
X89914698Y-66267189D01*
X89449151Y-65956120D01*
X88900000Y-65846887D01*
X88350849Y-65956120D01*
X87885302Y-66267189D01*
X87630000Y-66649275D01*
X87374698Y-66267189D01*
X86909151Y-65956120D01*
X86360000Y-65846887D01*
X85810849Y-65956120D01*
X85345302Y-66267189D01*
X85090000Y-66649275D01*
X84834698Y-66267189D01*
X84369151Y-65956120D01*
X83820000Y-65846887D01*
X83270849Y-65956120D01*
X82805302Y-66267189D01*
X82535014Y-66671703D01*
X82432389Y-66454866D01*
X82017423Y-66078959D01*
X81629039Y-65918096D01*
X81476399Y-66001957D01*
X84534178Y-62944178D01*
X84753118Y-62616510D01*
X84830000Y-62230000D01*
X84830000Y-60735950D01*
X84834698Y-60732811D01*
X85104986Y-60328297D01*
X85207611Y-60545134D01*
X85622577Y-60921041D01*
X86010961Y-61081904D01*
X86233000Y-60959915D01*
X86233000Y-59817000D01*
X86487000Y-59817000D01*
X86487000Y-60959915D01*
X86709039Y-61081904D01*
X87097423Y-60921041D01*
X87512389Y-60545134D01*
X87630000Y-60296633D01*
X87747611Y-60545134D01*
X88162577Y-60921041D01*
X88550961Y-61081904D01*
X88773000Y-60959915D01*
X88773000Y-59817000D01*
X89027000Y-59817000D01*
X89027000Y-60959915D01*
X89249039Y-61081904D01*
X89637423Y-60921041D01*
X90052389Y-60545134D01*
X90170000Y-60296633D01*
X90287611Y-60545134D01*
X90702577Y-60921041D01*
X91090961Y-61081904D01*
X91313000Y-60959915D01*
X91313000Y-59817000D01*
X91567000Y-59817000D01*
X91567000Y-60959915D01*
X91789039Y-61081904D01*
X92177423Y-60921041D01*
X92592389Y-60545134D01*
X92831914Y-60039041D01*
X92710629Y-59817000D01*
X91567000Y-59817000D01*
X91313000Y-59817000D01*
X89027000Y-59817000D01*
X88773000Y-59817000D01*
X86487000Y-59817000D01*
X86233000Y-59817000D01*
X86213000Y-59817000D01*
X86213000Y-59563000D01*
X86233000Y-59563000D01*
X86233000Y-58420085D01*
X86487000Y-58420085D01*
X86487000Y-59563000D01*
X88773000Y-59563000D01*
X88773000Y-58420085D01*
X89027000Y-58420085D01*
X89027000Y-59563000D01*
X91313000Y-59563000D01*
X91313000Y-58420085D01*
X91567000Y-58420085D01*
X91567000Y-59563000D01*
X92710629Y-59563000D01*
X92831914Y-59340959D01*
X92592389Y-58834866D01*
X92177423Y-58458959D01*
X91789039Y-58298096D01*
X91567000Y-58420085D01*
X91313000Y-58420085D01*
X91090961Y-58298096D01*
X90702577Y-58458959D01*
X90287611Y-58834866D01*
X90170000Y-59083367D01*
X90052389Y-58834866D01*
X89637423Y-58458959D01*
X89249039Y-58298096D01*
X89027000Y-58420085D01*
X88773000Y-58420085D01*
X88550961Y-58298096D01*
X88162577Y-58458959D01*
X87747611Y-58834866D01*
X87630000Y-59083367D01*
X87512389Y-58834866D01*
X87097423Y-58458959D01*
X86709039Y-58298096D01*
X86487000Y-58420085D01*
X86233000Y-58420085D01*
X86010961Y-58298096D01*
X85622577Y-58458959D01*
X85207611Y-58834866D01*
X85104986Y-59051703D01*
X84834698Y-58647189D01*
X84830000Y-58644050D01*
X84830000Y-55880000D01*
X100085907Y-55880000D01*
X100198946Y-56448285D01*
X100520853Y-56930054D01*
X100850026Y-57150000D01*
X100520853Y-57369946D01*
X100198946Y-57851715D01*
X100085907Y-58420000D01*
X100198946Y-58988285D01*
X100520853Y-59470054D01*
X100850026Y-59690000D01*
X100520853Y-59909946D01*
X100198946Y-60391715D01*
X100085907Y-60960000D01*
X100198946Y-61528285D01*
X100520853Y-62010054D01*
X100850026Y-62230000D01*
X100520853Y-62449946D01*
X100198946Y-62931715D01*
X100085907Y-63500000D01*
X100198946Y-64068285D01*
X100520853Y-64550054D01*
X100850026Y-64770000D01*
X100520853Y-64989946D01*
X100198946Y-65471715D01*
X100085907Y-66040000D01*
X100198946Y-66608285D01*
X100520853Y-67090054D01*
X100850026Y-67310000D01*
X100520853Y-67529946D01*
X100198946Y-68011715D01*
X100085907Y-68580000D01*
X100198946Y-69148285D01*
X100520853Y-69630054D01*
X100850026Y-69850000D01*
X100520853Y-70069946D01*
X100198946Y-70551715D01*
X100085907Y-71120000D01*
X100198946Y-71688285D01*
X100520853Y-72170054D01*
X101002622Y-72491961D01*
X101570907Y-72605000D01*
X101629093Y-72605000D01*
X102197378Y-72491961D01*
X102552016Y-72255000D01*
X108357233Y-72255000D01*
X108642736Y-72445767D01*
X109191887Y-72555000D01*
X109248113Y-72555000D01*
X109797264Y-72445767D01*
X110262811Y-72134698D01*
X110573880Y-71669151D01*
X110683113Y-71120000D01*
X110573880Y-70570849D01*
X110262811Y-70105302D01*
X109880725Y-69850000D01*
X110262811Y-69594698D01*
X110573880Y-69129151D01*
X110683113Y-68580000D01*
X110573880Y-68030849D01*
X110262811Y-67565302D01*
X109880725Y-67310000D01*
X110262811Y-67054698D01*
X110573880Y-66589151D01*
X110683113Y-66040000D01*
X110573880Y-65490849D01*
X110262811Y-65025302D01*
X109880725Y-64770000D01*
X110262811Y-64514698D01*
X110573880Y-64049151D01*
X110683113Y-63500000D01*
X110573880Y-62950849D01*
X110262811Y-62485302D01*
X109880725Y-62230000D01*
X110262811Y-61974698D01*
X110573880Y-61509151D01*
X110683113Y-60960000D01*
X110573880Y-60410849D01*
X110262811Y-59945302D01*
X109880725Y-59690000D01*
X110262811Y-59434698D01*
X110573880Y-58969151D01*
X110683113Y-58420000D01*
X110573880Y-57870849D01*
X110262811Y-57405302D01*
X109880725Y-57150000D01*
X110262811Y-56894698D01*
X110573880Y-56429151D01*
X110683113Y-55880000D01*
X110573880Y-55330849D01*
X110262811Y-54865302D01*
X110118535Y-54768899D01*
X110255317Y-54743162D01*
X110471441Y-54604090D01*
X110616431Y-54391890D01*
X110667440Y-54140000D01*
X110667440Y-52540000D01*
X110623162Y-52304683D01*
X110484090Y-52088559D01*
X110271890Y-51943569D01*
X110020000Y-51892560D01*
X108420000Y-51892560D01*
X108184683Y-51936838D01*
X107968559Y-52075910D01*
X107880356Y-52205000D01*
X103021192Y-52205000D01*
X102914090Y-52038559D01*
X102701890Y-51893569D01*
X102450000Y-51842560D01*
X100750000Y-51842560D01*
X100514683Y-51886838D01*
X100298559Y-52025910D01*
X100153569Y-52238110D01*
X100102560Y-52490000D01*
X100102560Y-54190000D01*
X100146838Y-54425317D01*
X100285910Y-54641441D01*
X100498110Y-54786431D01*
X100565541Y-54800086D01*
X100520853Y-54829946D01*
X100198946Y-55311715D01*
X100085907Y-55880000D01*
X84830000Y-55880000D01*
X84830000Y-50800000D01*
X84753118Y-50413490D01*
X84534178Y-50085822D01*
X81178356Y-46730000D01*
X85090000Y-46730000D01*
X85476510Y-46653118D01*
X85804178Y-46434178D01*
X92657927Y-39580429D01*
X92680907Y-39585000D01*
X92739093Y-39585000D01*
X92762073Y-39580429D01*
X98345822Y-45164178D01*
X98673490Y-45383118D01*
X99060000Y-45460000D01*
X105634050Y-45460000D01*
X105637189Y-45464698D01*
X106102736Y-45775767D01*
X106651887Y-45885000D01*
X106708113Y-45885000D01*
X107257264Y-45775767D01*
X107611031Y-45539387D01*
X115382654Y-53311010D01*
X115376887Y-53340000D01*
X115486120Y-53889151D01*
X115797189Y-54354698D01*
X115830000Y-54376622D01*
X115830000Y-54843378D01*
X115797189Y-54865302D01*
X115486120Y-55330849D01*
X115376887Y-55880000D01*
X115382654Y-55908990D01*
X112315822Y-58975822D01*
X112096882Y-59303490D01*
X112020000Y-59690000D01*
X112020000Y-74930000D01*
X112096882Y-75316510D01*
X112315822Y-75644178D01*
X116125822Y-79454178D01*
X116453490Y-79673118D01*
X116840000Y-79750000D01*
X120452666Y-79750000D01*
X120466838Y-79825317D01*
X120605910Y-80041441D01*
X120818110Y-80186431D01*
X121070000Y-80237440D01*
X122770000Y-80237440D01*
X123005317Y-80193162D01*
X123221441Y-80054090D01*
X123366431Y-79841890D01*
X123417440Y-79590000D01*
X123417440Y-77890000D01*
X123373162Y-77654683D01*
X123234090Y-77438559D01*
X123021890Y-77293569D01*
X122770000Y-77242560D01*
X121070000Y-77242560D01*
X120834683Y-77286838D01*
X120618559Y-77425910D01*
X120473569Y-77638110D01*
X120454961Y-77730000D01*
X117258356Y-77730000D01*
X114040000Y-74511644D01*
X114040000Y-71469039D01*
X115448096Y-71469039D01*
X115608959Y-71857423D01*
X115984866Y-72272389D01*
X116490959Y-72511914D01*
X116713000Y-72390629D01*
X116713000Y-71247000D01*
X116967000Y-71247000D01*
X116967000Y-72390629D01*
X117189041Y-72511914D01*
X117695134Y-72272389D01*
X118071041Y-71857423D01*
X118231904Y-71469039D01*
X118109915Y-71247000D01*
X116967000Y-71247000D01*
X116713000Y-71247000D01*
X115570085Y-71247000D01*
X115448096Y-71469039D01*
X114040000Y-71469039D01*
X114040000Y-60108356D01*
X115531957Y-58616399D01*
X115448096Y-58769039D01*
X115608959Y-59157423D01*
X115984866Y-59572389D01*
X116201703Y-59675014D01*
X115797189Y-59945302D01*
X115486120Y-60410849D01*
X115376887Y-60960000D01*
X115486120Y-61509151D01*
X115797189Y-61974698D01*
X116179275Y-62230000D01*
X115797189Y-62485302D01*
X115486120Y-62950849D01*
X115376887Y-63500000D01*
X115486120Y-64049151D01*
X115797189Y-64514698D01*
X116179275Y-64770000D01*
X115797189Y-65025302D01*
X115486120Y-65490849D01*
X115376887Y-66040000D01*
X115486120Y-66589151D01*
X115797189Y-67054698D01*
X116179275Y-67310000D01*
X115797189Y-67565302D01*
X115486120Y-68030849D01*
X115376887Y-68580000D01*
X115486120Y-69129151D01*
X115797189Y-69594698D01*
X116201703Y-69864986D01*
X115984866Y-69967611D01*
X115608959Y-70382577D01*
X115448096Y-70770961D01*
X115570085Y-70993000D01*
X116713000Y-70993000D01*
X116713000Y-70973000D01*
X116967000Y-70973000D01*
X116967000Y-70993000D01*
X118109915Y-70993000D01*
X118231904Y-70770961D01*
X118071041Y-70382577D01*
X117695134Y-69967611D01*
X117478297Y-69864986D01*
X117702767Y-69715000D01*
X122237984Y-69715000D01*
X122592622Y-69951961D01*
X123160907Y-70065000D01*
X123219093Y-70065000D01*
X123787378Y-69951961D01*
X124269147Y-69630054D01*
X124591054Y-69148285D01*
X124704093Y-68580000D01*
X124591054Y-68011715D01*
X124269147Y-67529946D01*
X123939974Y-67310000D01*
X124269147Y-67090054D01*
X124591054Y-66608285D01*
X124704093Y-66040000D01*
X124591054Y-65471715D01*
X124269147Y-64989946D01*
X123939974Y-64770000D01*
X124269147Y-64550054D01*
X124591054Y-64068285D01*
X124704093Y-63500000D01*
X124591054Y-62931715D01*
X124269147Y-62449946D01*
X124227548Y-62422150D01*
X124275317Y-62413162D01*
X124491441Y-62274090D01*
X124636431Y-62061890D01*
X124687440Y-61810000D01*
X124687440Y-60110000D01*
X124643162Y-59874683D01*
X124504090Y-59658559D01*
X124291890Y-59513569D01*
X124040000Y-59462560D01*
X122340000Y-59462560D01*
X122104683Y-59506838D01*
X121888559Y-59645910D01*
X121766192Y-59825000D01*
X117702767Y-59825000D01*
X117478297Y-59675014D01*
X117695134Y-59572389D01*
X118071041Y-59157423D01*
X118231904Y-58769039D01*
X118109915Y-58547000D01*
X116967000Y-58547000D01*
X116967000Y-58567000D01*
X116713000Y-58567000D01*
X116713000Y-58547000D01*
X116693000Y-58547000D01*
X116693000Y-58293000D01*
X116713000Y-58293000D01*
X116713000Y-58273000D01*
X116967000Y-58273000D01*
X116967000Y-58293000D01*
X118109915Y-58293000D01*
X118231904Y-58070961D01*
X118071041Y-57682577D01*
X117695134Y-57267611D01*
X117478297Y-57164986D01*
X117882811Y-56894698D01*
X118093085Y-56580000D01*
X137400715Y-56580000D01*
X137400715Y-62950000D01*
X180099285Y-62950000D01*
X180099285Y-56580000D01*
X137400715Y-56580000D01*
X118093085Y-56580000D01*
X118193880Y-56429151D01*
X118303113Y-55880000D01*
X118193880Y-55330849D01*
X117882811Y-54865302D01*
X117850000Y-54843378D01*
X117850000Y-54376622D01*
X117882811Y-54354698D01*
X118193880Y-53889151D01*
X118303113Y-53340000D01*
X118193880Y-52790849D01*
X117882811Y-52325302D01*
X117417264Y-52014233D01*
X116868113Y-51905000D01*
X116833356Y-51905000D01*
X108664178Y-43735822D01*
X108336510Y-43516882D01*
X107950000Y-43440000D01*
X107725950Y-43440000D01*
X107722811Y-43435302D01*
X107690000Y-43413378D01*
X107690000Y-40640000D01*
X107613118Y-40253490D01*
X107613118Y-40253489D01*
X107394178Y-39925822D01*
X105568356Y-38100000D01*
X107731245Y-35937111D01*
X107722560Y-35980000D01*
X107722560Y-37680000D01*
X107766838Y-37915317D01*
X107905910Y-38131441D01*
X108118110Y-38276431D01*
X108370000Y-38327440D01*
X110070000Y-38327440D01*
X110305317Y-38283162D01*
X110521441Y-38144090D01*
X110666431Y-37931890D01*
X110680086Y-37864459D01*
X110709946Y-37909147D01*
X111191715Y-38231054D01*
X111760000Y-38344093D01*
X112328285Y-38231054D01*
X112810054Y-37909147D01*
X112856256Y-37840000D01*
X113203744Y-37840000D01*
X113249946Y-37909147D01*
X113731715Y-38231054D01*
X114300000Y-38344093D01*
X114868285Y-38231054D01*
X115350054Y-37909147D01*
X115396256Y-37840000D01*
X115743744Y-37840000D01*
X115789946Y-37909147D01*
X116271715Y-38231054D01*
X116840000Y-38344093D01*
X117408285Y-38231054D01*
X117890054Y-37909147D01*
X117936256Y-37840000D01*
X118283744Y-37840000D01*
X118329946Y-37909147D01*
X118811715Y-38231054D01*
X119380000Y-38344093D01*
X119948285Y-38231054D01*
X120430054Y-37909147D01*
X120476256Y-37840000D01*
X120823744Y-37840000D01*
X120869946Y-37909147D01*
X120910000Y-37935910D01*
X120910000Y-43430612D01*
X120704176Y-43636077D01*
X120485250Y-44163309D01*
X120484752Y-44734187D01*
X120702757Y-45261800D01*
X121106077Y-45665824D01*
X121633309Y-45884750D01*
X122204187Y-45885248D01*
X122731800Y-45667243D01*
X123135824Y-45263923D01*
X123354750Y-44736691D01*
X123355248Y-44165813D01*
X123137243Y-43638200D01*
X122930000Y-43430595D01*
X122930000Y-37935910D01*
X122970054Y-37909147D01*
X123016256Y-37840000D01*
X125730000Y-37840000D01*
X126116510Y-37763118D01*
X126444178Y-37544178D01*
X126663118Y-37216510D01*
X126740000Y-36830000D01*
X126740000Y-32192619D01*
X133654613Y-32192619D01*
X133994155Y-33014372D01*
X134622321Y-33643636D01*
X135443481Y-33984611D01*
X136332619Y-33985387D01*
X137154372Y-33645845D01*
X137783636Y-33017679D01*
X138124611Y-32196519D01*
X138124614Y-32192619D01*
X183184613Y-32192619D01*
X183524155Y-33014372D01*
X184152321Y-33643636D01*
X184973481Y-33984611D01*
X185862619Y-33985387D01*
X186684372Y-33645845D01*
X187313636Y-33017679D01*
X187654611Y-32196519D01*
X187655387Y-31307381D01*
X187315845Y-30485628D01*
X186687679Y-29856364D01*
X186197006Y-29652619D01*
X188264613Y-29652619D01*
X188604155Y-30474372D01*
X189232321Y-31103636D01*
X190053481Y-31444611D01*
X190942619Y-31445387D01*
X191764372Y-31105845D01*
X192393636Y-30477679D01*
X192734611Y-29656519D01*
X192735387Y-28767381D01*
X192395845Y-27945628D01*
X191767679Y-27316364D01*
X190946519Y-26975389D01*
X190057381Y-26974613D01*
X189235628Y-27314155D01*
X188606364Y-27942321D01*
X188265389Y-28763481D01*
X188264613Y-29652619D01*
X186197006Y-29652619D01*
X185866519Y-29515389D01*
X184977381Y-29514613D01*
X184155628Y-29854155D01*
X183526364Y-30482321D01*
X183185389Y-31303481D01*
X183184613Y-32192619D01*
X138124614Y-32192619D01*
X138125387Y-31307381D01*
X137785845Y-30485628D01*
X137157679Y-29856364D01*
X136336519Y-29515389D01*
X135447381Y-29514613D01*
X134625628Y-29854155D01*
X133996364Y-30482321D01*
X133655389Y-31303481D01*
X133654613Y-32192619D01*
X126740000Y-32192619D01*
X126740000Y-30480000D01*
X126663118Y-30093490D01*
X126444178Y-29765822D01*
X126116510Y-29546882D01*
X125730000Y-29470000D01*
X102870000Y-29470000D01*
X102483490Y-29546882D01*
X102155822Y-29765822D01*
X101936882Y-30093490D01*
X101860000Y-30480000D01*
X101860000Y-36302686D01*
X101735197Y-36603244D01*
X101734803Y-37054775D01*
X101752689Y-37098061D01*
X101727000Y-37123750D01*
X101727000Y-37973000D01*
X102576250Y-37973000D01*
X102601698Y-37947552D01*
X102643244Y-37964803D01*
X103005117Y-37965119D01*
X103004803Y-38324775D01*
X103177233Y-38742086D01*
X103496235Y-39061645D01*
X103799015Y-39187371D01*
X105670000Y-41058356D01*
X105670000Y-43413378D01*
X105637189Y-43435302D01*
X105634050Y-43440000D01*
X99478356Y-43440000D01*
X94424106Y-38385750D01*
X100465000Y-38385750D01*
X100465000Y-38726309D01*
X100561673Y-38959698D01*
X100740301Y-39138327D01*
X100973690Y-39235000D01*
X101314250Y-39235000D01*
X101473000Y-39076250D01*
X101473000Y-38227000D01*
X101727000Y-38227000D01*
X101727000Y-39076250D01*
X101885750Y-39235000D01*
X102226310Y-39235000D01*
X102459699Y-39138327D01*
X102638327Y-38959698D01*
X102735000Y-38726309D01*
X102735000Y-38385750D01*
X102576250Y-38227000D01*
X101727000Y-38227000D01*
X101473000Y-38227000D01*
X100623750Y-38227000D01*
X100465000Y-38385750D01*
X94424106Y-38385750D01*
X94209868Y-38171512D01*
X94224093Y-38100000D01*
X94111054Y-37531715D01*
X94072284Y-37473691D01*
X100465000Y-37473691D01*
X100465000Y-37814250D01*
X100623750Y-37973000D01*
X101473000Y-37973000D01*
X101473000Y-37123750D01*
X101314250Y-36965000D01*
X100973690Y-36965000D01*
X100740301Y-37061673D01*
X100561673Y-37240302D01*
X100465000Y-37473691D01*
X94072284Y-37473691D01*
X93789147Y-37049946D01*
X93459974Y-36830000D01*
X93789147Y-36610054D01*
X94111054Y-36128285D01*
X94224093Y-35560000D01*
X94111054Y-34991715D01*
X93789147Y-34509946D01*
X93459974Y-34290000D01*
X93789147Y-34070054D01*
X94111054Y-33588285D01*
X94224093Y-33020000D01*
X94111054Y-32451715D01*
X93789147Y-31969946D01*
X93745223Y-31940597D01*
X93919698Y-31868327D01*
X94098327Y-31689699D01*
X94195000Y-31456310D01*
X94195000Y-30765750D01*
X94036250Y-30607000D01*
X92837000Y-30607000D01*
X92837000Y-30627000D01*
X92583000Y-30627000D01*
X92583000Y-30607000D01*
X91383750Y-30607000D01*
X91225000Y-30765750D01*
X91225000Y-31456310D01*
X91321673Y-31689699D01*
X91500302Y-31868327D01*
X91540554Y-31885000D01*
X86511192Y-31885000D01*
X86404090Y-31718559D01*
X86191890Y-31573569D01*
X85940000Y-31522560D01*
X84240000Y-31522560D01*
X84004683Y-31566838D01*
X83788559Y-31705910D01*
X83643569Y-31918110D01*
X83592560Y-32170000D01*
X83592560Y-33870000D01*
X83636838Y-34105317D01*
X83775910Y-34321441D01*
X83988110Y-34466431D01*
X84055541Y-34480086D01*
X84010853Y-34509946D01*
X83688946Y-34991715D01*
X83575907Y-35560000D01*
X83688946Y-36128285D01*
X84010853Y-36610054D01*
X84492622Y-36931961D01*
X85060907Y-37045000D01*
X85119093Y-37045000D01*
X85687378Y-36931961D01*
X86042016Y-36695000D01*
X91757984Y-36695000D01*
X91960026Y-36830000D01*
X91630853Y-37049946D01*
X91308946Y-37531715D01*
X91195907Y-38100000D01*
X91210132Y-38171512D01*
X84671644Y-44710000D01*
X79776622Y-44710000D01*
X79754698Y-44677189D01*
X79289151Y-44366120D01*
X78740000Y-44256887D01*
X78190849Y-44366120D01*
X77725302Y-44677189D01*
X77470000Y-45059275D01*
X77335000Y-44857233D01*
X77335000Y-32702016D01*
X77571961Y-32347378D01*
X77685000Y-31779093D01*
X77685000Y-31720907D01*
X77571961Y-31152622D01*
X77250054Y-30670853D01*
X76768285Y-30348946D01*
X76200000Y-30235907D01*
X75631715Y-30348946D01*
X75149946Y-30670853D01*
X74930000Y-31000026D01*
X74710054Y-30670853D01*
X74228285Y-30348946D01*
X73660000Y-30235907D01*
X73091715Y-30348946D01*
X72609946Y-30670853D01*
X72390000Y-31000026D01*
X72170054Y-30670853D01*
X71688285Y-30348946D01*
X71120000Y-30235907D01*
X70551715Y-30348946D01*
X70069946Y-30670853D01*
X69850000Y-31000026D01*
X69630054Y-30670853D01*
X69148285Y-30348946D01*
X68580000Y-30235907D01*
X68011715Y-30348946D01*
X67529946Y-30670853D01*
X67310000Y-31000026D01*
X67090054Y-30670853D01*
X66608285Y-30348946D01*
X66040000Y-30235907D01*
X65471715Y-30348946D01*
X64989946Y-30670853D01*
X64770000Y-31000026D01*
X64550054Y-30670853D01*
X64068285Y-30348946D01*
X63500000Y-30235907D01*
X62931715Y-30348946D01*
X62449946Y-30670853D01*
X62230000Y-31000026D01*
X62010054Y-30670853D01*
X61528285Y-30348946D01*
X60960000Y-30235907D01*
X60391715Y-30348946D01*
X59909946Y-30670853D01*
X59882150Y-30712452D01*
X59873162Y-30664683D01*
X59734090Y-30448559D01*
X59521890Y-30303569D01*
X59270000Y-30252560D01*
X57570000Y-30252560D01*
X57334683Y-30296838D01*
X57118559Y-30435910D01*
X56973569Y-30648110D01*
X56922560Y-30900000D01*
X56922560Y-32600000D01*
X56966838Y-32835317D01*
X57105910Y-33051441D01*
X57285000Y-33173808D01*
X57285000Y-44857233D01*
X57094233Y-45142736D01*
X56985000Y-45691887D01*
X56985000Y-45748113D01*
X57094233Y-46297264D01*
X57405302Y-46762811D01*
X57870849Y-47073880D01*
X58420000Y-47183113D01*
X58969151Y-47073880D01*
X59434698Y-46762811D01*
X59690000Y-46380725D01*
X59945302Y-46762811D01*
X60410849Y-47073880D01*
X60960000Y-47183113D01*
X61509151Y-47073880D01*
X61974698Y-46762811D01*
X62230000Y-46380725D01*
X62485302Y-46762811D01*
X62950849Y-47073880D01*
X63500000Y-47183113D01*
X64049151Y-47073880D01*
X64514698Y-46762811D01*
X64770000Y-46380725D01*
X65025302Y-46762811D01*
X65490849Y-47073880D01*
X66040000Y-47183113D01*
X66589151Y-47073880D01*
X67054698Y-46762811D01*
X67310000Y-46380725D01*
X67565302Y-46762811D01*
X68030849Y-47073880D01*
X68580000Y-47183113D01*
X69129151Y-47073880D01*
X69594698Y-46762811D01*
X69850000Y-46380725D01*
X70105302Y-46762811D01*
X70570849Y-47073880D01*
X71120000Y-47183113D01*
X71669151Y-47073880D01*
X72134698Y-46762811D01*
X72390000Y-46380725D01*
X72645302Y-46762811D01*
X73110849Y-47073880D01*
X73660000Y-47183113D01*
X74209151Y-47073880D01*
X74674698Y-46762811D01*
X74930000Y-46380725D01*
X75185302Y-46762811D01*
X75650849Y-47073880D01*
X76200000Y-47183113D01*
X76749151Y-47073880D01*
X77214698Y-46762811D01*
X77470000Y-46380725D01*
X77725302Y-46762811D01*
X78190849Y-47073880D01*
X78740000Y-47183113D01*
X78768990Y-47177346D01*
X82810000Y-51218356D01*
X82810000Y-58644050D01*
X82805302Y-58647189D01*
X82550000Y-59029275D01*
X82294698Y-58647189D01*
X81829151Y-58336120D01*
X81280000Y-58226887D01*
X80730849Y-58336120D01*
X80265302Y-58647189D01*
X80010000Y-59029275D01*
X79754698Y-58647189D01*
X79289151Y-58336120D01*
X78740000Y-58226887D01*
X78190849Y-58336120D01*
X77725302Y-58647189D01*
X77470000Y-59029275D01*
X77335000Y-58827233D01*
X77335000Y-54202767D01*
X77484986Y-53978297D01*
X77587611Y-54195134D01*
X78002577Y-54571041D01*
X78390961Y-54731904D01*
X78613000Y-54609915D01*
X78613000Y-53467000D01*
X78867000Y-53467000D01*
X78867000Y-54609915D01*
X79089039Y-54731904D01*
X79477423Y-54571041D01*
X79892389Y-54195134D01*
X80131914Y-53689041D01*
X80010629Y-53467000D01*
X78867000Y-53467000D01*
X78613000Y-53467000D01*
X78593000Y-53467000D01*
X78593000Y-53213000D01*
X78613000Y-53213000D01*
X78613000Y-52070085D01*
X78867000Y-52070085D01*
X78867000Y-53213000D01*
X80010629Y-53213000D01*
X80131914Y-52990959D01*
X79892389Y-52484866D01*
X79477423Y-52108959D01*
X79089039Y-51948096D01*
X78867000Y-52070085D01*
X78613000Y-52070085D01*
X78390961Y-51948096D01*
X78002577Y-52108959D01*
X77587611Y-52484866D01*
X77484986Y-52701703D01*
X77214698Y-52297189D01*
X76749151Y-51986120D01*
X76200000Y-51876887D01*
X75650849Y-51986120D01*
X75185302Y-52297189D01*
X74930000Y-52679275D01*
X74674698Y-52297189D01*
X74209151Y-51986120D01*
X73660000Y-51876887D01*
X73110849Y-51986120D01*
X72645302Y-52297189D01*
X72390000Y-52679275D01*
X72134698Y-52297189D01*
X71669151Y-51986120D01*
X71120000Y-51876887D01*
X70570849Y-51986120D01*
X70105302Y-52297189D01*
X69850000Y-52679275D01*
X69594698Y-52297189D01*
X69129151Y-51986120D01*
X68580000Y-51876887D01*
X68030849Y-51986120D01*
X67565302Y-52297189D01*
X67310000Y-52679275D01*
X67054698Y-52297189D01*
X66589151Y-51986120D01*
X66040000Y-51876887D01*
X65490849Y-51986120D01*
X65025302Y-52297189D01*
X64770000Y-52679275D01*
X64514698Y-52297189D01*
X64049151Y-51986120D01*
X63500000Y-51876887D01*
X62950849Y-51986120D01*
X62485302Y-52297189D01*
X62230000Y-52679275D01*
X61974698Y-52297189D01*
X61509151Y-51986120D01*
X60960000Y-51876887D01*
X60410849Y-51986120D01*
X59945302Y-52297189D01*
X59848899Y-52441465D01*
X59823162Y-52304683D01*
X59684090Y-52088559D01*
X59471890Y-51943569D01*
X59220000Y-51892560D01*
X57620000Y-51892560D01*
X57384683Y-51936838D01*
X57168559Y-52075910D01*
X57023569Y-52288110D01*
X56972560Y-52540000D01*
X56972560Y-54140000D01*
X57016838Y-54375317D01*
X57155910Y-54591441D01*
X57285000Y-54679644D01*
X57285000Y-58827233D01*
X57094233Y-59112736D01*
X56985000Y-59661887D01*
X56985000Y-59718113D01*
X57094233Y-60267264D01*
X57405302Y-60732811D01*
X57870849Y-61043880D01*
X58420000Y-61153113D01*
X58969151Y-61043880D01*
X59434698Y-60732811D01*
X59690000Y-60350725D01*
X59945302Y-60732811D01*
X60410849Y-61043880D01*
X60960000Y-61153113D01*
X61509151Y-61043880D01*
X61974698Y-60732811D01*
X62230000Y-60350725D01*
X62485302Y-60732811D01*
X62950849Y-61043880D01*
X63500000Y-61153113D01*
X64049151Y-61043880D01*
X64514698Y-60732811D01*
X64770000Y-60350725D01*
X65025302Y-60732811D01*
X65490849Y-61043880D01*
X66040000Y-61153113D01*
X66589151Y-61043880D01*
X67054698Y-60732811D01*
X67310000Y-60350725D01*
X67565302Y-60732811D01*
X68030849Y-61043880D01*
X68580000Y-61153113D01*
X69129151Y-61043880D01*
X69594698Y-60732811D01*
X69850000Y-60350725D01*
X70105302Y-60732811D01*
X70570849Y-61043880D01*
X71120000Y-61153113D01*
X71669151Y-61043880D01*
X72134698Y-60732811D01*
X72390000Y-60350725D01*
X72645302Y-60732811D01*
X73110849Y-61043880D01*
X73660000Y-61153113D01*
X74209151Y-61043880D01*
X74674698Y-60732811D01*
X74930000Y-60350725D01*
X75185302Y-60732811D01*
X75650849Y-61043880D01*
X76200000Y-61153113D01*
X76749151Y-61043880D01*
X77214698Y-60732811D01*
X77470000Y-60350725D01*
X77725302Y-60732811D01*
X78190849Y-61043880D01*
X78740000Y-61153113D01*
X79289151Y-61043880D01*
X79754698Y-60732811D01*
X80010000Y-60350725D01*
X80265302Y-60732811D01*
X80730849Y-61043880D01*
X81280000Y-61153113D01*
X81829151Y-61043880D01*
X82294698Y-60732811D01*
X82550000Y-60350725D01*
X82805302Y-60732811D01*
X82810000Y-60735950D01*
X82810000Y-61811644D01*
X79750000Y-64871644D01*
X79750000Y-64770000D01*
X79673118Y-64383490D01*
X79454178Y-64055822D01*
X79126510Y-63836882D01*
X78740000Y-63760000D01*
X52070000Y-63760000D01*
X51683490Y-63836882D01*
X51355822Y-64055822D01*
X51136882Y-64383490D01*
X51060000Y-64770000D01*
X45847000Y-64770000D01*
X45847000Y-31190000D01*
X46990000Y-31190000D01*
X47261705Y-31135954D01*
X47356570Y-31072567D01*
X47634155Y-31744372D01*
X48262321Y-32373636D01*
X49083481Y-32714611D01*
X49972619Y-32715387D01*
X50794372Y-32375845D01*
X51423636Y-31747679D01*
X51764611Y-30926519D01*
X51765387Y-30037381D01*
X51544870Y-29503690D01*
X91225000Y-29503690D01*
X91225000Y-30194250D01*
X91383750Y-30353000D01*
X92583000Y-30353000D01*
X92583000Y-29153750D01*
X92837000Y-29153750D01*
X92837000Y-30353000D01*
X94036250Y-30353000D01*
X94195000Y-30194250D01*
X94195000Y-29503690D01*
X94098327Y-29270301D01*
X93919698Y-29091673D01*
X93686309Y-28995000D01*
X92995750Y-28995000D01*
X92837000Y-29153750D01*
X92583000Y-29153750D01*
X92424250Y-28995000D01*
X91733691Y-28995000D01*
X91500302Y-29091673D01*
X91321673Y-29270301D01*
X91225000Y-29503690D01*
X51544870Y-29503690D01*
X51425845Y-29215628D01*
X50797679Y-28586364D01*
X49976519Y-28245389D01*
X49087381Y-28244613D01*
X48265628Y-28584155D01*
X47636364Y-29212321D01*
X47356150Y-29887152D01*
X47261705Y-29824046D01*
X46990000Y-29770000D01*
X45847000Y-29770000D01*
X45847000Y-28225750D01*
X107735000Y-28225750D01*
X107735000Y-28916309D01*
X107831673Y-29149698D01*
X108010301Y-29328327D01*
X108243690Y-29425000D01*
X108934250Y-29425000D01*
X109093000Y-29266250D01*
X109093000Y-28067000D01*
X109347000Y-28067000D01*
X109347000Y-29266250D01*
X109505750Y-29425000D01*
X110196310Y-29425000D01*
X110429699Y-29328327D01*
X110608327Y-29149698D01*
X110695136Y-28940122D01*
X110993076Y-29211645D01*
X111403110Y-29381476D01*
X111633000Y-29260155D01*
X111633000Y-28067000D01*
X111887000Y-28067000D01*
X111887000Y-29260155D01*
X112116890Y-29381476D01*
X112526924Y-29211645D01*
X112955183Y-28821358D01*
X113030000Y-28662046D01*
X113104817Y-28821358D01*
X113533076Y-29211645D01*
X113943110Y-29381476D01*
X114173000Y-29260155D01*
X114173000Y-28067000D01*
X114427000Y-28067000D01*
X114427000Y-29260155D01*
X114656890Y-29381476D01*
X115066924Y-29211645D01*
X115495183Y-28821358D01*
X115570000Y-28662046D01*
X115644817Y-28821358D01*
X116073076Y-29211645D01*
X116483110Y-29381476D01*
X116713000Y-29260155D01*
X116713000Y-28067000D01*
X116967000Y-28067000D01*
X116967000Y-29260155D01*
X117196890Y-29381476D01*
X117606924Y-29211645D01*
X118035183Y-28821358D01*
X118110000Y-28662046D01*
X118184817Y-28821358D01*
X118613076Y-29211645D01*
X119023110Y-29381476D01*
X119253000Y-29260155D01*
X119253000Y-28067000D01*
X119507000Y-28067000D01*
X119507000Y-29260155D01*
X119736890Y-29381476D01*
X120146924Y-29211645D01*
X120575183Y-28821358D01*
X120650000Y-28662046D01*
X120724817Y-28821358D01*
X121153076Y-29211645D01*
X121563110Y-29381476D01*
X121793000Y-29260155D01*
X121793000Y-28067000D01*
X122047000Y-28067000D01*
X122047000Y-29260155D01*
X122276890Y-29381476D01*
X122686924Y-29211645D01*
X123115183Y-28821358D01*
X123361486Y-28296892D01*
X123240819Y-28067000D01*
X122047000Y-28067000D01*
X121793000Y-28067000D01*
X119507000Y-28067000D01*
X119253000Y-28067000D01*
X116967000Y-28067000D01*
X116713000Y-28067000D01*
X114427000Y-28067000D01*
X114173000Y-28067000D01*
X111887000Y-28067000D01*
X111633000Y-28067000D01*
X109347000Y-28067000D01*
X109093000Y-28067000D01*
X107893750Y-28067000D01*
X107735000Y-28225750D01*
X45847000Y-28225750D01*
X45847000Y-26797000D01*
X107804046Y-26797000D01*
X107735000Y-26963691D01*
M02*
