M48
;DRILL file {KiCad 4.0.7} date Monday, 16. July 2018 'u49' 18:49:20
;FORMAT={-:-/ absolute / metric / decimal}
FMAT,2
METRIC,TZ
T1C0.600
T2C0.800
T3C1.000
%
G90
G05
M71
T1
X101.6Y-38.1
X102.87Y-36.83
X104.14Y-38.1
T2
X55.88Y-73.66
X55.88Y-81.28
X58.42Y-45.72
X58.42Y-53.34
X58.42Y-59.69
X58.42Y-67.31
X58.42Y-73.66
X58.42Y-81.28
X60.96Y-45.72
X60.96Y-53.34
X60.96Y-59.69
X60.96Y-67.31
X60.96Y-73.66
X60.96Y-81.28
X63.5Y-45.72
X63.5Y-53.34
X63.5Y-59.69
X63.5Y-67.31
X63.5Y-73.66
X63.5Y-81.28
X66.04Y-45.72
X66.04Y-53.34
X66.04Y-59.69
X66.04Y-67.31
X66.04Y-73.66
X66.04Y-81.28
X68.58Y-45.72
X68.58Y-53.34
X68.58Y-59.69
X68.58Y-67.31
X68.58Y-73.66
X68.58Y-81.28
X71.12Y-45.72
X71.12Y-53.34
X71.12Y-59.69
X71.12Y-67.31
X71.12Y-73.66
X71.12Y-81.28
X73.66Y-45.72
X73.66Y-53.34
X73.66Y-59.69
X73.66Y-67.31
X73.66Y-73.66
X73.66Y-81.28
X76.2Y-45.72
X76.2Y-53.34
X76.2Y-59.69
X76.2Y-67.31
X76.2Y-73.66
X76.2Y-81.28
X78.74Y-45.72
X78.74Y-53.34
X78.74Y-59.69
X78.74Y-67.31
X81.28Y-59.69
X81.28Y-67.31
X83.82Y-59.69
X83.82Y-67.31
X86.36Y-59.69
X86.36Y-67.31
X88.9Y-59.69
X88.9Y-67.31
X91.44Y-59.69
X91.44Y-67.31
X92.71Y-91.44
X92.71Y-93.98
X106.68Y-44.45
X107.95Y-91.44
X107.95Y-93.98
X109.22Y-53.34
X109.22Y-55.88
X109.22Y-58.42
X109.22Y-60.96
X109.22Y-63.5
X109.22Y-66.04
X109.22Y-68.58
X109.22Y-71.12
X116.84Y-53.34
X116.84Y-55.88
X116.84Y-58.42
X116.84Y-60.96
X116.84Y-63.5
X116.84Y-66.04
X116.84Y-68.58
X116.84Y-71.12
X121.92Y-44.45
T3
X58.42Y-31.75
X58.42Y-91.44
X60.96Y-31.75
X60.96Y-91.44
X63.5Y-31.75
X63.5Y-91.44
X66.04Y-31.75
X66.04Y-91.44
X68.58Y-31.75
X68.58Y-91.44
X71.12Y-31.75
X71.12Y-91.44
X73.66Y-31.75
X73.66Y-91.44
X76.2Y-31.75
X76.2Y-91.44
X85.09Y-33.02
X85.09Y-35.56
X86.36Y-73.66
X88.9Y-73.66
X92.71Y-30.48
X92.71Y-33.02
X92.71Y-35.56
X92.71Y-38.1
X92.71Y-83.82
X92.71Y-86.36
X99.06Y-78.74
X101.6Y-53.34
X101.6Y-55.88
X101.6Y-58.42
X101.6Y-60.96
X101.6Y-63.5
X101.6Y-66.04
X101.6Y-68.58
X101.6Y-71.12
X101.6Y-78.74
X104.14Y-78.74
X106.68Y-78.74
X109.22Y-27.94
X109.22Y-33.02
X109.22Y-36.83
X109.22Y-78.74
X111.76Y-27.94
X111.76Y-33.02
X111.76Y-36.83
X111.76Y-78.74
X111.76Y-86.36
X111.76Y-88.9
X111.76Y-91.44
X111.76Y-93.98
X114.3Y-27.94
X114.3Y-33.02
X114.3Y-36.83
X116.84Y-27.94
X116.84Y-33.02
X116.84Y-36.83
X119.38Y-27.94
X119.38Y-33.02
X119.38Y-36.83
X121.92Y-27.94
X121.92Y-33.02
X121.92Y-36.83
X121.92Y-78.74
X121.92Y-86.36
X123.19Y-60.96
X123.19Y-63.5
X123.19Y-66.04
X123.19Y-68.58
T0
M30
