G04 #@! TF.FileFunction,Other,Fab,Top*
%FSLAX46Y46*%
G04 Gerber Fmt 4.6, Leading zero omitted, Abs format (unit mm)*
G04 Created by KiCad (PCBNEW 4.0.7) date Monday, 16. July 2018 'u49' 18:49:17*
%MOMM*%
%LPD*%
G01*
G04 APERTURE LIST*
%ADD10C,0.100000*%
%ADD11C,0.150000*%
G04 APERTURE END LIST*
D10*
D11*
X194310000Y-25400000D02*
X50800000Y-25400000D01*
X44450000Y-25400000D02*
X194310000Y-25400000D01*
X44450000Y-26670000D02*
X44450000Y-25400000D01*
X44450000Y-27940000D02*
X44450000Y-26670000D01*
X44450000Y-97790000D02*
X44450000Y-27940000D01*
X194310000Y-97790000D02*
X44450000Y-97790000D01*
X194310000Y-25400000D02*
X194310000Y-97790000D01*
X45720000Y-30480000D02*
X46990000Y-30480000D01*
D10*
X57150000Y-65675000D02*
X57150000Y-60325000D01*
X57150000Y-60325000D02*
X92710000Y-60325000D01*
X92710000Y-60325000D02*
X92710000Y-66675000D01*
X92710000Y-66675000D02*
X58150000Y-66675000D01*
X58150000Y-66675000D02*
X57150000Y-65675000D01*
X77470000Y-75295000D02*
X77470000Y-80645000D01*
X77470000Y-80645000D02*
X54610000Y-80645000D01*
X54610000Y-80645000D02*
X54610000Y-74295000D01*
X54610000Y-74295000D02*
X76470000Y-74295000D01*
X76470000Y-74295000D02*
X77470000Y-75295000D01*
X57150000Y-51705000D02*
X57150000Y-46355000D01*
X57150000Y-46355000D02*
X80010000Y-46355000D01*
X80010000Y-46355000D02*
X80010000Y-52705000D01*
X80010000Y-52705000D02*
X58150000Y-52705000D01*
X58150000Y-52705000D02*
X57150000Y-51705000D01*
X110855000Y-52070000D02*
X116205000Y-52070000D01*
X116205000Y-52070000D02*
X116205000Y-72390000D01*
X116205000Y-72390000D02*
X109855000Y-72390000D01*
X109855000Y-72390000D02*
X109855000Y-53070000D01*
X109855000Y-53070000D02*
X110855000Y-52070000D01*
X101100000Y-39850000D02*
X104600000Y-39850000D01*
X104623625Y-39853625D02*
G75*
G03X102870000Y-35620000I-1753625J1753625D01*
G01*
X101116375Y-39853625D02*
G75*
G02X102870000Y-35620000I1753625J1753625D01*
G01*
X77470000Y-90805000D02*
X77470000Y-92710000D01*
X77470000Y-92710000D02*
X57150000Y-92710000D01*
X57150000Y-92710000D02*
X57150000Y-90170000D01*
X57150000Y-90170000D02*
X76835000Y-90170000D01*
X76835000Y-90170000D02*
X77470000Y-90805000D01*
X57150000Y-32385000D02*
X57150000Y-30480000D01*
X57150000Y-30480000D02*
X77470000Y-30480000D01*
X77470000Y-30480000D02*
X77470000Y-33020000D01*
X77470000Y-33020000D02*
X57785000Y-33020000D01*
X57785000Y-33020000D02*
X57150000Y-32385000D01*
X121285000Y-77470000D02*
X123190000Y-77470000D01*
X123190000Y-77470000D02*
X123190000Y-80010000D01*
X123190000Y-80010000D02*
X120650000Y-80010000D01*
X120650000Y-80010000D02*
X120650000Y-78105000D01*
X120650000Y-78105000D02*
X121285000Y-77470000D01*
X85090000Y-74295000D02*
X85090000Y-72390000D01*
X85090000Y-72390000D02*
X90170000Y-72390000D01*
X90170000Y-72390000D02*
X90170000Y-74930000D01*
X90170000Y-74930000D02*
X85725000Y-74930000D01*
X85725000Y-74930000D02*
X85090000Y-74295000D01*
X113030000Y-78105000D02*
X113030000Y-80010000D01*
X113030000Y-80010000D02*
X97790000Y-80010000D01*
X97790000Y-80010000D02*
X97790000Y-77470000D01*
X97790000Y-77470000D02*
X112395000Y-77470000D01*
X112395000Y-77470000D02*
X113030000Y-78105000D01*
X107950000Y-33655000D02*
X107950000Y-31750000D01*
X107950000Y-31750000D02*
X123190000Y-31750000D01*
X123190000Y-31750000D02*
X123190000Y-34290000D01*
X123190000Y-34290000D02*
X108585000Y-34290000D01*
X108585000Y-34290000D02*
X107950000Y-33655000D01*
X107950000Y-37465000D02*
X107950000Y-35560000D01*
X107950000Y-35560000D02*
X123190000Y-35560000D01*
X123190000Y-35560000D02*
X123190000Y-38100000D01*
X123190000Y-38100000D02*
X108585000Y-38100000D01*
X108585000Y-38100000D02*
X107950000Y-37465000D01*
X107950000Y-28575000D02*
X107950000Y-26670000D01*
X107950000Y-26670000D02*
X123190000Y-26670000D01*
X123190000Y-26670000D02*
X123190000Y-29210000D01*
X123190000Y-29210000D02*
X108585000Y-29210000D01*
X108585000Y-29210000D02*
X107950000Y-28575000D01*
X122555000Y-59690000D02*
X124460000Y-59690000D01*
X124460000Y-59690000D02*
X124460000Y-69850000D01*
X124460000Y-69850000D02*
X121920000Y-69850000D01*
X121920000Y-69850000D02*
X121920000Y-60325000D01*
X121920000Y-60325000D02*
X122555000Y-59690000D01*
X100965000Y-52070000D02*
X102870000Y-52070000D01*
X102870000Y-52070000D02*
X102870000Y-72390000D01*
X102870000Y-72390000D02*
X100330000Y-72390000D01*
X100330000Y-72390000D02*
X100330000Y-52705000D01*
X100330000Y-52705000D02*
X100965000Y-52070000D01*
X84455000Y-31750000D02*
X86360000Y-31750000D01*
X86360000Y-31750000D02*
X86360000Y-36830000D01*
X86360000Y-36830000D02*
X83820000Y-36830000D01*
X83820000Y-36830000D02*
X83820000Y-32385000D01*
X83820000Y-32385000D02*
X84455000Y-31750000D01*
X91440000Y-29210000D02*
X91440000Y-39370000D01*
X91440000Y-39370000D02*
X93980000Y-39370000D01*
X93980000Y-39370000D02*
X93980000Y-29210000D01*
X93980000Y-29210000D02*
X91440000Y-29210000D01*
X111125000Y-85090000D02*
X113030000Y-85090000D01*
X113030000Y-85090000D02*
X113030000Y-95250000D01*
X113030000Y-95250000D02*
X110490000Y-95250000D01*
X110490000Y-95250000D02*
X110490000Y-85725000D01*
X110490000Y-85725000D02*
X111125000Y-85090000D01*
X92075000Y-82550000D02*
X93980000Y-82550000D01*
X93980000Y-82550000D02*
X93980000Y-87630000D01*
X93980000Y-87630000D02*
X91440000Y-87630000D01*
X91440000Y-87630000D02*
X91440000Y-83185000D01*
X91440000Y-83185000D02*
X92075000Y-82550000D01*
X117450000Y-45700000D02*
X117450000Y-43200000D01*
X117450000Y-43200000D02*
X111150000Y-43200000D01*
X111150000Y-43200000D02*
X111150000Y-45700000D01*
X111150000Y-45700000D02*
X117450000Y-45700000D01*
X121920000Y-44450000D02*
X117450000Y-44450000D01*
X106680000Y-44450000D02*
X111150000Y-44450000D01*
X97180000Y-92730000D02*
X97180000Y-95230000D01*
X97180000Y-95230000D02*
X103480000Y-95230000D01*
X103480000Y-95230000D02*
X103480000Y-92730000D01*
X103480000Y-92730000D02*
X97180000Y-92730000D01*
X92710000Y-93980000D02*
X97180000Y-93980000D01*
X107950000Y-93980000D02*
X103480000Y-93980000D01*
X97180000Y-90190000D02*
X97180000Y-92690000D01*
X97180000Y-92690000D02*
X103480000Y-92690000D01*
X103480000Y-92690000D02*
X103480000Y-90190000D01*
X103480000Y-90190000D02*
X97180000Y-90190000D01*
X92710000Y-91440000D02*
X97180000Y-91440000D01*
X107950000Y-91440000D02*
X103480000Y-91440000D01*
X121285000Y-85090000D02*
X123190000Y-85090000D01*
X123190000Y-85090000D02*
X123190000Y-87630000D01*
X123190000Y-87630000D02*
X120650000Y-87630000D01*
X120650000Y-87630000D02*
X120650000Y-85725000D01*
X120650000Y-85725000D02*
X121285000Y-85090000D01*
D11*
X75382381Y-64476190D02*
X74382381Y-64476190D01*
X75287143Y-63428571D02*
X75334762Y-63476190D01*
X75382381Y-63619047D01*
X75382381Y-63714285D01*
X75334762Y-63857143D01*
X75239524Y-63952381D01*
X75144286Y-64000000D01*
X74953810Y-64047619D01*
X74810952Y-64047619D01*
X74620476Y-64000000D01*
X74525238Y-63952381D01*
X74430000Y-63857143D01*
X74382381Y-63714285D01*
X74382381Y-63619047D01*
X74430000Y-63476190D01*
X74477619Y-63428571D01*
X75382381Y-62476190D02*
X75382381Y-63047619D01*
X75382381Y-62761905D02*
X74382381Y-62761905D01*
X74525238Y-62857143D01*
X74620476Y-62952381D01*
X74668095Y-63047619D01*
X66492381Y-78446190D02*
X65492381Y-78446190D01*
X66397143Y-77398571D02*
X66444762Y-77446190D01*
X66492381Y-77589047D01*
X66492381Y-77684285D01*
X66444762Y-77827143D01*
X66349524Y-77922381D01*
X66254286Y-77970000D01*
X66063810Y-78017619D01*
X65920952Y-78017619D01*
X65730476Y-77970000D01*
X65635238Y-77922381D01*
X65540000Y-77827143D01*
X65492381Y-77684285D01*
X65492381Y-77589047D01*
X65540000Y-77446190D01*
X65587619Y-77398571D01*
X65587619Y-77017619D02*
X65540000Y-76970000D01*
X65492381Y-76874762D01*
X65492381Y-76636666D01*
X65540000Y-76541428D01*
X65587619Y-76493809D01*
X65682857Y-76446190D01*
X65778095Y-76446190D01*
X65920952Y-76493809D01*
X66492381Y-77065238D01*
X66492381Y-76446190D01*
X69032381Y-50506190D02*
X68032381Y-50506190D01*
X68937143Y-49458571D02*
X68984762Y-49506190D01*
X69032381Y-49649047D01*
X69032381Y-49744285D01*
X68984762Y-49887143D01*
X68889524Y-49982381D01*
X68794286Y-50030000D01*
X68603810Y-50077619D01*
X68460952Y-50077619D01*
X68270476Y-50030000D01*
X68175238Y-49982381D01*
X68080000Y-49887143D01*
X68032381Y-49744285D01*
X68032381Y-49649047D01*
X68080000Y-49506190D01*
X68127619Y-49458571D01*
X68032381Y-49125238D02*
X68032381Y-48506190D01*
X68413333Y-48839524D01*
X68413333Y-48696666D01*
X68460952Y-48601428D01*
X68508571Y-48553809D01*
X68603810Y-48506190D01*
X68841905Y-48506190D01*
X68937143Y-48553809D01*
X68984762Y-48601428D01*
X69032381Y-48696666D01*
X69032381Y-48982381D01*
X68984762Y-49077619D01*
X68937143Y-49125238D01*
X112053810Y-62682381D02*
X112053810Y-61682381D01*
X113101429Y-62587143D02*
X113053810Y-62634762D01*
X112910953Y-62682381D01*
X112815715Y-62682381D01*
X112672857Y-62634762D01*
X112577619Y-62539524D01*
X112530000Y-62444286D01*
X112482381Y-62253810D01*
X112482381Y-62110952D01*
X112530000Y-61920476D01*
X112577619Y-61825238D01*
X112672857Y-61730000D01*
X112815715Y-61682381D01*
X112910953Y-61682381D01*
X113053810Y-61730000D01*
X113101429Y-61777619D01*
X113958572Y-62015714D02*
X113958572Y-62682381D01*
X113720476Y-61634762D02*
X113482381Y-62349048D01*
X114101429Y-62349048D01*
X66976667Y-90892381D02*
X66976667Y-91606667D01*
X66929047Y-91749524D01*
X66833809Y-91844762D01*
X66690952Y-91892381D01*
X66595714Y-91892381D01*
X67976667Y-91892381D02*
X67405238Y-91892381D01*
X67690952Y-91892381D02*
X67690952Y-90892381D01*
X67595714Y-91035238D01*
X67500476Y-91130476D01*
X67405238Y-91178095D01*
X66976667Y-31202381D02*
X66976667Y-31916667D01*
X66929047Y-32059524D01*
X66833809Y-32154762D01*
X66690952Y-32202381D01*
X66595714Y-32202381D01*
X67405238Y-31297619D02*
X67452857Y-31250000D01*
X67548095Y-31202381D01*
X67786191Y-31202381D01*
X67881429Y-31250000D01*
X67929048Y-31297619D01*
X67976667Y-31392857D01*
X67976667Y-31488095D01*
X67929048Y-31630952D01*
X67357619Y-32202381D01*
X67976667Y-32202381D01*
X121372381Y-79073333D02*
X122086667Y-79073333D01*
X122229524Y-79120953D01*
X122324762Y-79216191D01*
X122372381Y-79359048D01*
X122372381Y-79454286D01*
X121372381Y-78692381D02*
X121372381Y-78073333D01*
X121753333Y-78406667D01*
X121753333Y-78263809D01*
X121800952Y-78168571D01*
X121848571Y-78120952D01*
X121943810Y-78073333D01*
X122181905Y-78073333D01*
X122277143Y-78120952D01*
X122324762Y-78168571D01*
X122372381Y-78263809D01*
X122372381Y-78549524D01*
X122324762Y-78644762D01*
X122277143Y-78692381D01*
X86820477Y-73112381D02*
X86820477Y-73826667D01*
X86772857Y-73969524D01*
X86677619Y-74064762D01*
X86534762Y-74112381D01*
X86439524Y-74112381D01*
X87820477Y-74112381D02*
X87249048Y-74112381D01*
X87534762Y-74112381D02*
X87534762Y-73112381D01*
X87439524Y-73255238D01*
X87344286Y-73350476D01*
X87249048Y-73398095D01*
X88439524Y-73112381D02*
X88534763Y-73112381D01*
X88630001Y-73160000D01*
X88677620Y-73207619D01*
X88725239Y-73302857D01*
X88772858Y-73493333D01*
X88772858Y-73731429D01*
X88725239Y-73921905D01*
X88677620Y-74017143D01*
X88630001Y-74064762D01*
X88534763Y-74112381D01*
X88439524Y-74112381D01*
X88344286Y-74064762D01*
X88296667Y-74017143D01*
X88249048Y-73921905D01*
X88201429Y-73731429D01*
X88201429Y-73493333D01*
X88249048Y-73302857D01*
X88296667Y-73207619D01*
X88344286Y-73160000D01*
X88439524Y-73112381D01*
X96182381Y-78930476D02*
X96182381Y-79406667D01*
X96658571Y-79454286D01*
X96610952Y-79406667D01*
X96563333Y-79311429D01*
X96563333Y-79073333D01*
X96610952Y-78978095D01*
X96658571Y-78930476D01*
X96753810Y-78882857D01*
X96991905Y-78882857D01*
X97087143Y-78930476D01*
X97134762Y-78978095D01*
X97182381Y-79073333D01*
X97182381Y-79311429D01*
X97134762Y-79406667D01*
X97087143Y-79454286D01*
X96182381Y-78597143D02*
X97182381Y-78263810D01*
X96182381Y-77930476D01*
X104600477Y-78192381D02*
X104600477Y-78906667D01*
X104552857Y-79049524D01*
X104457619Y-79144762D01*
X104314762Y-79192381D01*
X104219524Y-79192381D01*
X105600477Y-79192381D02*
X105029048Y-79192381D01*
X105314762Y-79192381D02*
X105314762Y-78192381D01*
X105219524Y-78335238D01*
X105124286Y-78430476D01*
X105029048Y-78478095D01*
X106505239Y-78192381D02*
X106029048Y-78192381D01*
X105981429Y-78668571D01*
X106029048Y-78620952D01*
X106124286Y-78573333D01*
X106362382Y-78573333D01*
X106457620Y-78620952D01*
X106505239Y-78668571D01*
X106552858Y-78763810D01*
X106552858Y-79001905D01*
X106505239Y-79097143D01*
X106457620Y-79144762D01*
X106362382Y-79192381D01*
X106124286Y-79192381D01*
X106029048Y-79144762D01*
X105981429Y-79097143D01*
X114760477Y-32472381D02*
X114760477Y-33186667D01*
X114712857Y-33329524D01*
X114617619Y-33424762D01*
X114474762Y-33472381D01*
X114379524Y-33472381D01*
X115189048Y-32567619D02*
X115236667Y-32520000D01*
X115331905Y-32472381D01*
X115570001Y-32472381D01*
X115665239Y-32520000D01*
X115712858Y-32567619D01*
X115760477Y-32662857D01*
X115760477Y-32758095D01*
X115712858Y-32900952D01*
X115141429Y-33472381D01*
X115760477Y-33472381D01*
X116379524Y-32472381D02*
X116474763Y-32472381D01*
X116570001Y-32520000D01*
X116617620Y-32567619D01*
X116665239Y-32662857D01*
X116712858Y-32853333D01*
X116712858Y-33091429D01*
X116665239Y-33281905D01*
X116617620Y-33377143D01*
X116570001Y-33424762D01*
X116474763Y-33472381D01*
X116379524Y-33472381D01*
X116284286Y-33424762D01*
X116236667Y-33377143D01*
X116189048Y-33281905D01*
X116141429Y-33091429D01*
X116141429Y-32853333D01*
X116189048Y-32662857D01*
X116236667Y-32567619D01*
X116284286Y-32520000D01*
X116379524Y-32472381D01*
X114760477Y-36282381D02*
X114760477Y-36996667D01*
X114712857Y-37139524D01*
X114617619Y-37234762D01*
X114474762Y-37282381D01*
X114379524Y-37282381D01*
X115189048Y-36377619D02*
X115236667Y-36330000D01*
X115331905Y-36282381D01*
X115570001Y-36282381D01*
X115665239Y-36330000D01*
X115712858Y-36377619D01*
X115760477Y-36472857D01*
X115760477Y-36568095D01*
X115712858Y-36710952D01*
X115141429Y-37282381D01*
X115760477Y-37282381D01*
X116712858Y-37282381D02*
X116141429Y-37282381D01*
X116427143Y-37282381D02*
X116427143Y-36282381D01*
X116331905Y-36425238D01*
X116236667Y-36520476D01*
X116141429Y-36568095D01*
X114760477Y-27392381D02*
X114760477Y-28106667D01*
X114712857Y-28249524D01*
X114617619Y-28344762D01*
X114474762Y-28392381D01*
X114379524Y-28392381D01*
X115189048Y-27487619D02*
X115236667Y-27440000D01*
X115331905Y-27392381D01*
X115570001Y-27392381D01*
X115665239Y-27440000D01*
X115712858Y-27487619D01*
X115760477Y-27582857D01*
X115760477Y-27678095D01*
X115712858Y-27820952D01*
X115141429Y-28392381D01*
X115760477Y-28392381D01*
X116141429Y-27487619D02*
X116189048Y-27440000D01*
X116284286Y-27392381D01*
X116522382Y-27392381D01*
X116617620Y-27440000D01*
X116665239Y-27487619D01*
X116712858Y-27582857D01*
X116712858Y-27678095D01*
X116665239Y-27820952D01*
X116093810Y-28392381D01*
X116712858Y-28392381D01*
X122642381Y-65579523D02*
X123356667Y-65579523D01*
X123499524Y-65627143D01*
X123594762Y-65722381D01*
X123642381Y-65865238D01*
X123642381Y-65960476D01*
X122642381Y-65198571D02*
X122642381Y-64579523D01*
X123023333Y-64912857D01*
X123023333Y-64769999D01*
X123070952Y-64674761D01*
X123118571Y-64627142D01*
X123213810Y-64579523D01*
X123451905Y-64579523D01*
X123547143Y-64627142D01*
X123594762Y-64674761D01*
X123642381Y-64769999D01*
X123642381Y-65055714D01*
X123594762Y-65150952D01*
X123547143Y-65198571D01*
X122642381Y-63960476D02*
X122642381Y-63865237D01*
X122690000Y-63769999D01*
X122737619Y-63722380D01*
X122832857Y-63674761D01*
X123023333Y-63627142D01*
X123261429Y-63627142D01*
X123451905Y-63674761D01*
X123547143Y-63722380D01*
X123594762Y-63769999D01*
X123642381Y-63865237D01*
X123642381Y-63960476D01*
X123594762Y-64055714D01*
X123547143Y-64103333D01*
X123451905Y-64150952D01*
X123261429Y-64198571D01*
X123023333Y-64198571D01*
X122832857Y-64150952D01*
X122737619Y-64103333D01*
X122690000Y-64055714D01*
X122642381Y-63960476D01*
X101052381Y-63039523D02*
X101766667Y-63039523D01*
X101909524Y-63087143D01*
X102004762Y-63182381D01*
X102052381Y-63325238D01*
X102052381Y-63420476D01*
X101052381Y-62658571D02*
X101052381Y-62039523D01*
X101433333Y-62372857D01*
X101433333Y-62229999D01*
X101480952Y-62134761D01*
X101528571Y-62087142D01*
X101623810Y-62039523D01*
X101861905Y-62039523D01*
X101957143Y-62087142D01*
X102004762Y-62134761D01*
X102052381Y-62229999D01*
X102052381Y-62515714D01*
X102004762Y-62610952D01*
X101957143Y-62658571D01*
X102052381Y-61087142D02*
X102052381Y-61658571D01*
X102052381Y-61372857D02*
X101052381Y-61372857D01*
X101195238Y-61468095D01*
X101290476Y-61563333D01*
X101338095Y-61658571D01*
X84542381Y-35099523D02*
X85256667Y-35099523D01*
X85399524Y-35147143D01*
X85494762Y-35242381D01*
X85542381Y-35385238D01*
X85542381Y-35480476D01*
X84875714Y-34194761D02*
X85542381Y-34194761D01*
X84494762Y-34432857D02*
X85209048Y-34670952D01*
X85209048Y-34051904D01*
X84542381Y-33480476D02*
X84542381Y-33385237D01*
X84590000Y-33289999D01*
X84637619Y-33242380D01*
X84732857Y-33194761D01*
X84923333Y-33147142D01*
X85161429Y-33147142D01*
X85351905Y-33194761D01*
X85447143Y-33242380D01*
X85494762Y-33289999D01*
X85542381Y-33385237D01*
X85542381Y-33480476D01*
X85494762Y-33575714D01*
X85447143Y-33623333D01*
X85351905Y-33670952D01*
X85161429Y-33718571D01*
X84923333Y-33718571D01*
X84732857Y-33670952D01*
X84637619Y-33623333D01*
X84590000Y-33575714D01*
X84542381Y-33480476D01*
X111212381Y-90979523D02*
X111926667Y-90979523D01*
X112069524Y-91027143D01*
X112164762Y-91122381D01*
X112212381Y-91265238D01*
X112212381Y-91360476D01*
X111212381Y-90074761D02*
X111212381Y-90265238D01*
X111260000Y-90360476D01*
X111307619Y-90408095D01*
X111450476Y-90503333D01*
X111640952Y-90550952D01*
X112021905Y-90550952D01*
X112117143Y-90503333D01*
X112164762Y-90455714D01*
X112212381Y-90360476D01*
X112212381Y-90169999D01*
X112164762Y-90074761D01*
X112117143Y-90027142D01*
X112021905Y-89979523D01*
X111783810Y-89979523D01*
X111688571Y-90027142D01*
X111640952Y-90074761D01*
X111593333Y-90169999D01*
X111593333Y-90360476D01*
X111640952Y-90455714D01*
X111688571Y-90503333D01*
X111783810Y-90550952D01*
X111212381Y-89360476D02*
X111212381Y-89265237D01*
X111260000Y-89169999D01*
X111307619Y-89122380D01*
X111402857Y-89074761D01*
X111593333Y-89027142D01*
X111831429Y-89027142D01*
X112021905Y-89074761D01*
X112117143Y-89122380D01*
X112164762Y-89169999D01*
X112212381Y-89265237D01*
X112212381Y-89360476D01*
X112164762Y-89455714D01*
X112117143Y-89503333D01*
X112021905Y-89550952D01*
X111831429Y-89598571D01*
X111593333Y-89598571D01*
X111402857Y-89550952D01*
X111307619Y-89503333D01*
X111260000Y-89455714D01*
X111212381Y-89360476D01*
X92162381Y-85899523D02*
X92876667Y-85899523D01*
X93019524Y-85947143D01*
X93114762Y-86042381D01*
X93162381Y-86185238D01*
X93162381Y-86280476D01*
X92162381Y-84994761D02*
X92162381Y-85185238D01*
X92210000Y-85280476D01*
X92257619Y-85328095D01*
X92400476Y-85423333D01*
X92590952Y-85470952D01*
X92971905Y-85470952D01*
X93067143Y-85423333D01*
X93114762Y-85375714D01*
X93162381Y-85280476D01*
X93162381Y-85089999D01*
X93114762Y-84994761D01*
X93067143Y-84947142D01*
X92971905Y-84899523D01*
X92733810Y-84899523D01*
X92638571Y-84947142D01*
X92590952Y-84994761D01*
X92543333Y-85089999D01*
X92543333Y-85280476D01*
X92590952Y-85375714D01*
X92638571Y-85423333D01*
X92733810Y-85470952D01*
X93162381Y-83947142D02*
X93162381Y-84518571D01*
X93162381Y-84232857D02*
X92162381Y-84232857D01*
X92305238Y-84328095D01*
X92400476Y-84423333D01*
X92448095Y-84518571D01*
X121372381Y-86693333D02*
X122086667Y-86693333D01*
X122229524Y-86740953D01*
X122324762Y-86836191D01*
X122372381Y-86979048D01*
X122372381Y-87074286D01*
X121705714Y-85788571D02*
X122372381Y-85788571D01*
X121324762Y-86026667D02*
X122039048Y-86264762D01*
X122039048Y-85645714D01*
M02*
