G04 #@! TF.FileFunction,Legend,Top*
%FSLAX46Y46*%
G04 Gerber Fmt 4.6, Leading zero omitted, Abs format (unit mm)*
G04 Created by KiCad (PCBNEW 4.0.7) date Monday, 16. July 2018 'u49' 18:49:17*
%MOMM*%
%LPD*%
G01*
G04 APERTURE LIST*
%ADD10C,0.100000*%
%ADD11C,0.150000*%
%ADD12C,0.120000*%
G04 APERTURE END LIST*
D10*
D11*
X194310000Y-25400000D02*
X50800000Y-25400000D01*
X44450000Y-25400000D02*
X194310000Y-25400000D01*
X44450000Y-26670000D02*
X44450000Y-25400000D01*
X44450000Y-27940000D02*
X44450000Y-26670000D01*
X44450000Y-97790000D02*
X44450000Y-27940000D01*
X194310000Y-97790000D02*
X44450000Y-97790000D01*
X194310000Y-25400000D02*
X194310000Y-97790000D01*
X45720000Y-30480000D02*
X46990000Y-30480000D01*
D12*
X57090000Y-62500000D02*
G75*
G02X57090000Y-64500000I0J-1000000D01*
G01*
X57090000Y-64500000D02*
X57090000Y-66150000D01*
X57090000Y-66150000D02*
X92770000Y-66150000D01*
X92770000Y-66150000D02*
X92770000Y-60850000D01*
X92770000Y-60850000D02*
X57090000Y-60850000D01*
X57090000Y-60850000D02*
X57090000Y-62500000D01*
X77530000Y-78470000D02*
G75*
G02X77530000Y-76470000I0J1000000D01*
G01*
X77530000Y-76470000D02*
X77530000Y-74820000D01*
X77530000Y-74820000D02*
X54550000Y-74820000D01*
X54550000Y-74820000D02*
X54550000Y-80120000D01*
X54550000Y-80120000D02*
X77530000Y-80120000D01*
X77530000Y-80120000D02*
X77530000Y-78470000D01*
X57090000Y-48530000D02*
G75*
G02X57090000Y-50530000I0J-1000000D01*
G01*
X57090000Y-50530000D02*
X57090000Y-52180000D01*
X57090000Y-52180000D02*
X80070000Y-52180000D01*
X80070000Y-52180000D02*
X80070000Y-46880000D01*
X80070000Y-46880000D02*
X57090000Y-46880000D01*
X57090000Y-46880000D02*
X57090000Y-48530000D01*
X114030000Y-52010000D02*
G75*
G02X112030000Y-52010000I-1000000J0D01*
G01*
X112030000Y-52010000D02*
X110380000Y-52010000D01*
X110380000Y-52010000D02*
X110380000Y-72450000D01*
X110380000Y-72450000D02*
X115680000Y-72450000D01*
X115680000Y-72450000D02*
X115680000Y-52010000D01*
X115680000Y-52010000D02*
X114030000Y-52010000D01*
X101070000Y-39950000D02*
X104670000Y-39950000D01*
X101031522Y-39938478D02*
G75*
G02X102870000Y-35500000I1838478J1838478D01*
G01*
X104708478Y-39938478D02*
G75*
G03X102870000Y-35500000I-1838478J1838478D01*
G01*
X57090000Y-90110000D02*
X57090000Y-92770000D01*
X74930000Y-90110000D02*
X57090000Y-90110000D01*
X74930000Y-92770000D02*
X57090000Y-92770000D01*
X74930000Y-90110000D02*
X74930000Y-92770000D01*
X76200000Y-90110000D02*
X77530000Y-90110000D01*
X77530000Y-90110000D02*
X77530000Y-91440000D01*
X77530000Y-33080000D02*
X77530000Y-30420000D01*
X59690000Y-33080000D02*
X77530000Y-33080000D01*
X59690000Y-30420000D02*
X77530000Y-30420000D01*
X59690000Y-33080000D02*
X59690000Y-30420000D01*
X58420000Y-33080000D02*
X57090000Y-33080000D01*
X57090000Y-33080000D02*
X57090000Y-31750000D01*
X120590000Y-80070000D02*
X123250000Y-80070000D01*
X120590000Y-80010000D02*
X120590000Y-80070000D01*
X123250000Y-80010000D02*
X123250000Y-80070000D01*
X120590000Y-80010000D02*
X123250000Y-80010000D01*
X120590000Y-78740000D02*
X120590000Y-77410000D01*
X120590000Y-77410000D02*
X121920000Y-77410000D01*
X90230000Y-74990000D02*
X90230000Y-72330000D01*
X87630000Y-74990000D02*
X90230000Y-74990000D01*
X87630000Y-72330000D02*
X90230000Y-72330000D01*
X87630000Y-74990000D02*
X87630000Y-72330000D01*
X86360000Y-74990000D02*
X85030000Y-74990000D01*
X85030000Y-74990000D02*
X85030000Y-73660000D01*
X97730000Y-77410000D02*
X97730000Y-80070000D01*
X110490000Y-77410000D02*
X97730000Y-77410000D01*
X110490000Y-80070000D02*
X97730000Y-80070000D01*
X110490000Y-77410000D02*
X110490000Y-80070000D01*
X111760000Y-77410000D02*
X113090000Y-77410000D01*
X113090000Y-77410000D02*
X113090000Y-78740000D01*
X123250000Y-34350000D02*
X123250000Y-31690000D01*
X110490000Y-34350000D02*
X123250000Y-34350000D01*
X110490000Y-31690000D02*
X123250000Y-31690000D01*
X110490000Y-34350000D02*
X110490000Y-31690000D01*
X109220000Y-34350000D02*
X107890000Y-34350000D01*
X107890000Y-34350000D02*
X107890000Y-33020000D01*
X123250000Y-38160000D02*
X123250000Y-35500000D01*
X110490000Y-38160000D02*
X123250000Y-38160000D01*
X110490000Y-35500000D02*
X123250000Y-35500000D01*
X110490000Y-38160000D02*
X110490000Y-35500000D01*
X109220000Y-38160000D02*
X107890000Y-38160000D01*
X107890000Y-38160000D02*
X107890000Y-36830000D01*
X123250000Y-29270000D02*
X123250000Y-26610000D01*
X110490000Y-29270000D02*
X123250000Y-29270000D01*
X110490000Y-26610000D02*
X123250000Y-26610000D01*
X110490000Y-29270000D02*
X110490000Y-26610000D01*
X109220000Y-29270000D02*
X107890000Y-29270000D01*
X107890000Y-29270000D02*
X107890000Y-27940000D01*
X121860000Y-69910000D02*
X124520000Y-69910000D01*
X121860000Y-62230000D02*
X121860000Y-69910000D01*
X124520000Y-62230000D02*
X124520000Y-69910000D01*
X121860000Y-62230000D02*
X124520000Y-62230000D01*
X121860000Y-60960000D02*
X121860000Y-59630000D01*
X121860000Y-59630000D02*
X123190000Y-59630000D01*
X100270000Y-72450000D02*
X102930000Y-72450000D01*
X100270000Y-54610000D02*
X100270000Y-72450000D01*
X102930000Y-54610000D02*
X102930000Y-72450000D01*
X100270000Y-54610000D02*
X102930000Y-54610000D01*
X100270000Y-53340000D02*
X100270000Y-52010000D01*
X100270000Y-52010000D02*
X101600000Y-52010000D01*
X83760000Y-36890000D02*
X86420000Y-36890000D01*
X83760000Y-34290000D02*
X83760000Y-36890000D01*
X86420000Y-34290000D02*
X86420000Y-36890000D01*
X83760000Y-34290000D02*
X86420000Y-34290000D01*
X83760000Y-33020000D02*
X83760000Y-31690000D01*
X83760000Y-31690000D02*
X85090000Y-31690000D01*
X91380000Y-31750000D02*
X91380000Y-39430000D01*
X91380000Y-39430000D02*
X94040000Y-39430000D01*
X94040000Y-39430000D02*
X94040000Y-31750000D01*
X94040000Y-31750000D02*
X91380000Y-31750000D01*
X91380000Y-30480000D02*
X91380000Y-29150000D01*
X91380000Y-29150000D02*
X92710000Y-29150000D01*
X110430000Y-95310000D02*
X113090000Y-95310000D01*
X110430000Y-87630000D02*
X110430000Y-95310000D01*
X113090000Y-87630000D02*
X113090000Y-95310000D01*
X110430000Y-87630000D02*
X113090000Y-87630000D01*
X110430000Y-86360000D02*
X110430000Y-85030000D01*
X110430000Y-85030000D02*
X111760000Y-85030000D01*
X91380000Y-87690000D02*
X94040000Y-87690000D01*
X91380000Y-85090000D02*
X91380000Y-87690000D01*
X94040000Y-85090000D02*
X94040000Y-87690000D01*
X91380000Y-85090000D02*
X94040000Y-85090000D01*
X91380000Y-83820000D02*
X91380000Y-82490000D01*
X91380000Y-82490000D02*
X92710000Y-82490000D01*
X117510000Y-45760000D02*
X117510000Y-43140000D01*
X117510000Y-43140000D02*
X111090000Y-43140000D01*
X111090000Y-43140000D02*
X111090000Y-45760000D01*
X111090000Y-45760000D02*
X117510000Y-45760000D01*
X120940000Y-44450000D02*
X117510000Y-44450000D01*
X107660000Y-44450000D02*
X111090000Y-44450000D01*
X97120000Y-92670000D02*
X97120000Y-95290000D01*
X97120000Y-95290000D02*
X103540000Y-95290000D01*
X103540000Y-95290000D02*
X103540000Y-92670000D01*
X103540000Y-92670000D02*
X97120000Y-92670000D01*
X93690000Y-93980000D02*
X97120000Y-93980000D01*
X106970000Y-93980000D02*
X103540000Y-93980000D01*
X97120000Y-90130000D02*
X97120000Y-92750000D01*
X97120000Y-92750000D02*
X103540000Y-92750000D01*
X103540000Y-92750000D02*
X103540000Y-90130000D01*
X103540000Y-90130000D02*
X97120000Y-90130000D01*
X93690000Y-91440000D02*
X97120000Y-91440000D01*
X106970000Y-91440000D02*
X103540000Y-91440000D01*
X120590000Y-87690000D02*
X123250000Y-87690000D01*
X120590000Y-87630000D02*
X120590000Y-87690000D01*
X123250000Y-87630000D02*
X123250000Y-87690000D01*
X120590000Y-87630000D02*
X123250000Y-87630000D01*
X120590000Y-86360000D02*
X120590000Y-85030000D01*
X120590000Y-85030000D02*
X121920000Y-85030000D01*
D11*
X56542381Y-64476190D02*
X55542381Y-64476190D01*
X56447143Y-63428571D02*
X56494762Y-63476190D01*
X56542381Y-63619047D01*
X56542381Y-63714285D01*
X56494762Y-63857143D01*
X56399524Y-63952381D01*
X56304286Y-64000000D01*
X56113810Y-64047619D01*
X55970952Y-64047619D01*
X55780476Y-64000000D01*
X55685238Y-63952381D01*
X55590000Y-63857143D01*
X55542381Y-63714285D01*
X55542381Y-63619047D01*
X55590000Y-63476190D01*
X55637619Y-63428571D01*
X56542381Y-62476190D02*
X56542381Y-63047619D01*
X56542381Y-62761905D02*
X55542381Y-62761905D01*
X55685238Y-62857143D01*
X55780476Y-62952381D01*
X55828095Y-63047619D01*
X94222381Y-67214286D02*
X93222381Y-67214286D01*
X93936667Y-66880952D01*
X93222381Y-66547619D01*
X94222381Y-66547619D01*
X94127143Y-65500000D02*
X94174762Y-65547619D01*
X94222381Y-65690476D01*
X94222381Y-65785714D01*
X94174762Y-65928572D01*
X94079524Y-66023810D01*
X93984286Y-66071429D01*
X93793810Y-66119048D01*
X93650952Y-66119048D01*
X93460476Y-66071429D01*
X93365238Y-66023810D01*
X93270000Y-65928572D01*
X93222381Y-65785714D01*
X93222381Y-65690476D01*
X93270000Y-65547619D01*
X93317619Y-65500000D01*
X94222381Y-65071429D02*
X93222381Y-65071429D01*
X93222381Y-64690476D01*
X93270000Y-64595238D01*
X93317619Y-64547619D01*
X93412857Y-64500000D01*
X93555714Y-64500000D01*
X93650952Y-64547619D01*
X93698571Y-64595238D01*
X93746190Y-64690476D01*
X93746190Y-65071429D01*
X93317619Y-64119048D02*
X93270000Y-64071429D01*
X93222381Y-63976191D01*
X93222381Y-63738095D01*
X93270000Y-63642857D01*
X93317619Y-63595238D01*
X93412857Y-63547619D01*
X93508095Y-63547619D01*
X93650952Y-63595238D01*
X94222381Y-64166667D01*
X94222381Y-63547619D01*
X93222381Y-63214286D02*
X93222381Y-62595238D01*
X93603333Y-62928572D01*
X93603333Y-62785714D01*
X93650952Y-62690476D01*
X93698571Y-62642857D01*
X93793810Y-62595238D01*
X94031905Y-62595238D01*
X94127143Y-62642857D01*
X94174762Y-62690476D01*
X94222381Y-62785714D01*
X94222381Y-63071429D01*
X94174762Y-63166667D01*
X94127143Y-63214286D01*
X93222381Y-61976191D02*
X93222381Y-61880952D01*
X93270000Y-61785714D01*
X93317619Y-61738095D01*
X93412857Y-61690476D01*
X93603333Y-61642857D01*
X93841429Y-61642857D01*
X94031905Y-61690476D01*
X94127143Y-61738095D01*
X94174762Y-61785714D01*
X94222381Y-61880952D01*
X94222381Y-61976191D01*
X94174762Y-62071429D01*
X94127143Y-62119048D01*
X94031905Y-62166667D01*
X93841429Y-62214286D01*
X93603333Y-62214286D01*
X93412857Y-62166667D01*
X93317619Y-62119048D01*
X93270000Y-62071429D01*
X93222381Y-61976191D01*
X94222381Y-60690476D02*
X94222381Y-61261905D01*
X94222381Y-60976191D02*
X93222381Y-60976191D01*
X93365238Y-61071429D01*
X93460476Y-61166667D01*
X93508095Y-61261905D01*
X93222381Y-60357143D02*
X93222381Y-59690476D01*
X94222381Y-60119048D01*
X78982381Y-78446190D02*
X77982381Y-78446190D01*
X78887143Y-77398571D02*
X78934762Y-77446190D01*
X78982381Y-77589047D01*
X78982381Y-77684285D01*
X78934762Y-77827143D01*
X78839524Y-77922381D01*
X78744286Y-77970000D01*
X78553810Y-78017619D01*
X78410952Y-78017619D01*
X78220476Y-77970000D01*
X78125238Y-77922381D01*
X78030000Y-77827143D01*
X77982381Y-77684285D01*
X77982381Y-77589047D01*
X78030000Y-77446190D01*
X78077619Y-77398571D01*
X78077619Y-77017619D02*
X78030000Y-76970000D01*
X77982381Y-76874762D01*
X77982381Y-76636666D01*
X78030000Y-76541428D01*
X78077619Y-76493809D01*
X78172857Y-76446190D01*
X78268095Y-76446190D01*
X78410952Y-76493809D01*
X78982381Y-77065238D01*
X78982381Y-76446190D01*
X53002381Y-81017619D02*
X53811905Y-81017619D01*
X53907143Y-80970000D01*
X53954762Y-80922381D01*
X54002381Y-80827143D01*
X54002381Y-80636666D01*
X53954762Y-80541428D01*
X53907143Y-80493809D01*
X53811905Y-80446190D01*
X53002381Y-80446190D01*
X54002381Y-79493809D02*
X54002381Y-79970000D01*
X53002381Y-79970000D01*
X54002381Y-79160476D02*
X53002381Y-79160476D01*
X54002381Y-78589047D01*
X53002381Y-78589047D01*
X53097619Y-78160476D02*
X53050000Y-78112857D01*
X53002381Y-78017619D01*
X53002381Y-77779523D01*
X53050000Y-77684285D01*
X53097619Y-77636666D01*
X53192857Y-77589047D01*
X53288095Y-77589047D01*
X53430952Y-77636666D01*
X54002381Y-78208095D01*
X54002381Y-77589047D01*
X53430952Y-77017619D02*
X53383333Y-77112857D01*
X53335714Y-77160476D01*
X53240476Y-77208095D01*
X53192857Y-77208095D01*
X53097619Y-77160476D01*
X53050000Y-77112857D01*
X53002381Y-77017619D01*
X53002381Y-76827142D01*
X53050000Y-76731904D01*
X53097619Y-76684285D01*
X53192857Y-76636666D01*
X53240476Y-76636666D01*
X53335714Y-76684285D01*
X53383333Y-76731904D01*
X53430952Y-76827142D01*
X53430952Y-77017619D01*
X53478571Y-77112857D01*
X53526190Y-77160476D01*
X53621429Y-77208095D01*
X53811905Y-77208095D01*
X53907143Y-77160476D01*
X53954762Y-77112857D01*
X54002381Y-77017619D01*
X54002381Y-76827142D01*
X53954762Y-76731904D01*
X53907143Y-76684285D01*
X53811905Y-76636666D01*
X53621429Y-76636666D01*
X53526190Y-76684285D01*
X53478571Y-76731904D01*
X53430952Y-76827142D01*
X53002381Y-76017619D02*
X53002381Y-75922380D01*
X53050000Y-75827142D01*
X53097619Y-75779523D01*
X53192857Y-75731904D01*
X53383333Y-75684285D01*
X53621429Y-75684285D01*
X53811905Y-75731904D01*
X53907143Y-75779523D01*
X53954762Y-75827142D01*
X54002381Y-75922380D01*
X54002381Y-76017619D01*
X53954762Y-76112857D01*
X53907143Y-76160476D01*
X53811905Y-76208095D01*
X53621429Y-76255714D01*
X53383333Y-76255714D01*
X53192857Y-76208095D01*
X53097619Y-76160476D01*
X53050000Y-76112857D01*
X53002381Y-76017619D01*
X53002381Y-75350952D02*
X53002381Y-74731904D01*
X53383333Y-75065238D01*
X53383333Y-74922380D01*
X53430952Y-74827142D01*
X53478571Y-74779523D01*
X53573810Y-74731904D01*
X53811905Y-74731904D01*
X53907143Y-74779523D01*
X53954762Y-74827142D01*
X54002381Y-74922380D01*
X54002381Y-75208095D01*
X53954762Y-75303333D01*
X53907143Y-75350952D01*
X53716667Y-74350952D02*
X53716667Y-73874761D01*
X54002381Y-74446190D02*
X53002381Y-74112857D01*
X54002381Y-73779523D01*
X56542381Y-50506190D02*
X55542381Y-50506190D01*
X56447143Y-49458571D02*
X56494762Y-49506190D01*
X56542381Y-49649047D01*
X56542381Y-49744285D01*
X56494762Y-49887143D01*
X56399524Y-49982381D01*
X56304286Y-50030000D01*
X56113810Y-50077619D01*
X55970952Y-50077619D01*
X55780476Y-50030000D01*
X55685238Y-49982381D01*
X55590000Y-49887143D01*
X55542381Y-49744285D01*
X55542381Y-49649047D01*
X55590000Y-49506190D01*
X55637619Y-49458571D01*
X55542381Y-49125238D02*
X55542381Y-48506190D01*
X55923333Y-48839524D01*
X55923333Y-48696666D01*
X55970952Y-48601428D01*
X56018571Y-48553809D01*
X56113810Y-48506190D01*
X56351905Y-48506190D01*
X56447143Y-48553809D01*
X56494762Y-48601428D01*
X56542381Y-48696666D01*
X56542381Y-48982381D01*
X56494762Y-49077619D01*
X56447143Y-49125238D01*
X80522381Y-53077619D02*
X81331905Y-53077619D01*
X81427143Y-53030000D01*
X81474762Y-52982381D01*
X81522381Y-52887143D01*
X81522381Y-52696666D01*
X81474762Y-52601428D01*
X81427143Y-52553809D01*
X81331905Y-52506190D01*
X80522381Y-52506190D01*
X81522381Y-51553809D02*
X81522381Y-52030000D01*
X80522381Y-52030000D01*
X81522381Y-51220476D02*
X80522381Y-51220476D01*
X81522381Y-50649047D01*
X80522381Y-50649047D01*
X80617619Y-50220476D02*
X80570000Y-50172857D01*
X80522381Y-50077619D01*
X80522381Y-49839523D01*
X80570000Y-49744285D01*
X80617619Y-49696666D01*
X80712857Y-49649047D01*
X80808095Y-49649047D01*
X80950952Y-49696666D01*
X81522381Y-50268095D01*
X81522381Y-49649047D01*
X80950952Y-49077619D02*
X80903333Y-49172857D01*
X80855714Y-49220476D01*
X80760476Y-49268095D01*
X80712857Y-49268095D01*
X80617619Y-49220476D01*
X80570000Y-49172857D01*
X80522381Y-49077619D01*
X80522381Y-48887142D01*
X80570000Y-48791904D01*
X80617619Y-48744285D01*
X80712857Y-48696666D01*
X80760476Y-48696666D01*
X80855714Y-48744285D01*
X80903333Y-48791904D01*
X80950952Y-48887142D01*
X80950952Y-49077619D01*
X80998571Y-49172857D01*
X81046190Y-49220476D01*
X81141429Y-49268095D01*
X81331905Y-49268095D01*
X81427143Y-49220476D01*
X81474762Y-49172857D01*
X81522381Y-49077619D01*
X81522381Y-48887142D01*
X81474762Y-48791904D01*
X81427143Y-48744285D01*
X81331905Y-48696666D01*
X81141429Y-48696666D01*
X81046190Y-48744285D01*
X80998571Y-48791904D01*
X80950952Y-48887142D01*
X80522381Y-48077619D02*
X80522381Y-47982380D01*
X80570000Y-47887142D01*
X80617619Y-47839523D01*
X80712857Y-47791904D01*
X80903333Y-47744285D01*
X81141429Y-47744285D01*
X81331905Y-47791904D01*
X81427143Y-47839523D01*
X81474762Y-47887142D01*
X81522381Y-47982380D01*
X81522381Y-48077619D01*
X81474762Y-48172857D01*
X81427143Y-48220476D01*
X81331905Y-48268095D01*
X81141429Y-48315714D01*
X80903333Y-48315714D01*
X80712857Y-48268095D01*
X80617619Y-48220476D01*
X80570000Y-48172857D01*
X80522381Y-48077619D01*
X80522381Y-47410952D02*
X80522381Y-46791904D01*
X80903333Y-47125238D01*
X80903333Y-46982380D01*
X80950952Y-46887142D01*
X80998571Y-46839523D01*
X81093810Y-46791904D01*
X81331905Y-46791904D01*
X81427143Y-46839523D01*
X81474762Y-46887142D01*
X81522381Y-46982380D01*
X81522381Y-47268095D01*
X81474762Y-47363333D01*
X81427143Y-47410952D01*
X81236667Y-46410952D02*
X81236667Y-45934761D01*
X81522381Y-46506190D02*
X80522381Y-46172857D01*
X81522381Y-45839523D01*
X112053810Y-51462381D02*
X112053810Y-50462381D01*
X113101429Y-51367143D02*
X113053810Y-51414762D01*
X112910953Y-51462381D01*
X112815715Y-51462381D01*
X112672857Y-51414762D01*
X112577619Y-51319524D01*
X112530000Y-51224286D01*
X112482381Y-51033810D01*
X112482381Y-50890952D01*
X112530000Y-50700476D01*
X112577619Y-50605238D01*
X112672857Y-50510000D01*
X112815715Y-50462381D01*
X112910953Y-50462381D01*
X113053810Y-50510000D01*
X113101429Y-50557619D01*
X113958572Y-50795714D02*
X113958572Y-51462381D01*
X113720476Y-50414762D02*
X113482381Y-51129048D01*
X114101429Y-51129048D01*
X109791905Y-73902381D02*
X109791905Y-72902381D01*
X110125239Y-73616667D01*
X110458572Y-72902381D01*
X110458572Y-73902381D01*
X111506191Y-73807143D02*
X111458572Y-73854762D01*
X111315715Y-73902381D01*
X111220477Y-73902381D01*
X111077619Y-73854762D01*
X110982381Y-73759524D01*
X110934762Y-73664286D01*
X110887143Y-73473810D01*
X110887143Y-73330952D01*
X110934762Y-73140476D01*
X110982381Y-73045238D01*
X111077619Y-72950000D01*
X111220477Y-72902381D01*
X111315715Y-72902381D01*
X111458572Y-72950000D01*
X111506191Y-72997619D01*
X111934762Y-73902381D02*
X111934762Y-72902381D01*
X112315715Y-72902381D01*
X112410953Y-72950000D01*
X112458572Y-72997619D01*
X112506191Y-73092857D01*
X112506191Y-73235714D01*
X112458572Y-73330952D01*
X112410953Y-73378571D01*
X112315715Y-73426190D01*
X111934762Y-73426190D01*
X112839524Y-72902381D02*
X113458572Y-72902381D01*
X113125238Y-73283333D01*
X113268096Y-73283333D01*
X113363334Y-73330952D01*
X113410953Y-73378571D01*
X113458572Y-73473810D01*
X113458572Y-73711905D01*
X113410953Y-73807143D01*
X113363334Y-73854762D01*
X113268096Y-73902381D01*
X112982381Y-73902381D01*
X112887143Y-73854762D01*
X112839524Y-73807143D01*
X114077619Y-72902381D02*
X114172858Y-72902381D01*
X114268096Y-72950000D01*
X114315715Y-72997619D01*
X114363334Y-73092857D01*
X114410953Y-73283333D01*
X114410953Y-73521429D01*
X114363334Y-73711905D01*
X114315715Y-73807143D01*
X114268096Y-73854762D01*
X114172858Y-73902381D01*
X114077619Y-73902381D01*
X113982381Y-73854762D01*
X113934762Y-73807143D01*
X113887143Y-73711905D01*
X113839524Y-73521429D01*
X113839524Y-73283333D01*
X113887143Y-73092857D01*
X113934762Y-72997619D01*
X113982381Y-72950000D01*
X114077619Y-72902381D01*
X115030000Y-72902381D02*
X115125239Y-72902381D01*
X115220477Y-72950000D01*
X115268096Y-72997619D01*
X115315715Y-73092857D01*
X115363334Y-73283333D01*
X115363334Y-73521429D01*
X115315715Y-73711905D01*
X115268096Y-73807143D01*
X115220477Y-73854762D01*
X115125239Y-73902381D01*
X115030000Y-73902381D01*
X114934762Y-73854762D01*
X114887143Y-73807143D01*
X114839524Y-73711905D01*
X114791905Y-73521429D01*
X114791905Y-73283333D01*
X114839524Y-73092857D01*
X114887143Y-72997619D01*
X114934762Y-72950000D01*
X115030000Y-72902381D01*
X115934762Y-73330952D02*
X115839524Y-73283333D01*
X115791905Y-73235714D01*
X115744286Y-73140476D01*
X115744286Y-73092857D01*
X115791905Y-72997619D01*
X115839524Y-72950000D01*
X115934762Y-72902381D01*
X116125239Y-72902381D01*
X116220477Y-72950000D01*
X116268096Y-72997619D01*
X116315715Y-73092857D01*
X116315715Y-73140476D01*
X116268096Y-73235714D01*
X116220477Y-73283333D01*
X116125239Y-73330952D01*
X115934762Y-73330952D01*
X115839524Y-73378571D01*
X115791905Y-73426190D01*
X115744286Y-73521429D01*
X115744286Y-73711905D01*
X115791905Y-73807143D01*
X115839524Y-73854762D01*
X115934762Y-73902381D01*
X116125239Y-73902381D01*
X116220477Y-73854762D01*
X116268096Y-73807143D01*
X116315715Y-73711905D01*
X116315715Y-73521429D01*
X116268096Y-73426190D01*
X116220477Y-73378571D01*
X116125239Y-73330952D01*
X101893810Y-34992381D02*
X101893810Y-33992381D01*
X102941429Y-34897143D02*
X102893810Y-34944762D01*
X102750953Y-34992381D01*
X102655715Y-34992381D01*
X102512857Y-34944762D01*
X102417619Y-34849524D01*
X102370000Y-34754286D01*
X102322381Y-34563810D01*
X102322381Y-34420952D01*
X102370000Y-34230476D01*
X102417619Y-34135238D01*
X102512857Y-34040000D01*
X102655715Y-33992381D01*
X102750953Y-33992381D01*
X102893810Y-34040000D01*
X102941429Y-34087619D01*
X103846191Y-33992381D02*
X103370000Y-33992381D01*
X103322381Y-34468571D01*
X103370000Y-34420952D01*
X103465238Y-34373333D01*
X103703334Y-34373333D01*
X103798572Y-34420952D01*
X103846191Y-34468571D01*
X103893810Y-34563810D01*
X103893810Y-34801905D01*
X103846191Y-34897143D01*
X103798572Y-34944762D01*
X103703334Y-34992381D01*
X103465238Y-34992381D01*
X103370000Y-34944762D01*
X103322381Y-34897143D01*
X99727143Y-41342381D02*
X99727143Y-40342381D01*
X99965238Y-40342381D01*
X100108096Y-40390000D01*
X100203334Y-40485238D01*
X100250953Y-40580476D01*
X100298572Y-40770952D01*
X100298572Y-40913810D01*
X100250953Y-41104286D01*
X100203334Y-41199524D01*
X100108096Y-41294762D01*
X99965238Y-41342381D01*
X99727143Y-41342381D01*
X100679524Y-41294762D02*
X100822381Y-41342381D01*
X101060477Y-41342381D01*
X101155715Y-41294762D01*
X101203334Y-41247143D01*
X101250953Y-41151905D01*
X101250953Y-41056667D01*
X101203334Y-40961429D01*
X101155715Y-40913810D01*
X101060477Y-40866190D01*
X100870000Y-40818571D01*
X100774762Y-40770952D01*
X100727143Y-40723333D01*
X100679524Y-40628095D01*
X100679524Y-40532857D01*
X100727143Y-40437619D01*
X100774762Y-40390000D01*
X100870000Y-40342381D01*
X101108096Y-40342381D01*
X101250953Y-40390000D01*
X102203334Y-41342381D02*
X101631905Y-41342381D01*
X101917619Y-41342381D02*
X101917619Y-40342381D01*
X101822381Y-40485238D01*
X101727143Y-40580476D01*
X101631905Y-40628095D01*
X102774762Y-40770952D02*
X102679524Y-40723333D01*
X102631905Y-40675714D01*
X102584286Y-40580476D01*
X102584286Y-40532857D01*
X102631905Y-40437619D01*
X102679524Y-40390000D01*
X102774762Y-40342381D01*
X102965239Y-40342381D01*
X103060477Y-40390000D01*
X103108096Y-40437619D01*
X103155715Y-40532857D01*
X103155715Y-40580476D01*
X103108096Y-40675714D01*
X103060477Y-40723333D01*
X102965239Y-40770952D01*
X102774762Y-40770952D01*
X102679524Y-40818571D01*
X102631905Y-40866190D01*
X102584286Y-40961429D01*
X102584286Y-41151905D01*
X102631905Y-41247143D01*
X102679524Y-41294762D01*
X102774762Y-41342381D01*
X102965239Y-41342381D01*
X103060477Y-41294762D01*
X103108096Y-41247143D01*
X103155715Y-41151905D01*
X103155715Y-40961429D01*
X103108096Y-40866190D01*
X103060477Y-40818571D01*
X102965239Y-40770952D01*
X103917620Y-40818571D02*
X104060477Y-40866190D01*
X104108096Y-40913810D01*
X104155715Y-41009048D01*
X104155715Y-41151905D01*
X104108096Y-41247143D01*
X104060477Y-41294762D01*
X103965239Y-41342381D01*
X103584286Y-41342381D01*
X103584286Y-40342381D01*
X103917620Y-40342381D01*
X104012858Y-40390000D01*
X104060477Y-40437619D01*
X104108096Y-40532857D01*
X104108096Y-40628095D01*
X104060477Y-40723333D01*
X104012858Y-40770952D01*
X103917620Y-40818571D01*
X103584286Y-40818571D01*
X104536667Y-40437619D02*
X104584286Y-40390000D01*
X104679524Y-40342381D01*
X104917620Y-40342381D01*
X105012858Y-40390000D01*
X105060477Y-40437619D01*
X105108096Y-40532857D01*
X105108096Y-40628095D01*
X105060477Y-40770952D01*
X104489048Y-41342381D01*
X105108096Y-41342381D01*
X105727143Y-40342381D02*
X105822382Y-40342381D01*
X105917620Y-40390000D01*
X105965239Y-40437619D01*
X106012858Y-40532857D01*
X106060477Y-40723333D01*
X106060477Y-40961429D01*
X106012858Y-41151905D01*
X105965239Y-41247143D01*
X105917620Y-41294762D01*
X105822382Y-41342381D01*
X105727143Y-41342381D01*
X105631905Y-41294762D01*
X105584286Y-41247143D01*
X105536667Y-41151905D01*
X105489048Y-40961429D01*
X105489048Y-40723333D01*
X105536667Y-40532857D01*
X105584286Y-40437619D01*
X105631905Y-40390000D01*
X105727143Y-40342381D01*
X101893810Y-34992381D02*
X101893810Y-33992381D01*
X102941429Y-34897143D02*
X102893810Y-34944762D01*
X102750953Y-34992381D01*
X102655715Y-34992381D01*
X102512857Y-34944762D01*
X102417619Y-34849524D01*
X102370000Y-34754286D01*
X102322381Y-34563810D01*
X102322381Y-34420952D01*
X102370000Y-34230476D01*
X102417619Y-34135238D01*
X102512857Y-34040000D01*
X102655715Y-33992381D01*
X102750953Y-33992381D01*
X102893810Y-34040000D01*
X102941429Y-34087619D01*
X103846191Y-33992381D02*
X103370000Y-33992381D01*
X103322381Y-34468571D01*
X103370000Y-34420952D01*
X103465238Y-34373333D01*
X103703334Y-34373333D01*
X103798572Y-34420952D01*
X103846191Y-34468571D01*
X103893810Y-34563810D01*
X103893810Y-34801905D01*
X103846191Y-34897143D01*
X103798572Y-34944762D01*
X103703334Y-34992381D01*
X103465238Y-34992381D01*
X103370000Y-34944762D01*
X103322381Y-34897143D01*
X77982381Y-91773333D02*
X78696667Y-91773333D01*
X78839524Y-91820953D01*
X78934762Y-91916191D01*
X78982381Y-92059048D01*
X78982381Y-92154286D01*
X78982381Y-90773333D02*
X78982381Y-91344762D01*
X78982381Y-91059048D02*
X77982381Y-91059048D01*
X78125238Y-91154286D01*
X78220476Y-91249524D01*
X78268095Y-91344762D01*
X80328094Y-90892381D02*
X80518571Y-90892381D01*
X80613809Y-90940000D01*
X80709047Y-91035238D01*
X80756666Y-91225714D01*
X80756666Y-91559048D01*
X80709047Y-91749524D01*
X80613809Y-91844762D01*
X80518571Y-91892381D01*
X80328094Y-91892381D01*
X80232856Y-91844762D01*
X80137618Y-91749524D01*
X80089999Y-91559048D01*
X80089999Y-91225714D01*
X80137618Y-91035238D01*
X80232856Y-90940000D01*
X80328094Y-90892381D01*
X81613809Y-91225714D02*
X81613809Y-91892381D01*
X81185237Y-91225714D02*
X81185237Y-91749524D01*
X81232856Y-91844762D01*
X81328094Y-91892381D01*
X81470952Y-91892381D01*
X81566190Y-91844762D01*
X81613809Y-91797143D01*
X81947142Y-91225714D02*
X82328094Y-91225714D01*
X82089999Y-90892381D02*
X82089999Y-91749524D01*
X82137618Y-91844762D01*
X82232856Y-91892381D01*
X82328094Y-91892381D01*
X82661428Y-91225714D02*
X82661428Y-92225714D01*
X82661428Y-91273333D02*
X82756666Y-91225714D01*
X82947143Y-91225714D01*
X83042381Y-91273333D01*
X83090000Y-91320952D01*
X83137619Y-91416190D01*
X83137619Y-91701905D01*
X83090000Y-91797143D01*
X83042381Y-91844762D01*
X82947143Y-91892381D01*
X82756666Y-91892381D01*
X82661428Y-91844762D01*
X83994762Y-91225714D02*
X83994762Y-91892381D01*
X83566190Y-91225714D02*
X83566190Y-91749524D01*
X83613809Y-91844762D01*
X83709047Y-91892381D01*
X83851905Y-91892381D01*
X83947143Y-91844762D01*
X83994762Y-91797143D01*
X84328095Y-91225714D02*
X84709047Y-91225714D01*
X84470952Y-90892381D02*
X84470952Y-91749524D01*
X84518571Y-91844762D01*
X84613809Y-91892381D01*
X84709047Y-91892381D01*
X86375715Y-91892381D02*
X86042381Y-91416190D01*
X85804286Y-91892381D02*
X85804286Y-90892381D01*
X86185239Y-90892381D01*
X86280477Y-90940000D01*
X86328096Y-90987619D01*
X86375715Y-91082857D01*
X86375715Y-91225714D01*
X86328096Y-91320952D01*
X86280477Y-91368571D01*
X86185239Y-91416190D01*
X85804286Y-91416190D01*
X86947143Y-91892381D02*
X86851905Y-91844762D01*
X86804286Y-91797143D01*
X86756667Y-91701905D01*
X86756667Y-91416190D01*
X86804286Y-91320952D01*
X86851905Y-91273333D01*
X86947143Y-91225714D01*
X87090001Y-91225714D01*
X87185239Y-91273333D01*
X87232858Y-91320952D01*
X87280477Y-91416190D01*
X87280477Y-91701905D01*
X87232858Y-91797143D01*
X87185239Y-91844762D01*
X87090001Y-91892381D01*
X86947143Y-91892381D01*
X87613810Y-91225714D02*
X87804286Y-91892381D01*
X87994763Y-91416190D01*
X88185239Y-91892381D01*
X88375715Y-91225714D01*
X89851906Y-91368571D02*
X89994763Y-91416190D01*
X90042382Y-91463810D01*
X90090001Y-91559048D01*
X90090001Y-91701905D01*
X90042382Y-91797143D01*
X89994763Y-91844762D01*
X89899525Y-91892381D01*
X89518572Y-91892381D01*
X89518572Y-90892381D01*
X89851906Y-90892381D01*
X89947144Y-90940000D01*
X89994763Y-90987619D01*
X90042382Y-91082857D01*
X90042382Y-91178095D01*
X89994763Y-91273333D01*
X89947144Y-91320952D01*
X89851906Y-91368571D01*
X89518572Y-91368571D01*
X55542381Y-32083333D02*
X56256667Y-32083333D01*
X56399524Y-32130953D01*
X56494762Y-32226191D01*
X56542381Y-32369048D01*
X56542381Y-32464286D01*
X55637619Y-31654762D02*
X55590000Y-31607143D01*
X55542381Y-31511905D01*
X55542381Y-31273809D01*
X55590000Y-31178571D01*
X55637619Y-31130952D01*
X55732857Y-31083333D01*
X55828095Y-31083333D01*
X55970952Y-31130952D01*
X56542381Y-31702381D01*
X56542381Y-31083333D01*
X67699523Y-28662381D02*
X67890000Y-28662381D01*
X67985238Y-28710000D01*
X68080476Y-28805238D01*
X68128095Y-28995714D01*
X68128095Y-29329048D01*
X68080476Y-29519524D01*
X67985238Y-29614762D01*
X67890000Y-29662381D01*
X67699523Y-29662381D01*
X67604285Y-29614762D01*
X67509047Y-29519524D01*
X67461428Y-29329048D01*
X67461428Y-28995714D01*
X67509047Y-28805238D01*
X67604285Y-28710000D01*
X67699523Y-28662381D01*
X68985238Y-28995714D02*
X68985238Y-29662381D01*
X68556666Y-28995714D02*
X68556666Y-29519524D01*
X68604285Y-29614762D01*
X68699523Y-29662381D01*
X68842381Y-29662381D01*
X68937619Y-29614762D01*
X68985238Y-29567143D01*
X69318571Y-28995714D02*
X69699523Y-28995714D01*
X69461428Y-28662381D02*
X69461428Y-29519524D01*
X69509047Y-29614762D01*
X69604285Y-29662381D01*
X69699523Y-29662381D01*
X70032857Y-28995714D02*
X70032857Y-29995714D01*
X70032857Y-29043333D02*
X70128095Y-28995714D01*
X70318572Y-28995714D01*
X70413810Y-29043333D01*
X70461429Y-29090952D01*
X70509048Y-29186190D01*
X70509048Y-29471905D01*
X70461429Y-29567143D01*
X70413810Y-29614762D01*
X70318572Y-29662381D01*
X70128095Y-29662381D01*
X70032857Y-29614762D01*
X71366191Y-28995714D02*
X71366191Y-29662381D01*
X70937619Y-28995714D02*
X70937619Y-29519524D01*
X70985238Y-29614762D01*
X71080476Y-29662381D01*
X71223334Y-29662381D01*
X71318572Y-29614762D01*
X71366191Y-29567143D01*
X71699524Y-28995714D02*
X72080476Y-28995714D01*
X71842381Y-28662381D02*
X71842381Y-29519524D01*
X71890000Y-29614762D01*
X71985238Y-29662381D01*
X72080476Y-29662381D01*
X73747144Y-29662381D02*
X73413810Y-29186190D01*
X73175715Y-29662381D02*
X73175715Y-28662381D01*
X73556668Y-28662381D01*
X73651906Y-28710000D01*
X73699525Y-28757619D01*
X73747144Y-28852857D01*
X73747144Y-28995714D01*
X73699525Y-29090952D01*
X73651906Y-29138571D01*
X73556668Y-29186190D01*
X73175715Y-29186190D01*
X74318572Y-29662381D02*
X74223334Y-29614762D01*
X74175715Y-29567143D01*
X74128096Y-29471905D01*
X74128096Y-29186190D01*
X74175715Y-29090952D01*
X74223334Y-29043333D01*
X74318572Y-28995714D01*
X74461430Y-28995714D01*
X74556668Y-29043333D01*
X74604287Y-29090952D01*
X74651906Y-29186190D01*
X74651906Y-29471905D01*
X74604287Y-29567143D01*
X74556668Y-29614762D01*
X74461430Y-29662381D01*
X74318572Y-29662381D01*
X74985239Y-28995714D02*
X75175715Y-29662381D01*
X75366192Y-29186190D01*
X75556668Y-29662381D01*
X75747144Y-28995714D01*
X76842382Y-29376667D02*
X77318573Y-29376667D01*
X76747144Y-29662381D02*
X77080477Y-28662381D01*
X77413811Y-29662381D01*
X121586667Y-75862381D02*
X121586667Y-76576667D01*
X121539047Y-76719524D01*
X121443809Y-76814762D01*
X121300952Y-76862381D01*
X121205714Y-76862381D01*
X121967619Y-75862381D02*
X122586667Y-75862381D01*
X122253333Y-76243333D01*
X122396191Y-76243333D01*
X122491429Y-76290952D01*
X122539048Y-76338571D01*
X122586667Y-76433810D01*
X122586667Y-76671905D01*
X122539048Y-76767143D01*
X122491429Y-76814762D01*
X122396191Y-76862381D01*
X122110476Y-76862381D01*
X122015238Y-76814762D01*
X121967619Y-76767143D01*
X120681905Y-80522381D02*
X121300953Y-80522381D01*
X120967619Y-80903333D01*
X121110477Y-80903333D01*
X121205715Y-80950952D01*
X121253334Y-80998571D01*
X121300953Y-81093810D01*
X121300953Y-81331905D01*
X121253334Y-81427143D01*
X121205715Y-81474762D01*
X121110477Y-81522381D01*
X120824762Y-81522381D01*
X120729524Y-81474762D01*
X120681905Y-81427143D01*
X121586667Y-80522381D02*
X121920000Y-81522381D01*
X122253334Y-80522381D01*
X122491429Y-80522381D02*
X123110477Y-80522381D01*
X122777143Y-80903333D01*
X122920001Y-80903333D01*
X123015239Y-80950952D01*
X123062858Y-80998571D01*
X123110477Y-81093810D01*
X123110477Y-81331905D01*
X123062858Y-81427143D01*
X123015239Y-81474762D01*
X122920001Y-81522381D01*
X122634286Y-81522381D01*
X122539048Y-81474762D01*
X122491429Y-81427143D01*
X83482381Y-74469523D02*
X84196667Y-74469523D01*
X84339524Y-74517143D01*
X84434762Y-74612381D01*
X84482381Y-74755238D01*
X84482381Y-74850476D01*
X84482381Y-73469523D02*
X84482381Y-74040952D01*
X84482381Y-73755238D02*
X83482381Y-73755238D01*
X83625238Y-73850476D01*
X83720476Y-73945714D01*
X83768095Y-74040952D01*
X83482381Y-72850476D02*
X83482381Y-72755237D01*
X83530000Y-72659999D01*
X83577619Y-72612380D01*
X83672857Y-72564761D01*
X83863333Y-72517142D01*
X84101429Y-72517142D01*
X84291905Y-72564761D01*
X84387143Y-72612380D01*
X84434762Y-72659999D01*
X84482381Y-72755237D01*
X84482381Y-72850476D01*
X84434762Y-72945714D01*
X84387143Y-72993333D01*
X84291905Y-73040952D01*
X84101429Y-73088571D01*
X83863333Y-73088571D01*
X83672857Y-73040952D01*
X83577619Y-72993333D01*
X83530000Y-72945714D01*
X83482381Y-72850476D01*
X91634762Y-77540953D02*
X91682381Y-77398096D01*
X91682381Y-77160000D01*
X91634762Y-77064762D01*
X91587143Y-77017143D01*
X91491905Y-76969524D01*
X91396667Y-76969524D01*
X91301429Y-77017143D01*
X91253810Y-77064762D01*
X91206190Y-77160000D01*
X91158571Y-77350477D01*
X91110952Y-77445715D01*
X91063333Y-77493334D01*
X90968095Y-77540953D01*
X90872857Y-77540953D01*
X90777619Y-77493334D01*
X90730000Y-77445715D01*
X90682381Y-77350477D01*
X90682381Y-77112381D01*
X90730000Y-76969524D01*
X91587143Y-75969524D02*
X91634762Y-76017143D01*
X91682381Y-76160000D01*
X91682381Y-76255238D01*
X91634762Y-76398096D01*
X91539524Y-76493334D01*
X91444286Y-76540953D01*
X91253810Y-76588572D01*
X91110952Y-76588572D01*
X90920476Y-76540953D01*
X90825238Y-76493334D01*
X90730000Y-76398096D01*
X90682381Y-76255238D01*
X90682381Y-76160000D01*
X90730000Y-76017143D01*
X90777619Y-75969524D01*
X91682381Y-75064762D02*
X91682381Y-75540953D01*
X90682381Y-75540953D01*
X90634762Y-73255238D02*
X91920476Y-74112381D01*
X91634762Y-72207619D02*
X91682381Y-72064762D01*
X91682381Y-71826666D01*
X91634762Y-71731428D01*
X91587143Y-71683809D01*
X91491905Y-71636190D01*
X91396667Y-71636190D01*
X91301429Y-71683809D01*
X91253810Y-71731428D01*
X91206190Y-71826666D01*
X91158571Y-72017143D01*
X91110952Y-72112381D01*
X91063333Y-72160000D01*
X90968095Y-72207619D01*
X90872857Y-72207619D01*
X90777619Y-72160000D01*
X90730000Y-72112381D01*
X90682381Y-72017143D01*
X90682381Y-71779047D01*
X90730000Y-71636190D01*
X91682381Y-71207619D02*
X90682381Y-71207619D01*
X90682381Y-70969524D01*
X90730000Y-70826666D01*
X90825238Y-70731428D01*
X90920476Y-70683809D01*
X91110952Y-70636190D01*
X91253810Y-70636190D01*
X91444286Y-70683809D01*
X91539524Y-70731428D01*
X91634762Y-70826666D01*
X91682381Y-70969524D01*
X91682381Y-71207619D01*
X91396667Y-70255238D02*
X91396667Y-69779047D01*
X91682381Y-70350476D02*
X90682381Y-70017143D01*
X91682381Y-69683809D01*
X113542381Y-79549523D02*
X114256667Y-79549523D01*
X114399524Y-79597143D01*
X114494762Y-79692381D01*
X114542381Y-79835238D01*
X114542381Y-79930476D01*
X114542381Y-78549523D02*
X114542381Y-79120952D01*
X114542381Y-78835238D02*
X113542381Y-78835238D01*
X113685238Y-78930476D01*
X113780476Y-79025714D01*
X113828095Y-79120952D01*
X113542381Y-77644761D02*
X113542381Y-78120952D01*
X114018571Y-78168571D01*
X113970952Y-78120952D01*
X113923333Y-78025714D01*
X113923333Y-77787618D01*
X113970952Y-77692380D01*
X114018571Y-77644761D01*
X114113810Y-77597142D01*
X114351905Y-77597142D01*
X114447143Y-77644761D01*
X114494762Y-77692380D01*
X114542381Y-77787618D01*
X114542381Y-78025714D01*
X114494762Y-78120952D01*
X114447143Y-78168571D01*
X106342381Y-33829523D02*
X107056667Y-33829523D01*
X107199524Y-33877143D01*
X107294762Y-33972381D01*
X107342381Y-34115238D01*
X107342381Y-34210476D01*
X106437619Y-33400952D02*
X106390000Y-33353333D01*
X106342381Y-33258095D01*
X106342381Y-33019999D01*
X106390000Y-32924761D01*
X106437619Y-32877142D01*
X106532857Y-32829523D01*
X106628095Y-32829523D01*
X106770952Y-32877142D01*
X107342381Y-33448571D01*
X107342381Y-32829523D01*
X106342381Y-32210476D02*
X106342381Y-32115237D01*
X106390000Y-32019999D01*
X106437619Y-31972380D01*
X106532857Y-31924761D01*
X106723333Y-31877142D01*
X106961429Y-31877142D01*
X107151905Y-31924761D01*
X107247143Y-31972380D01*
X107294762Y-32019999D01*
X107342381Y-32115237D01*
X107342381Y-32210476D01*
X107294762Y-32305714D01*
X107247143Y-32353333D01*
X107151905Y-32400952D01*
X106961429Y-32448571D01*
X106723333Y-32448571D01*
X106532857Y-32400952D01*
X106437619Y-32353333D01*
X106390000Y-32305714D01*
X106342381Y-32210476D01*
X124841428Y-32948571D02*
X125174762Y-32948571D01*
X125317619Y-33472381D02*
X124841428Y-33472381D01*
X124841428Y-32472381D01*
X125317619Y-32472381D01*
X125650952Y-33472381D02*
X126174762Y-32805714D01*
X125650952Y-32805714D02*
X126174762Y-33472381D01*
X126412857Y-32805714D02*
X126793809Y-32805714D01*
X126555714Y-32472381D02*
X126555714Y-33329524D01*
X126603333Y-33424762D01*
X126698571Y-33472381D01*
X126793809Y-33472381D01*
X127127143Y-33472381D02*
X127127143Y-32805714D01*
X127127143Y-32996190D02*
X127174762Y-32900952D01*
X127222381Y-32853333D01*
X127317619Y-32805714D01*
X127412858Y-32805714D01*
X128174763Y-33472381D02*
X128174763Y-32948571D01*
X128127144Y-32853333D01*
X128031906Y-32805714D01*
X127841429Y-32805714D01*
X127746191Y-32853333D01*
X128174763Y-33424762D02*
X128079525Y-33472381D01*
X127841429Y-33472381D01*
X127746191Y-33424762D01*
X127698572Y-33329524D01*
X127698572Y-33234286D01*
X127746191Y-33139048D01*
X127841429Y-33091429D01*
X128079525Y-33091429D01*
X128174763Y-33043810D01*
X129317620Y-32472381D02*
X129936668Y-32472381D01*
X129603334Y-32853333D01*
X129746192Y-32853333D01*
X129841430Y-32900952D01*
X129889049Y-32948571D01*
X129936668Y-33043810D01*
X129936668Y-33281905D01*
X129889049Y-33377143D01*
X129841430Y-33424762D01*
X129746192Y-33472381D01*
X129460477Y-33472381D01*
X129365239Y-33424762D01*
X129317620Y-33377143D01*
X130222382Y-32472381D02*
X130555715Y-33472381D01*
X130889049Y-32472381D01*
X131127144Y-32472381D02*
X131746192Y-32472381D01*
X131412858Y-32853333D01*
X131555716Y-32853333D01*
X131650954Y-32900952D01*
X131698573Y-32948571D01*
X131746192Y-33043810D01*
X131746192Y-33281905D01*
X131698573Y-33377143D01*
X131650954Y-33424762D01*
X131555716Y-33472381D01*
X131270001Y-33472381D01*
X131174763Y-33424762D01*
X131127144Y-33377143D01*
X106342381Y-37639523D02*
X107056667Y-37639523D01*
X107199524Y-37687143D01*
X107294762Y-37782381D01*
X107342381Y-37925238D01*
X107342381Y-38020476D01*
X106437619Y-37210952D02*
X106390000Y-37163333D01*
X106342381Y-37068095D01*
X106342381Y-36829999D01*
X106390000Y-36734761D01*
X106437619Y-36687142D01*
X106532857Y-36639523D01*
X106628095Y-36639523D01*
X106770952Y-36687142D01*
X107342381Y-37258571D01*
X107342381Y-36639523D01*
X107342381Y-35687142D02*
X107342381Y-36258571D01*
X107342381Y-35972857D02*
X106342381Y-35972857D01*
X106485238Y-36068095D01*
X106580476Y-36163333D01*
X106628095Y-36258571D01*
X124206666Y-36282381D02*
X124778095Y-36282381D01*
X124492380Y-37282381D02*
X124492380Y-36282381D01*
X125492381Y-37234762D02*
X125397143Y-37282381D01*
X125206666Y-37282381D01*
X125111428Y-37234762D01*
X125063809Y-37139524D01*
X125063809Y-36758571D01*
X125111428Y-36663333D01*
X125206666Y-36615714D01*
X125397143Y-36615714D01*
X125492381Y-36663333D01*
X125540000Y-36758571D01*
X125540000Y-36853810D01*
X125063809Y-36949048D01*
X125968571Y-37282381D02*
X125968571Y-36615714D01*
X125968571Y-36710952D02*
X126016190Y-36663333D01*
X126111428Y-36615714D01*
X126254286Y-36615714D01*
X126349524Y-36663333D01*
X126397143Y-36758571D01*
X126397143Y-37282381D01*
X126397143Y-36758571D02*
X126444762Y-36663333D01*
X126540000Y-36615714D01*
X126682857Y-36615714D01*
X126778095Y-36663333D01*
X126825714Y-36758571D01*
X126825714Y-37282381D01*
X127301904Y-36615714D02*
X127301904Y-37615714D01*
X127301904Y-36663333D02*
X127397142Y-36615714D01*
X127587619Y-36615714D01*
X127682857Y-36663333D01*
X127730476Y-36710952D01*
X127778095Y-36806190D01*
X127778095Y-37091905D01*
X127730476Y-37187143D01*
X127682857Y-37234762D01*
X127587619Y-37282381D01*
X127397142Y-37282381D01*
X127301904Y-37234762D01*
X128920952Y-37234762D02*
X129063809Y-37282381D01*
X129301905Y-37282381D01*
X129397143Y-37234762D01*
X129444762Y-37187143D01*
X129492381Y-37091905D01*
X129492381Y-36996667D01*
X129444762Y-36901429D01*
X129397143Y-36853810D01*
X129301905Y-36806190D01*
X129111428Y-36758571D01*
X129016190Y-36710952D01*
X128968571Y-36663333D01*
X128920952Y-36568095D01*
X128920952Y-36472857D01*
X128968571Y-36377619D01*
X129016190Y-36330000D01*
X129111428Y-36282381D01*
X129349524Y-36282381D01*
X129492381Y-36330000D01*
X130301905Y-37234762D02*
X130206667Y-37282381D01*
X130016190Y-37282381D01*
X129920952Y-37234762D01*
X129873333Y-37139524D01*
X129873333Y-36758571D01*
X129920952Y-36663333D01*
X130016190Y-36615714D01*
X130206667Y-36615714D01*
X130301905Y-36663333D01*
X130349524Y-36758571D01*
X130349524Y-36853810D01*
X129873333Y-36949048D01*
X130778095Y-36615714D02*
X130778095Y-37282381D01*
X130778095Y-36710952D02*
X130825714Y-36663333D01*
X130920952Y-36615714D01*
X131063810Y-36615714D01*
X131159048Y-36663333D01*
X131206667Y-36758571D01*
X131206667Y-37282381D01*
X131635238Y-37234762D02*
X131730476Y-37282381D01*
X131920952Y-37282381D01*
X132016191Y-37234762D01*
X132063810Y-37139524D01*
X132063810Y-37091905D01*
X132016191Y-36996667D01*
X131920952Y-36949048D01*
X131778095Y-36949048D01*
X131682857Y-36901429D01*
X131635238Y-36806190D01*
X131635238Y-36758571D01*
X131682857Y-36663333D01*
X131778095Y-36615714D01*
X131920952Y-36615714D01*
X132016191Y-36663333D01*
X133254286Y-37282381D02*
X133254286Y-36282381D01*
X133492381Y-36282381D01*
X133635239Y-36330000D01*
X133730477Y-36425238D01*
X133778096Y-36520476D01*
X133825715Y-36710952D01*
X133825715Y-36853810D01*
X133778096Y-37044286D01*
X133730477Y-37139524D01*
X133635239Y-37234762D01*
X133492381Y-37282381D01*
X133254286Y-37282381D01*
X134206667Y-37234762D02*
X134349524Y-37282381D01*
X134587620Y-37282381D01*
X134682858Y-37234762D01*
X134730477Y-37187143D01*
X134778096Y-37091905D01*
X134778096Y-36996667D01*
X134730477Y-36901429D01*
X134682858Y-36853810D01*
X134587620Y-36806190D01*
X134397143Y-36758571D01*
X134301905Y-36710952D01*
X134254286Y-36663333D01*
X134206667Y-36568095D01*
X134206667Y-36472857D01*
X134254286Y-36377619D01*
X134301905Y-36330000D01*
X134397143Y-36282381D01*
X134635239Y-36282381D01*
X134778096Y-36330000D01*
X106342381Y-28749523D02*
X107056667Y-28749523D01*
X107199524Y-28797143D01*
X107294762Y-28892381D01*
X107342381Y-29035238D01*
X107342381Y-29130476D01*
X106437619Y-28320952D02*
X106390000Y-28273333D01*
X106342381Y-28178095D01*
X106342381Y-27939999D01*
X106390000Y-27844761D01*
X106437619Y-27797142D01*
X106532857Y-27749523D01*
X106628095Y-27749523D01*
X106770952Y-27797142D01*
X107342381Y-28368571D01*
X107342381Y-27749523D01*
X106437619Y-27368571D02*
X106390000Y-27320952D01*
X106342381Y-27225714D01*
X106342381Y-26987618D01*
X106390000Y-26892380D01*
X106437619Y-26844761D01*
X106532857Y-26797142D01*
X106628095Y-26797142D01*
X106770952Y-26844761D01*
X107342381Y-27416190D01*
X107342381Y-26797142D01*
X124698571Y-27868571D02*
X125031905Y-27868571D01*
X125174762Y-28392381D02*
X124698571Y-28392381D01*
X124698571Y-27392381D01*
X125174762Y-27392381D01*
X125508095Y-28392381D02*
X126031905Y-27725714D01*
X125508095Y-27725714D02*
X126031905Y-28392381D01*
X126270000Y-27725714D02*
X126650952Y-27725714D01*
X126412857Y-27392381D02*
X126412857Y-28249524D01*
X126460476Y-28344762D01*
X126555714Y-28392381D01*
X126650952Y-28392381D01*
X126984286Y-28392381D02*
X126984286Y-27725714D01*
X126984286Y-27916190D02*
X127031905Y-27820952D01*
X127079524Y-27773333D01*
X127174762Y-27725714D01*
X127270001Y-27725714D01*
X128031906Y-28392381D02*
X128031906Y-27868571D01*
X127984287Y-27773333D01*
X127889049Y-27725714D01*
X127698572Y-27725714D01*
X127603334Y-27773333D01*
X128031906Y-28344762D02*
X127936668Y-28392381D01*
X127698572Y-28392381D01*
X127603334Y-28344762D01*
X127555715Y-28249524D01*
X127555715Y-28154286D01*
X127603334Y-28059048D01*
X127698572Y-28011429D01*
X127936668Y-28011429D01*
X128031906Y-27963810D01*
X129793811Y-27440000D02*
X129698573Y-27392381D01*
X129555716Y-27392381D01*
X129412858Y-27440000D01*
X129317620Y-27535238D01*
X129270001Y-27630476D01*
X129222382Y-27820952D01*
X129222382Y-27963810D01*
X129270001Y-28154286D01*
X129317620Y-28249524D01*
X129412858Y-28344762D01*
X129555716Y-28392381D01*
X129650954Y-28392381D01*
X129793811Y-28344762D01*
X129841430Y-28297143D01*
X129841430Y-27963810D01*
X129650954Y-27963810D01*
X130270001Y-28392381D02*
X130270001Y-27392381D01*
X130841430Y-28392381D01*
X130841430Y-27392381D01*
X131317620Y-28392381D02*
X131317620Y-27392381D01*
X131555715Y-27392381D01*
X131698573Y-27440000D01*
X131793811Y-27535238D01*
X131841430Y-27630476D01*
X131889049Y-27820952D01*
X131889049Y-27963810D01*
X131841430Y-28154286D01*
X131793811Y-28249524D01*
X131698573Y-28344762D01*
X131555715Y-28392381D01*
X131317620Y-28392381D01*
X122380477Y-58082381D02*
X122380477Y-58796667D01*
X122332857Y-58939524D01*
X122237619Y-59034762D01*
X122094762Y-59082381D01*
X121999524Y-59082381D01*
X122761429Y-58082381D02*
X123380477Y-58082381D01*
X123047143Y-58463333D01*
X123190001Y-58463333D01*
X123285239Y-58510952D01*
X123332858Y-58558571D01*
X123380477Y-58653810D01*
X123380477Y-58891905D01*
X123332858Y-58987143D01*
X123285239Y-59034762D01*
X123190001Y-59082381D01*
X122904286Y-59082381D01*
X122809048Y-59034762D01*
X122761429Y-58987143D01*
X123999524Y-58082381D02*
X124094763Y-58082381D01*
X124190001Y-58130000D01*
X124237620Y-58177619D01*
X124285239Y-58272857D01*
X124332858Y-58463333D01*
X124332858Y-58701429D01*
X124285239Y-58891905D01*
X124237620Y-58987143D01*
X124190001Y-59034762D01*
X124094763Y-59082381D01*
X123999524Y-59082381D01*
X123904286Y-59034762D01*
X123856667Y-58987143D01*
X123809048Y-58891905D01*
X123761429Y-58701429D01*
X123761429Y-58463333D01*
X123809048Y-58272857D01*
X123856667Y-58177619D01*
X123904286Y-58130000D01*
X123999524Y-58082381D01*
X118713810Y-71362381D02*
X118380476Y-70886190D01*
X118142381Y-71362381D02*
X118142381Y-70362381D01*
X118523334Y-70362381D01*
X118618572Y-70410000D01*
X118666191Y-70457619D01*
X118713810Y-70552857D01*
X118713810Y-70695714D01*
X118666191Y-70790952D01*
X118618572Y-70838571D01*
X118523334Y-70886190D01*
X118142381Y-70886190D01*
X119142381Y-71362381D02*
X119142381Y-70362381D01*
X119523334Y-70362381D01*
X119618572Y-70410000D01*
X119666191Y-70457619D01*
X119713810Y-70552857D01*
X119713810Y-70695714D01*
X119666191Y-70790952D01*
X119618572Y-70838571D01*
X119523334Y-70886190D01*
X119142381Y-70886190D01*
X120142381Y-71362381D02*
X120142381Y-70362381D01*
X121332857Y-71076667D02*
X121809048Y-71076667D01*
X121237619Y-71362381D02*
X121570952Y-70362381D01*
X121904286Y-71362381D01*
X122237619Y-71362381D02*
X122237619Y-70362381D01*
X122475714Y-70362381D01*
X122618572Y-70410000D01*
X122713810Y-70505238D01*
X122761429Y-70600476D01*
X122809048Y-70790952D01*
X122809048Y-70933810D01*
X122761429Y-71124286D01*
X122713810Y-71219524D01*
X122618572Y-71314762D01*
X122475714Y-71362381D01*
X122237619Y-71362381D01*
X123809048Y-71267143D02*
X123761429Y-71314762D01*
X123618572Y-71362381D01*
X123523334Y-71362381D01*
X123380476Y-71314762D01*
X123285238Y-71219524D01*
X123237619Y-71124286D01*
X123190000Y-70933810D01*
X123190000Y-70790952D01*
X123237619Y-70600476D01*
X123285238Y-70505238D01*
X123380476Y-70410000D01*
X123523334Y-70362381D01*
X123618572Y-70362381D01*
X123761429Y-70410000D01*
X123809048Y-70457619D01*
X125570953Y-71267143D02*
X125523334Y-71314762D01*
X125380477Y-71362381D01*
X125285239Y-71362381D01*
X125142381Y-71314762D01*
X125047143Y-71219524D01*
X124999524Y-71124286D01*
X124951905Y-70933810D01*
X124951905Y-70790952D01*
X124999524Y-70600476D01*
X125047143Y-70505238D01*
X125142381Y-70410000D01*
X125285239Y-70362381D01*
X125380477Y-70362381D01*
X125523334Y-70410000D01*
X125570953Y-70457619D01*
X126142381Y-71362381D02*
X126047143Y-71314762D01*
X125999524Y-71267143D01*
X125951905Y-71171905D01*
X125951905Y-70886190D01*
X125999524Y-70790952D01*
X126047143Y-70743333D01*
X126142381Y-70695714D01*
X126285239Y-70695714D01*
X126380477Y-70743333D01*
X126428096Y-70790952D01*
X126475715Y-70886190D01*
X126475715Y-71171905D01*
X126428096Y-71267143D01*
X126380477Y-71314762D01*
X126285239Y-71362381D01*
X126142381Y-71362381D01*
X126904286Y-70695714D02*
X126904286Y-71362381D01*
X126904286Y-70790952D02*
X126951905Y-70743333D01*
X127047143Y-70695714D01*
X127190001Y-70695714D01*
X127285239Y-70743333D01*
X127332858Y-70838571D01*
X127332858Y-71362381D01*
X127809048Y-70695714D02*
X127809048Y-71362381D01*
X127809048Y-70790952D02*
X127856667Y-70743333D01*
X127951905Y-70695714D01*
X128094763Y-70695714D01*
X128190001Y-70743333D01*
X128237620Y-70838571D01*
X128237620Y-71362381D01*
X100790477Y-50462381D02*
X100790477Y-51176667D01*
X100742857Y-51319524D01*
X100647619Y-51414762D01*
X100504762Y-51462381D01*
X100409524Y-51462381D01*
X101171429Y-50462381D02*
X101790477Y-50462381D01*
X101457143Y-50843333D01*
X101600001Y-50843333D01*
X101695239Y-50890952D01*
X101742858Y-50938571D01*
X101790477Y-51033810D01*
X101790477Y-51271905D01*
X101742858Y-51367143D01*
X101695239Y-51414762D01*
X101600001Y-51462381D01*
X101314286Y-51462381D01*
X101219048Y-51414762D01*
X101171429Y-51367143D01*
X102742858Y-51462381D02*
X102171429Y-51462381D01*
X102457143Y-51462381D02*
X102457143Y-50462381D01*
X102361905Y-50605238D01*
X102266667Y-50700476D01*
X102171429Y-50748095D01*
X99290476Y-73616667D02*
X99766667Y-73616667D01*
X99195238Y-73902381D02*
X99528571Y-72902381D01*
X99861905Y-73902381D01*
X100195238Y-73235714D02*
X100195238Y-73902381D01*
X100195238Y-73330952D02*
X100242857Y-73283333D01*
X100338095Y-73235714D01*
X100480953Y-73235714D01*
X100576191Y-73283333D01*
X100623810Y-73378571D01*
X100623810Y-73902381D01*
X101528572Y-73902381D02*
X101528572Y-73378571D01*
X101480953Y-73283333D01*
X101385715Y-73235714D01*
X101195238Y-73235714D01*
X101100000Y-73283333D01*
X101528572Y-73854762D02*
X101433334Y-73902381D01*
X101195238Y-73902381D01*
X101100000Y-73854762D01*
X101052381Y-73759524D01*
X101052381Y-73664286D01*
X101100000Y-73569048D01*
X101195238Y-73521429D01*
X101433334Y-73521429D01*
X101528572Y-73473810D01*
X102147619Y-73902381D02*
X102052381Y-73854762D01*
X102004762Y-73759524D01*
X102004762Y-72902381D01*
X102671429Y-73902381D02*
X102576191Y-73854762D01*
X102528572Y-73807143D01*
X102480953Y-73711905D01*
X102480953Y-73426190D01*
X102528572Y-73330952D01*
X102576191Y-73283333D01*
X102671429Y-73235714D01*
X102814287Y-73235714D01*
X102909525Y-73283333D01*
X102957144Y-73330952D01*
X103004763Y-73426190D01*
X103004763Y-73711905D01*
X102957144Y-73807143D01*
X102909525Y-73854762D01*
X102814287Y-73902381D01*
X102671429Y-73902381D01*
X103861906Y-73235714D02*
X103861906Y-74045238D01*
X103814287Y-74140476D01*
X103766668Y-74188095D01*
X103671429Y-74235714D01*
X103528572Y-74235714D01*
X103433334Y-74188095D01*
X103861906Y-73854762D02*
X103766668Y-73902381D01*
X103576191Y-73902381D01*
X103480953Y-73854762D01*
X103433334Y-73807143D01*
X103385715Y-73711905D01*
X103385715Y-73426190D01*
X103433334Y-73330952D01*
X103480953Y-73283333D01*
X103576191Y-73235714D01*
X103766668Y-73235714D01*
X103861906Y-73283333D01*
X84280477Y-30142381D02*
X84280477Y-30856667D01*
X84232857Y-30999524D01*
X84137619Y-31094762D01*
X83994762Y-31142381D01*
X83899524Y-31142381D01*
X85185239Y-30475714D02*
X85185239Y-31142381D01*
X84947143Y-30094762D02*
X84709048Y-30809048D01*
X85328096Y-30809048D01*
X85899524Y-30142381D02*
X85994763Y-30142381D01*
X86090001Y-30190000D01*
X86137620Y-30237619D01*
X86185239Y-30332857D01*
X86232858Y-30523333D01*
X86232858Y-30761429D01*
X86185239Y-30951905D01*
X86137620Y-31047143D01*
X86090001Y-31094762D01*
X85994763Y-31142381D01*
X85899524Y-31142381D01*
X85804286Y-31094762D01*
X85756667Y-31047143D01*
X85709048Y-30951905D01*
X85661429Y-30761429D01*
X85661429Y-30523333D01*
X85709048Y-30332857D01*
X85756667Y-30237619D01*
X85804286Y-30190000D01*
X85899524Y-30142381D01*
X82661429Y-37818571D02*
X82328095Y-37818571D01*
X82328095Y-38342381D02*
X82328095Y-37342381D01*
X82804286Y-37342381D01*
X83137619Y-38294762D02*
X83280476Y-38342381D01*
X83518572Y-38342381D01*
X83613810Y-38294762D01*
X83661429Y-38247143D01*
X83709048Y-38151905D01*
X83709048Y-38056667D01*
X83661429Y-37961429D01*
X83613810Y-37913810D01*
X83518572Y-37866190D01*
X83328095Y-37818571D01*
X83232857Y-37770952D01*
X83185238Y-37723333D01*
X83137619Y-37628095D01*
X83137619Y-37532857D01*
X83185238Y-37437619D01*
X83232857Y-37390000D01*
X83328095Y-37342381D01*
X83566191Y-37342381D01*
X83709048Y-37390000D01*
X84090000Y-37437619D02*
X84137619Y-37390000D01*
X84232857Y-37342381D01*
X84470953Y-37342381D01*
X84566191Y-37390000D01*
X84613810Y-37437619D01*
X84661429Y-37532857D01*
X84661429Y-37628095D01*
X84613810Y-37770952D01*
X84042381Y-38342381D01*
X84661429Y-38342381D01*
X85280476Y-37342381D02*
X85375715Y-37342381D01*
X85470953Y-37390000D01*
X85518572Y-37437619D01*
X85566191Y-37532857D01*
X85613810Y-37723333D01*
X85613810Y-37961429D01*
X85566191Y-38151905D01*
X85518572Y-38247143D01*
X85470953Y-38294762D01*
X85375715Y-38342381D01*
X85280476Y-38342381D01*
X85185238Y-38294762D01*
X85137619Y-38247143D01*
X85090000Y-38151905D01*
X85042381Y-37961429D01*
X85042381Y-37723333D01*
X85090000Y-37532857D01*
X85137619Y-37437619D01*
X85185238Y-37390000D01*
X85280476Y-37342381D01*
X86804286Y-38342381D02*
X86804286Y-37342381D01*
X87280476Y-38342381D02*
X87280476Y-37342381D01*
X87851905Y-38342381D01*
X87851905Y-37342381D01*
X91900477Y-27602381D02*
X91900477Y-28316667D01*
X91852857Y-28459524D01*
X91757619Y-28554762D01*
X91614762Y-28602381D01*
X91519524Y-28602381D01*
X92805239Y-27935714D02*
X92805239Y-28602381D01*
X92567143Y-27554762D02*
X92329048Y-28269048D01*
X92948096Y-28269048D01*
X93852858Y-28602381D02*
X93281429Y-28602381D01*
X93567143Y-28602381D02*
X93567143Y-27602381D01*
X93471905Y-27745238D01*
X93376667Y-27840476D01*
X93281429Y-27888095D01*
X89614762Y-40358571D02*
X89281428Y-40358571D01*
X89281428Y-40882381D02*
X89281428Y-39882381D01*
X89757619Y-39882381D01*
X90090952Y-40834762D02*
X90233809Y-40882381D01*
X90471905Y-40882381D01*
X90567143Y-40834762D01*
X90614762Y-40787143D01*
X90662381Y-40691905D01*
X90662381Y-40596667D01*
X90614762Y-40501429D01*
X90567143Y-40453810D01*
X90471905Y-40406190D01*
X90281428Y-40358571D01*
X90186190Y-40310952D01*
X90138571Y-40263333D01*
X90090952Y-40168095D01*
X90090952Y-40072857D01*
X90138571Y-39977619D01*
X90186190Y-39930000D01*
X90281428Y-39882381D01*
X90519524Y-39882381D01*
X90662381Y-39930000D01*
X91043333Y-39977619D02*
X91090952Y-39930000D01*
X91186190Y-39882381D01*
X91424286Y-39882381D01*
X91519524Y-39930000D01*
X91567143Y-39977619D01*
X91614762Y-40072857D01*
X91614762Y-40168095D01*
X91567143Y-40310952D01*
X90995714Y-40882381D01*
X91614762Y-40882381D01*
X92233809Y-39882381D02*
X92329048Y-39882381D01*
X92424286Y-39930000D01*
X92471905Y-39977619D01*
X92519524Y-40072857D01*
X92567143Y-40263333D01*
X92567143Y-40501429D01*
X92519524Y-40691905D01*
X92471905Y-40787143D01*
X92424286Y-40834762D01*
X92329048Y-40882381D01*
X92233809Y-40882381D01*
X92138571Y-40834762D01*
X92090952Y-40787143D01*
X92043333Y-40691905D01*
X91995714Y-40501429D01*
X91995714Y-40263333D01*
X92043333Y-40072857D01*
X92090952Y-39977619D01*
X92138571Y-39930000D01*
X92233809Y-39882381D01*
X93948095Y-39882381D02*
X94138572Y-39882381D01*
X94233810Y-39930000D01*
X94329048Y-40025238D01*
X94376667Y-40215714D01*
X94376667Y-40549048D01*
X94329048Y-40739524D01*
X94233810Y-40834762D01*
X94138572Y-40882381D01*
X93948095Y-40882381D01*
X93852857Y-40834762D01*
X93757619Y-40739524D01*
X93710000Y-40549048D01*
X93710000Y-40215714D01*
X93757619Y-40025238D01*
X93852857Y-39930000D01*
X93948095Y-39882381D01*
X94805238Y-39882381D02*
X94805238Y-40691905D01*
X94852857Y-40787143D01*
X94900476Y-40834762D01*
X94995714Y-40882381D01*
X95186191Y-40882381D01*
X95281429Y-40834762D01*
X95329048Y-40787143D01*
X95376667Y-40691905D01*
X95376667Y-39882381D01*
X95710000Y-39882381D02*
X96281429Y-39882381D01*
X95995714Y-40882381D02*
X95995714Y-39882381D01*
X91900477Y-27602381D02*
X91900477Y-28316667D01*
X91852857Y-28459524D01*
X91757619Y-28554762D01*
X91614762Y-28602381D01*
X91519524Y-28602381D01*
X92805239Y-27935714D02*
X92805239Y-28602381D01*
X92567143Y-27554762D02*
X92329048Y-28269048D01*
X92948096Y-28269048D01*
X93852858Y-28602381D02*
X93281429Y-28602381D01*
X93567143Y-28602381D02*
X93567143Y-27602381D01*
X93471905Y-27745238D01*
X93376667Y-27840476D01*
X93281429Y-27888095D01*
X110950477Y-83482381D02*
X110950477Y-84196667D01*
X110902857Y-84339524D01*
X110807619Y-84434762D01*
X110664762Y-84482381D01*
X110569524Y-84482381D01*
X111855239Y-83482381D02*
X111664762Y-83482381D01*
X111569524Y-83530000D01*
X111521905Y-83577619D01*
X111426667Y-83720476D01*
X111379048Y-83910952D01*
X111379048Y-84291905D01*
X111426667Y-84387143D01*
X111474286Y-84434762D01*
X111569524Y-84482381D01*
X111760001Y-84482381D01*
X111855239Y-84434762D01*
X111902858Y-84387143D01*
X111950477Y-84291905D01*
X111950477Y-84053810D01*
X111902858Y-83958571D01*
X111855239Y-83910952D01*
X111760001Y-83863333D01*
X111569524Y-83863333D01*
X111474286Y-83910952D01*
X111426667Y-83958571D01*
X111379048Y-84053810D01*
X112569524Y-83482381D02*
X112664763Y-83482381D01*
X112760001Y-83530000D01*
X112807620Y-83577619D01*
X112855239Y-83672857D01*
X112902858Y-83863333D01*
X112902858Y-84101429D01*
X112855239Y-84291905D01*
X112807620Y-84387143D01*
X112760001Y-84434762D01*
X112664763Y-84482381D01*
X112569524Y-84482381D01*
X112474286Y-84434762D01*
X112426667Y-84387143D01*
X112379048Y-84291905D01*
X112331429Y-84101429D01*
X112331429Y-83863333D01*
X112379048Y-83672857D01*
X112426667Y-83577619D01*
X112474286Y-83530000D01*
X112569524Y-83482381D01*
X108426667Y-96762381D02*
X108426667Y-95762381D01*
X108426667Y-96238571D02*
X108998096Y-96238571D01*
X108998096Y-96762381D02*
X108998096Y-95762381D01*
X110045715Y-96667143D02*
X109998096Y-96714762D01*
X109855239Y-96762381D01*
X109760001Y-96762381D01*
X109617143Y-96714762D01*
X109521905Y-96619524D01*
X109474286Y-96524286D01*
X109426667Y-96333810D01*
X109426667Y-96190952D01*
X109474286Y-96000476D01*
X109521905Y-95905238D01*
X109617143Y-95810000D01*
X109760001Y-95762381D01*
X109855239Y-95762381D01*
X109998096Y-95810000D01*
X110045715Y-95857619D01*
X110474286Y-96381429D02*
X111236191Y-96381429D01*
X111664762Y-96714762D02*
X111807619Y-96762381D01*
X112045715Y-96762381D01*
X112140953Y-96714762D01*
X112188572Y-96667143D01*
X112236191Y-96571905D01*
X112236191Y-96476667D01*
X112188572Y-96381429D01*
X112140953Y-96333810D01*
X112045715Y-96286190D01*
X111855238Y-96238571D01*
X111760000Y-96190952D01*
X111712381Y-96143333D01*
X111664762Y-96048095D01*
X111664762Y-95952857D01*
X111712381Y-95857619D01*
X111760000Y-95810000D01*
X111855238Y-95762381D01*
X112093334Y-95762381D01*
X112236191Y-95810000D01*
X113236191Y-96762381D02*
X112902857Y-96286190D01*
X112664762Y-96762381D02*
X112664762Y-95762381D01*
X113045715Y-95762381D01*
X113140953Y-95810000D01*
X113188572Y-95857619D01*
X113236191Y-95952857D01*
X113236191Y-96095714D01*
X113188572Y-96190952D01*
X113140953Y-96238571D01*
X113045715Y-96286190D01*
X112664762Y-96286190D01*
X113855238Y-95762381D02*
X113950477Y-95762381D01*
X114045715Y-95810000D01*
X114093334Y-95857619D01*
X114140953Y-95952857D01*
X114188572Y-96143333D01*
X114188572Y-96381429D01*
X114140953Y-96571905D01*
X114093334Y-96667143D01*
X114045715Y-96714762D01*
X113950477Y-96762381D01*
X113855238Y-96762381D01*
X113760000Y-96714762D01*
X113712381Y-96667143D01*
X113664762Y-96571905D01*
X113617143Y-96381429D01*
X113617143Y-96143333D01*
X113664762Y-95952857D01*
X113712381Y-95857619D01*
X113760000Y-95810000D01*
X113855238Y-95762381D01*
X115045715Y-96095714D02*
X115045715Y-96762381D01*
X114807619Y-95714762D02*
X114569524Y-96429048D01*
X115188572Y-96429048D01*
X91900477Y-80942381D02*
X91900477Y-81656667D01*
X91852857Y-81799524D01*
X91757619Y-81894762D01*
X91614762Y-81942381D01*
X91519524Y-81942381D01*
X92805239Y-80942381D02*
X92614762Y-80942381D01*
X92519524Y-80990000D01*
X92471905Y-81037619D01*
X92376667Y-81180476D01*
X92329048Y-81370952D01*
X92329048Y-81751905D01*
X92376667Y-81847143D01*
X92424286Y-81894762D01*
X92519524Y-81942381D01*
X92710001Y-81942381D01*
X92805239Y-81894762D01*
X92852858Y-81847143D01*
X92900477Y-81751905D01*
X92900477Y-81513810D01*
X92852858Y-81418571D01*
X92805239Y-81370952D01*
X92710001Y-81323333D01*
X92519524Y-81323333D01*
X92424286Y-81370952D01*
X92376667Y-81418571D01*
X92329048Y-81513810D01*
X93852858Y-81942381D02*
X93281429Y-81942381D01*
X93567143Y-81942381D02*
X93567143Y-80942381D01*
X93471905Y-81085238D01*
X93376667Y-81180476D01*
X93281429Y-81228095D01*
X89138571Y-88142381D02*
X89138571Y-88951905D01*
X89186190Y-89047143D01*
X89233809Y-89094762D01*
X89329047Y-89142381D01*
X89519524Y-89142381D01*
X89614762Y-89094762D01*
X89662381Y-89047143D01*
X89710000Y-88951905D01*
X89710000Y-88142381D01*
X90329047Y-89142381D02*
X90233809Y-89094762D01*
X90186190Y-88999524D01*
X90186190Y-88142381D01*
X90567143Y-88475714D02*
X90948095Y-88475714D01*
X90710000Y-88142381D02*
X90710000Y-88999524D01*
X90757619Y-89094762D01*
X90852857Y-89142381D01*
X90948095Y-89142381D01*
X91281429Y-89142381D02*
X91281429Y-88475714D01*
X91281429Y-88666190D02*
X91329048Y-88570952D01*
X91376667Y-88523333D01*
X91471905Y-88475714D01*
X91567144Y-88475714D01*
X92329049Y-89142381D02*
X92329049Y-88618571D01*
X92281430Y-88523333D01*
X92186192Y-88475714D01*
X91995715Y-88475714D01*
X91900477Y-88523333D01*
X92329049Y-89094762D02*
X92233811Y-89142381D01*
X91995715Y-89142381D01*
X91900477Y-89094762D01*
X91852858Y-88999524D01*
X91852858Y-88904286D01*
X91900477Y-88809048D01*
X91995715Y-88761429D01*
X92233811Y-88761429D01*
X92329049Y-88713810D01*
X92757620Y-89094762D02*
X92852858Y-89142381D01*
X93043334Y-89142381D01*
X93138573Y-89094762D01*
X93186192Y-88999524D01*
X93186192Y-88951905D01*
X93138573Y-88856667D01*
X93043334Y-88809048D01*
X92900477Y-88809048D01*
X92805239Y-88761429D01*
X92757620Y-88666190D01*
X92757620Y-88618571D01*
X92805239Y-88523333D01*
X92900477Y-88475714D01*
X93043334Y-88475714D01*
X93138573Y-88523333D01*
X93757620Y-89142381D02*
X93662382Y-89094762D01*
X93614763Y-89047143D01*
X93567144Y-88951905D01*
X93567144Y-88666190D01*
X93614763Y-88570952D01*
X93662382Y-88523333D01*
X93757620Y-88475714D01*
X93900478Y-88475714D01*
X93995716Y-88523333D01*
X94043335Y-88570952D01*
X94090954Y-88666190D01*
X94090954Y-88951905D01*
X94043335Y-89047143D01*
X93995716Y-89094762D01*
X93900478Y-89142381D01*
X93757620Y-89142381D01*
X94519525Y-88475714D02*
X94519525Y-89142381D01*
X94519525Y-88570952D02*
X94567144Y-88523333D01*
X94662382Y-88475714D01*
X94805240Y-88475714D01*
X94900478Y-88523333D01*
X94948097Y-88618571D01*
X94948097Y-89142381D01*
X95424287Y-89142381D02*
X95424287Y-88475714D01*
X95424287Y-88142381D02*
X95376668Y-88190000D01*
X95424287Y-88237619D01*
X95471906Y-88190000D01*
X95424287Y-88142381D01*
X95424287Y-88237619D01*
X96329049Y-89094762D02*
X96233811Y-89142381D01*
X96043334Y-89142381D01*
X95948096Y-89094762D01*
X95900477Y-89047143D01*
X95852858Y-88951905D01*
X95852858Y-88666190D01*
X95900477Y-88570952D01*
X95948096Y-88523333D01*
X96043334Y-88475714D01*
X96233811Y-88475714D01*
X96329049Y-88523333D01*
X113180953Y-47212381D02*
X112847619Y-46736190D01*
X112609524Y-47212381D02*
X112609524Y-46212381D01*
X112990477Y-46212381D01*
X113085715Y-46260000D01*
X113133334Y-46307619D01*
X113180953Y-46402857D01*
X113180953Y-46545714D01*
X113133334Y-46640952D01*
X113085715Y-46688571D01*
X112990477Y-46736190D01*
X112609524Y-46736190D01*
X114133334Y-47212381D02*
X113561905Y-47212381D01*
X113847619Y-47212381D02*
X113847619Y-46212381D01*
X113752381Y-46355238D01*
X113657143Y-46450476D01*
X113561905Y-46498095D01*
X114752381Y-46212381D02*
X114847620Y-46212381D01*
X114942858Y-46260000D01*
X114990477Y-46307619D01*
X115038096Y-46402857D01*
X115085715Y-46593333D01*
X115085715Y-46831429D01*
X115038096Y-47021905D01*
X114990477Y-47117143D01*
X114942858Y-47164762D01*
X114847620Y-47212381D01*
X114752381Y-47212381D01*
X114657143Y-47164762D01*
X114609524Y-47117143D01*
X114561905Y-47021905D01*
X114514286Y-46831429D01*
X114514286Y-46593333D01*
X114561905Y-46402857D01*
X114609524Y-46307619D01*
X114657143Y-46260000D01*
X114752381Y-46212381D01*
X115704762Y-46212381D02*
X115800001Y-46212381D01*
X115895239Y-46260000D01*
X115942858Y-46307619D01*
X115990477Y-46402857D01*
X116038096Y-46593333D01*
X116038096Y-46831429D01*
X115990477Y-47021905D01*
X115942858Y-47117143D01*
X115895239Y-47164762D01*
X115800001Y-47212381D01*
X115704762Y-47212381D01*
X115609524Y-47164762D01*
X115561905Y-47117143D01*
X115514286Y-47021905D01*
X115466667Y-46831429D01*
X115466667Y-46593333D01*
X115514286Y-46402857D01*
X115561905Y-46307619D01*
X115609524Y-46260000D01*
X115704762Y-46212381D01*
X113514286Y-41925714D02*
X113514286Y-42592381D01*
X113276190Y-41544762D02*
X113038095Y-42259048D01*
X113657143Y-42259048D01*
X114038095Y-42592381D02*
X114038095Y-41592381D01*
X114609524Y-42592381D02*
X114180952Y-42020952D01*
X114609524Y-41592381D02*
X114038095Y-42163810D01*
X114942857Y-41592381D02*
X115609524Y-41592381D01*
X115180952Y-42592381D01*
X99210953Y-92122381D02*
X98877619Y-91646190D01*
X98639524Y-92122381D02*
X98639524Y-91122381D01*
X99020477Y-91122381D01*
X99115715Y-91170000D01*
X99163334Y-91217619D01*
X99210953Y-91312857D01*
X99210953Y-91455714D01*
X99163334Y-91550952D01*
X99115715Y-91598571D01*
X99020477Y-91646190D01*
X98639524Y-91646190D01*
X99591905Y-91217619D02*
X99639524Y-91170000D01*
X99734762Y-91122381D01*
X99972858Y-91122381D01*
X100068096Y-91170000D01*
X100115715Y-91217619D01*
X100163334Y-91312857D01*
X100163334Y-91408095D01*
X100115715Y-91550952D01*
X99544286Y-92122381D01*
X100163334Y-92122381D01*
X100782381Y-91122381D02*
X100877620Y-91122381D01*
X100972858Y-91170000D01*
X101020477Y-91217619D01*
X101068096Y-91312857D01*
X101115715Y-91503333D01*
X101115715Y-91741429D01*
X101068096Y-91931905D01*
X101020477Y-92027143D01*
X100972858Y-92074762D01*
X100877620Y-92122381D01*
X100782381Y-92122381D01*
X100687143Y-92074762D01*
X100639524Y-92027143D01*
X100591905Y-91931905D01*
X100544286Y-91741429D01*
X100544286Y-91503333D01*
X100591905Y-91312857D01*
X100639524Y-91217619D01*
X100687143Y-91170000D01*
X100782381Y-91122381D01*
X101734762Y-91122381D02*
X101830001Y-91122381D01*
X101925239Y-91170000D01*
X101972858Y-91217619D01*
X102020477Y-91312857D01*
X102068096Y-91503333D01*
X102068096Y-91741429D01*
X102020477Y-91931905D01*
X101972858Y-92027143D01*
X101925239Y-92074762D01*
X101830001Y-92122381D01*
X101734762Y-92122381D01*
X101639524Y-92074762D01*
X101591905Y-92027143D01*
X101544286Y-91931905D01*
X101496667Y-91741429D01*
X101496667Y-91503333D01*
X101544286Y-91312857D01*
X101591905Y-91217619D01*
X101639524Y-91170000D01*
X101734762Y-91122381D01*
X99544286Y-95837619D02*
X99591905Y-95790000D01*
X99687143Y-95742381D01*
X99925239Y-95742381D01*
X100020477Y-95790000D01*
X100068096Y-95837619D01*
X100115715Y-95932857D01*
X100115715Y-96028095D01*
X100068096Y-96170952D01*
X99496667Y-96742381D01*
X100115715Y-96742381D01*
X100544286Y-96742381D02*
X100544286Y-95742381D01*
X101115715Y-96742381D02*
X100687143Y-96170952D01*
X101115715Y-95742381D02*
X100544286Y-96313810D01*
X99210953Y-89582381D02*
X98877619Y-89106190D01*
X98639524Y-89582381D02*
X98639524Y-88582381D01*
X99020477Y-88582381D01*
X99115715Y-88630000D01*
X99163334Y-88677619D01*
X99210953Y-88772857D01*
X99210953Y-88915714D01*
X99163334Y-89010952D01*
X99115715Y-89058571D01*
X99020477Y-89106190D01*
X98639524Y-89106190D01*
X99591905Y-88677619D02*
X99639524Y-88630000D01*
X99734762Y-88582381D01*
X99972858Y-88582381D01*
X100068096Y-88630000D01*
X100115715Y-88677619D01*
X100163334Y-88772857D01*
X100163334Y-88868095D01*
X100115715Y-89010952D01*
X99544286Y-89582381D01*
X100163334Y-89582381D01*
X100782381Y-88582381D02*
X100877620Y-88582381D01*
X100972858Y-88630000D01*
X101020477Y-88677619D01*
X101068096Y-88772857D01*
X101115715Y-88963333D01*
X101115715Y-89201429D01*
X101068096Y-89391905D01*
X101020477Y-89487143D01*
X100972858Y-89534762D01*
X100877620Y-89582381D01*
X100782381Y-89582381D01*
X100687143Y-89534762D01*
X100639524Y-89487143D01*
X100591905Y-89391905D01*
X100544286Y-89201429D01*
X100544286Y-88963333D01*
X100591905Y-88772857D01*
X100639524Y-88677619D01*
X100687143Y-88630000D01*
X100782381Y-88582381D01*
X102068096Y-89582381D02*
X101496667Y-89582381D01*
X101782381Y-89582381D02*
X101782381Y-88582381D01*
X101687143Y-88725238D01*
X101591905Y-88820476D01*
X101496667Y-88868095D01*
X100115715Y-94202381D02*
X99544286Y-94202381D01*
X99830000Y-94202381D02*
X99830000Y-93202381D01*
X99734762Y-93345238D01*
X99639524Y-93440476D01*
X99544286Y-93488095D01*
X100544286Y-94202381D02*
X100544286Y-93202381D01*
X101115715Y-94202381D02*
X100687143Y-93630952D01*
X101115715Y-93202381D02*
X100544286Y-93773810D01*
X121586667Y-83482381D02*
X121586667Y-84196667D01*
X121539047Y-84339524D01*
X121443809Y-84434762D01*
X121300952Y-84482381D01*
X121205714Y-84482381D01*
X122491429Y-83815714D02*
X122491429Y-84482381D01*
X122253333Y-83434762D02*
X122015238Y-84149048D01*
X122634286Y-84149048D01*
X120062857Y-88190000D02*
X119967619Y-88142381D01*
X119824762Y-88142381D01*
X119681904Y-88190000D01*
X119586666Y-88285238D01*
X119539047Y-88380476D01*
X119491428Y-88570952D01*
X119491428Y-88713810D01*
X119539047Y-88904286D01*
X119586666Y-88999524D01*
X119681904Y-89094762D01*
X119824762Y-89142381D01*
X119920000Y-89142381D01*
X120062857Y-89094762D01*
X120110476Y-89047143D01*
X120110476Y-88713810D01*
X119920000Y-88713810D01*
X120539047Y-89142381D02*
X120539047Y-88475714D01*
X120539047Y-88666190D02*
X120586666Y-88570952D01*
X120634285Y-88523333D01*
X120729523Y-88475714D01*
X120824762Y-88475714D01*
X121300952Y-89142381D02*
X121205714Y-89094762D01*
X121158095Y-89047143D01*
X121110476Y-88951905D01*
X121110476Y-88666190D01*
X121158095Y-88570952D01*
X121205714Y-88523333D01*
X121300952Y-88475714D01*
X121443810Y-88475714D01*
X121539048Y-88523333D01*
X121586667Y-88570952D01*
X121634286Y-88666190D01*
X121634286Y-88951905D01*
X121586667Y-89047143D01*
X121539048Y-89094762D01*
X121443810Y-89142381D01*
X121300952Y-89142381D01*
X122491429Y-88475714D02*
X122491429Y-89142381D01*
X122062857Y-88475714D02*
X122062857Y-88999524D01*
X122110476Y-89094762D01*
X122205714Y-89142381D01*
X122348572Y-89142381D01*
X122443810Y-89094762D01*
X122491429Y-89047143D01*
X122967619Y-88475714D02*
X122967619Y-89142381D01*
X122967619Y-88570952D02*
X123015238Y-88523333D01*
X123110476Y-88475714D01*
X123253334Y-88475714D01*
X123348572Y-88523333D01*
X123396191Y-88618571D01*
X123396191Y-89142381D01*
X124300953Y-89142381D02*
X124300953Y-88142381D01*
X124300953Y-89094762D02*
X124205715Y-89142381D01*
X124015238Y-89142381D01*
X123920000Y-89094762D01*
X123872381Y-89047143D01*
X123824762Y-88951905D01*
X123824762Y-88666190D01*
X123872381Y-88570952D01*
X123920000Y-88523333D01*
X124015238Y-88475714D01*
X124205715Y-88475714D01*
X124300953Y-88523333D01*
M02*
