G04 #@! TF.FileFunction,Soldermask,Bot*
%FSLAX46Y46*%
G04 Gerber Fmt 4.6, Leading zero omitted, Abs format (unit mm)*
G04 Created by KiCad (PCBNEW 4.0.7) date Monday, 16. July 2018 'u49' 18:49:17*
%MOMM*%
%LPD*%
G01*
G04 APERTURE LIST*
%ADD10C,0.100000*%
%ADD11C,0.150000*%
%ADD12R,2.000000X2.000000*%
%ADD13O,2.000000X2.000000*%
%ADD14C,1.400000*%
%ADD15R,1.400000X1.400000*%
%ADD16R,2.100000X2.100000*%
%ADD17O,2.100000X2.100000*%
%ADD18C,2.000000*%
%ADD19C,3.600000*%
G04 APERTURE END LIST*
D10*
D11*
X194310000Y-25400000D02*
X50800000Y-25400000D01*
X44450000Y-25400000D02*
X194310000Y-25400000D01*
X44450000Y-26670000D02*
X44450000Y-25400000D01*
X44450000Y-27940000D02*
X44450000Y-26670000D01*
X44450000Y-97790000D02*
X44450000Y-27940000D01*
X194310000Y-97790000D02*
X44450000Y-97790000D01*
X194310000Y-25400000D02*
X194310000Y-97790000D01*
X45720000Y-30480000D02*
X46990000Y-30480000D01*
D12*
X58420000Y-67310000D03*
D13*
X91440000Y-59690000D03*
X60960000Y-67310000D03*
X88900000Y-59690000D03*
X63500000Y-67310000D03*
X86360000Y-59690000D03*
X66040000Y-67310000D03*
X83820000Y-59690000D03*
X68580000Y-67310000D03*
X81280000Y-59690000D03*
X71120000Y-67310000D03*
X78740000Y-59690000D03*
X73660000Y-67310000D03*
X76200000Y-59690000D03*
X76200000Y-67310000D03*
X73660000Y-59690000D03*
X78740000Y-67310000D03*
X71120000Y-59690000D03*
X81280000Y-67310000D03*
X68580000Y-59690000D03*
X83820000Y-67310000D03*
X66040000Y-59690000D03*
X86360000Y-67310000D03*
X63500000Y-59690000D03*
X88900000Y-67310000D03*
X60960000Y-59690000D03*
X91440000Y-67310000D03*
X58420000Y-59690000D03*
D12*
X76200000Y-73660000D03*
D13*
X55880000Y-81280000D03*
X73660000Y-73660000D03*
X58420000Y-81280000D03*
X71120000Y-73660000D03*
X60960000Y-81280000D03*
X68580000Y-73660000D03*
X63500000Y-81280000D03*
X66040000Y-73660000D03*
X66040000Y-81280000D03*
X63500000Y-73660000D03*
X68580000Y-81280000D03*
X60960000Y-73660000D03*
X71120000Y-81280000D03*
X58420000Y-73660000D03*
X73660000Y-81280000D03*
X55880000Y-73660000D03*
X76200000Y-81280000D03*
D12*
X58420000Y-53340000D03*
D13*
X78740000Y-45720000D03*
X60960000Y-53340000D03*
X76200000Y-45720000D03*
X63500000Y-53340000D03*
X73660000Y-45720000D03*
X66040000Y-53340000D03*
X71120000Y-45720000D03*
X68580000Y-53340000D03*
X68580000Y-45720000D03*
X71120000Y-53340000D03*
X66040000Y-45720000D03*
X73660000Y-53340000D03*
X63500000Y-45720000D03*
X76200000Y-53340000D03*
X60960000Y-45720000D03*
X78740000Y-53340000D03*
X58420000Y-45720000D03*
D12*
X109220000Y-53340000D03*
D13*
X116840000Y-71120000D03*
X109220000Y-55880000D03*
X116840000Y-68580000D03*
X109220000Y-58420000D03*
X116840000Y-66040000D03*
X109220000Y-60960000D03*
X116840000Y-63500000D03*
X109220000Y-63500000D03*
X116840000Y-60960000D03*
X109220000Y-66040000D03*
X116840000Y-58420000D03*
X109220000Y-68580000D03*
X116840000Y-55880000D03*
X109220000Y-71120000D03*
X116840000Y-53340000D03*
D14*
X102870000Y-36830000D03*
X104140000Y-38100000D03*
D15*
X101600000Y-38100000D03*
D16*
X76200000Y-91440000D03*
D17*
X73660000Y-91440000D03*
X71120000Y-91440000D03*
X68580000Y-91440000D03*
X66040000Y-91440000D03*
X63500000Y-91440000D03*
X60960000Y-91440000D03*
X58420000Y-91440000D03*
D16*
X58420000Y-31750000D03*
D17*
X60960000Y-31750000D03*
X63500000Y-31750000D03*
X66040000Y-31750000D03*
X68580000Y-31750000D03*
X71120000Y-31750000D03*
X73660000Y-31750000D03*
X76200000Y-31750000D03*
D16*
X121920000Y-78740000D03*
X86360000Y-73660000D03*
D17*
X88900000Y-73660000D03*
D16*
X111760000Y-78740000D03*
D17*
X109220000Y-78740000D03*
X106680000Y-78740000D03*
X104140000Y-78740000D03*
X101600000Y-78740000D03*
X99060000Y-78740000D03*
D16*
X109220000Y-33020000D03*
D17*
X111760000Y-33020000D03*
X114300000Y-33020000D03*
X116840000Y-33020000D03*
X119380000Y-33020000D03*
X121920000Y-33020000D03*
D16*
X109220000Y-36830000D03*
D17*
X111760000Y-36830000D03*
X114300000Y-36830000D03*
X116840000Y-36830000D03*
X119380000Y-36830000D03*
X121920000Y-36830000D03*
D16*
X109220000Y-27940000D03*
D17*
X111760000Y-27940000D03*
X114300000Y-27940000D03*
X116840000Y-27940000D03*
X119380000Y-27940000D03*
X121920000Y-27940000D03*
D16*
X123190000Y-60960000D03*
D17*
X123190000Y-63500000D03*
X123190000Y-66040000D03*
X123190000Y-68580000D03*
D16*
X101600000Y-53340000D03*
D17*
X101600000Y-55880000D03*
X101600000Y-58420000D03*
X101600000Y-60960000D03*
X101600000Y-63500000D03*
X101600000Y-66040000D03*
X101600000Y-68580000D03*
X101600000Y-71120000D03*
D16*
X85090000Y-33020000D03*
D17*
X85090000Y-35560000D03*
D16*
X92710000Y-30480000D03*
D17*
X92710000Y-33020000D03*
X92710000Y-35560000D03*
X92710000Y-38100000D03*
D16*
X111760000Y-86360000D03*
D17*
X111760000Y-88900000D03*
X111760000Y-91440000D03*
X111760000Y-93980000D03*
D16*
X92710000Y-83820000D03*
D17*
X92710000Y-86360000D03*
D18*
X121920000Y-44450000D03*
D13*
X106680000Y-44450000D03*
D18*
X92710000Y-93980000D03*
D13*
X107950000Y-93980000D03*
D18*
X92710000Y-91440000D03*
D13*
X107950000Y-91440000D03*
D16*
X121920000Y-86360000D03*
D19*
X49530000Y-92710000D03*
X135890000Y-90170000D03*
X190500000Y-93980000D03*
X185420000Y-90170000D03*
X135890000Y-31750000D03*
X190500000Y-29210000D03*
X185420000Y-31750000D03*
X49530000Y-30480000D03*
M02*
